<?xml version="1.0" standalone="no"?>
<!DOCTYPE svg PUBLIC "-//W3C//DTD SVG 20010904//EN"
 "http://www.w3.org/TR/2001/REC-SVG-20010904/DTD/svg10.dtd">
<svg version="1.0" xmlns="http://www.w3.org/2000/svg"
 width="500.000000pt" height="500.000000pt" viewBox="0 0 500.000000 500.000000"
 preserveAspectRatio="xMidYMid meet">
<metadata>
Created by potrace 1.14, written by Peter Selinger 2001-2017
</metadata>
<g transform="translate(0.000000,500.000000) scale(0.100000,-0.100000)"
fill="#000000" stroke="none">
<path d="M2265 4864 c-141 -15 -170 -20 -285 -45 -600 -132 -1137 -508 -1479
-1034 -58 -90 -164 -289 -189 -356 l-10 -26 141 50 c78 27 151 53 162 57 11 5
74 27 140 50 66 23 163 56 215 75 52 18 208 73 345 121 350 122 518 180 535
187 8 3 39 13 68 21 50 14 54 14 72 -4 19 -19 20 -35 20 -314 0 -312 0 -311
48 -321 11 -2 58 10 104 26 46 17 108 38 138 49 30 10 127 44 215 75 88 31
171 61 185 65 14 4 108 37 210 73 102 36 372 130 600 210 228 80 429 151 445
157 17 6 26 7 20 2 -5 -5 -179 -114 -385 -242 -206 -129 -404 -252 -440 -275
-36 -23 -276 -173 -535 -335 -258 -161 -486 -303 -505 -315 -19 -13 -78 -50
-130 -82 -143 -88 -219 -136 -254 -158 -50 -34 -63 -35 -90 -14 l-26 20 0 168
c0 150 -2 170 -18 184 -10 10 -27 17 -38 17 -17 0 -1235 -827 -1354 -920 -20
-15 -20 -16 1 -95 21 -84 55 -196 69 -230 4 -11 20 -50 34 -88 175 -455 540
-888 967 -1145 270 -162 578 -276 856 -318 21 -3 49 -7 63 -10 98 -17 368 -23
520 -11 637 50 1239 369 1647 872 35 44 98 131 139 192 89 134 233 413 206
401 -39 -19 -81 -35 -237 -88 -197 -68 -465 -161 -760 -265 -666 -234 -635
-224 -655 -217 -37 13 -39 30 -40 329 0 367 12 349 -190 278 -345 -121 -741
-260 -775 -271 -22 -7 -98 -33 -170 -59 -71 -26 -161 -57 -200 -70 -38 -13
-122 -43 -185 -65 -63 -23 -146 -52 -185 -65 -38 -13 -114 -40 -167 -59 -100
-36 -124 -40 -65 -10 17 9 34 20 37 23 3 3 14 11 25 17 23 14 1355 846 1455
909 374 238 755 469 768 467 10 -2 25 -12 35 -24 15 -17 17 -42 17 -183 0
-148 2 -163 20 -180 11 -10 29 -16 42 -13 19 4 349 226 768 517 41 29 131 90
200 137 150 102 336 231 373 259 l27 20 -29 110 c-49 185 -121 371 -199 515
-20 36 -40 74 -46 85 -26 49 -150 226 -210 301 -359 446 -914 768 -1464 850
-20 3 -47 7 -60 9 -128 21 -403 26 -557 9z"/>
</g>
</svg>
