<?xml version="1.0" standalone="no"?>
<!DOCTYPE svg PUBLIC "-//W3C//DTD SVG 20010904//EN"
 "http://www.w3.org/TR/2001/REC-SVG-20010904/DTD/svg10.dtd">
<svg version="1.0" xmlns="http://www.w3.org/2000/svg"
 width="1328.000000pt" height="1328.000000pt" viewBox="0 0 1328.000000 1328.000000"
 preserveAspectRatio="xMidYMid meet">
<metadata>
Created by potrace 1.14, written by Peter Selinger 2001-2017
</metadata>
<g transform="translate(0.000000,1328.000000) scale(0.100000,-0.100000)"
fill="#000000" stroke="none">
<path d="M6299 13276 c-2 -2 -57 -7 -121 -10 -65 -4 -128 -9 -140 -11 -13 -2
-52 -6 -88 -9 -354 -34 -684 -98 -1180 -230 -8 -2 -93 -30 -189 -61 -463 -152
-810 -307 -1282 -572 -259 -147 -697 -455 -920 -647 -19 -17 -51 -44 -70 -61
-130 -111 -193 -170 -349 -325 -266 -266 -422 -444 -640 -735 -330 -442 -599
-910 -799 -1390 -23 -55 -46 -109 -51 -120 -14 -33 -92 -239 -96 -255 -4 -16
-72 -225 -81 -250 -3 -8 -7 -19 -8 -25 -2 -5 -16 -57 -33 -115 -31 -105 -77
-283 -86 -330 -2 -14 -10 -47 -16 -75 -6 -27 -14 -61 -16 -75 -3 -14 -7 -32
-9 -40 -2 -8 -7 -31 -10 -50 -3 -19 -10 -60 -15 -90 -14 -82 -19 -111 -25
-155 -4 -22 -8 -51 -10 -65 -2 -14 -7 -47 -10 -75 -3 -27 -8 -61 -10 -75 -2
-14 -7 -56 -11 -95 -3 -38 -8 -83 -9 -99 -27 -223 -27 -972 -1 -1196 3 -19 7
-62 11 -95 3 -33 8 -71 10 -85 2 -14 6 -52 10 -85 4 -32 8 -66 10 -75 1 -8 6
-35 9 -60 5 -39 32 -196 51 -295 97 -523 311 -1149 566 -1658 285 -568 621
-1060 1044 -1526 132 -145 458 -461 575 -557 19 -16 37 -31 40 -34 3 -3 28
-24 55 -45 28 -22 55 -45 60 -52 6 -6 87 -69 180 -139 665 -497 1384 -855
2168 -1080 88 -25 168 -47 176 -49 9 -2 63 -15 121 -28 135 -32 280 -62 400
-82 52 -9 106 -18 120 -20 14 -3 48 -7 75 -10 28 -3 77 -10 110 -15 33 -5 96
-12 140 -15 44 -4 86 -8 93 -10 80 -26 1058 -26 1190 0 10 2 54 6 98 9 43 4
86 9 94 11 8 2 40 6 71 10 31 3 65 7 75 9 11 2 42 7 69 10 63 8 298 52 390 72
39 9 81 18 95 20 288 54 920 268 1266 429 930 434 1679 1006 2354 1801 75 88
256 325 320 419 18 28 36 52 40 55 7 6 152 231 196 303 16 27 37 61 46 75 10
15 21 34 25 42 3 8 16 31 28 50 104 168 292 557 397 819 157 391 309 911 364
1241 3 14 11 61 19 105 8 44 17 103 21 130 3 28 8 58 10 69 2 10 6 44 10 75 3
31 8 63 9 71 2 8 6 47 10 85 4 39 8 86 10 105 28 250 27 991 0 1205 -2 17 -7
57 -10 90 -9 89 -15 147 -20 175 -2 14 -7 45 -10 70 -3 25 -10 70 -15 100 -5
30 -12 73 -16 95 -11 80 -66 343 -96 460 -16 66 -32 129 -34 139 -24 122 -214
670 -299 861 -7 17 -27 64 -45 105 -35 81 -182 378 -232 469 -46 83 -179 312
-198 341 -9 14 -60 90 -112 170 -139 210 -412 569 -523 686 -11 12 -51 57 -90
100 -75 84 -309 320 -415 419 -679 628 -1514 1121 -2405 1420 -202 68 -599
174 -755 201 -14 2 -45 9 -70 14 -40 8 -94 18 -200 35 -19 3 -42 8 -50 10 -8
2 -44 7 -79 10 -36 3 -67 8 -70 9 -3 2 -40 7 -81 11 -41 4 -82 9 -91 10 -8 2
-53 6 -100 10 -46 3 -102 9 -124 11 -46 6 -811 15 -816 10z m666 -180 c184
-11 338 -23 385 -31 14 -2 54 -7 90 -11 36 -3 74 -8 85 -10 10 -2 37 -6 60 -9
42 -6 181 -29 275 -45 30 -6 70 -14 88 -19 18 -5 35 -10 37 -10 4 0 94 -19
125 -26 51 -12 68 -16 85 -19 178 -36 745 -223 940 -311 28 -13 84 -37 125
-55 87 -38 398 -191 483 -239 283 -158 526 -315 757 -487 80 -59 154 -116 165
-125 11 -9 62 -52 114 -95 309 -257 659 -612 886 -899 22 -27 43 -52 46 -55
21 -19 253 -341 330 -460 230 -351 358 -591 564 -1055 73 -163 207 -553 260
-752 14 -54 30 -109 35 -123 5 -14 11 -36 14 -50 2 -14 18 -86 34 -160 38
-169 69 -335 87 -463 3 -27 8 -56 10 -65 1 -10 6 -46 9 -82 4 -36 9 -76 11
-90 9 -54 21 -210 31 -390 12 -216 6 -643 -11 -820 -3 -33 -15 -161 -20 -225
-3 -33 -14 -115 -20 -154 -2 -13 -7 -45 -10 -70 -4 -25 -13 -82 -21 -126 -7
-44 -16 -96 -19 -115 -3 -19 -8 -42 -10 -50 -2 -8 -7 -31 -10 -50 -11 -66 -66
-295 -101 -425 -489 -1776 -1730 -3275 -3386 -4088 -652 -320 -1309 -516
-2048 -612 -89 -11 -113 -14 -194 -20 -44 -4 -92 -8 -104 -10 -143 -22 -778
-22 -1007 -1 -16 2 -66 6 -110 10 -44 4 -91 9 -105 11 -14 2 -50 7 -80 10
-195 24 -383 56 -585 100 -66 14 -136 30 -155 35 -57 16 -264 71 -280 75 -8 2
-86 26 -172 55 -1838 597 -3308 1979 -4023 3780 -48 120 -178 495 -191 550 -2
8 -17 67 -34 130 -25 93 -68 267 -85 350 -31 151 -39 194 -60 330 -2 14 -7 45
-11 70 -8 50 -9 59 -19 145 -4 33 -9 67 -10 76 -2 8 -6 55 -10 105 -4 49 -8
99 -10 112 -22 138 -22 829 0 1009 2 15 6 62 10 103 6 80 9 106 24 215 6 39
13 93 16 120 3 28 10 73 15 100 6 28 12 68 16 90 3 22 12 74 21 115 8 41 17
86 20 100 54 294 272 995 427 1374 114 277 197 425 372 659 60 80 150 205 199
278 76 113 304 419 339 455 6 6 34 37 61 70 251 295 496 535 850 833 50 42
338 256 422 315 85 58 381 246 388 246 2 0 28 14 57 31 217 129 543 286 832
401 211 84 635 223 741 242 6 1 19 5 30 9 11 3 31 8 45 11 14 2 61 13 105 25
44 11 95 23 113 26 18 3 63 12 100 19 71 15 279 49 372 61 30 4 64 9 75 11 11
2 45 6 75 9 54 4 135 12 215 20 22 2 110 7 195 11 85 3 156 7 157 8 4 4 375
-3 478 -8z"/>
<path d="M6317 12904 c-1 -1 -55 -5 -120 -8 -65 -4 -125 -9 -135 -11 -9 -1
-57 -6 -107 -10 -49 -3 -92 -8 -95 -10 -3 -1 -30 -6 -60 -9 -58 -7 -97 -13
-142 -22 -15 -3 -39 -20 -54 -37 -25 -29 -26 -35 -20 -106 4 -41 8 -77 10 -80
2 -3 7 -24 10 -46 3 -22 10 -62 16 -90 5 -27 11 -63 14 -80 3 -16 12 -75 21
-129 15 -91 16 -103 1 -132 -20 -44 -51 -59 -156 -79 -14 -3 -80 -18 -148 -33
-120 -28 -123 -28 -162 -11 -28 13 -41 26 -46 46 -19 74 15 121 99 137 55 10
124 30 148 42 31 16 61 74 55 106 -2 13 -19 96 -38 186 -52 259 -55 260 -353
182 -187 -49 -345 -98 -507 -157 -71 -26 -96 -51 -103 -104 -2 -20 27 -109 91
-277 52 -136 97 -264 100 -285 10 -58 -22 -96 -110 -132 -39 -16 -114 -49
-166 -73 -113 -52 -125 -55 -168 -41 -41 13 -66 59 -58 104 8 42 25 56 126
103 158 73 161 91 66 321 -40 94 -81 181 -92 192 -38 37 -86 36 -182 -7 -148
-65 -412 -201 -564 -291 -139 -83 -138 -101 24 -363 157 -255 177 -291 178
-315 0 -45 -36 -86 -140 -156 -58 -40 -131 -90 -162 -111 -43 -30 -64 -38 -86
-35 -43 7 -71 28 -82 62 -19 59 -4 83 96 156 92 66 106 84 107 139 1 30 -16
62 -104 193 -161 242 -154 242 -449 18 -145 -110 -336 -267 -392 -323 -31 -31
-38 -45 -38 -75 1 -52 10 -65 130 -195 58 -62 126 -135 152 -163 25 -27 58
-63 73 -80 52 -57 64 -103 38 -149 -13 -23 -255 -270 -278 -283 -43 -26 -102
-9 -126 35 -8 15 -14 34 -13 42 1 8 2 22 3 31 0 9 31 49 69 89 126 135 124
151 -46 326 -70 72 -137 136 -149 142 -12 7 -37 12 -57 12 -40 0 -70 -22 -161
-119 -33 -36 -67 -72 -75 -81 -97 -103 -325 -380 -347 -423 -18 -36 -12 -91
14 -119 10 -11 116 -92 236 -180 287 -211 286 -209 160 -389 -33 -47 -62 -90
-64 -95 -15 -35 -77 -114 -96 -123 -56 -25 -117 0 -132 55 -12 43 -9 51 46
137 80 123 82 172 9 232 -24 19 -48 35 -54 35 -6 0 -12 3 -14 8 -3 7 -15 16
-142 102 -84 57 -125 66 -172 35 -63 -41 -424 -667 -424 -736 0 -56 24 -84
107 -124 268 -130 385 -185 394 -185 5 0 27 -18 49 -40 52 -52 52 -74 -4 -203
-24 -56 -59 -137 -76 -180 -27 -65 -38 -81 -66 -94 -45 -22 -91 -8 -121 35
-25 37 -22 52 32 191 25 64 27 75 16 111 -6 22 -23 47 -39 58 -41 28 -334 152
-360 152 -36 0 -80 -27 -97 -60 -45 -87 -179 -461 -241 -675 -34 -116 -8 -171
91 -196 72 -17 395 -102 445 -116 99 -29 128 -82 99 -187 -6 -21 -12 -48 -15
-60 -2 -11 -11 -57 -20 -101 -9 -44 -17 -90 -19 -102 -3 -31 -32 -72 -60 -85
-30 -13 -88 -3 -108 20 -25 29 -28 73 -9 172 32 163 19 176 -218 231 -95 21
-184 39 -197 39 -30 0 -75 -25 -91 -51 -16 -25 -57 -248 -88 -474 -8 -60 -16
-123 -19 -140 -2 -16 -7 -70 -10 -120 -6 -80 -4 -94 14 -123 27 -42 50 -50
168 -57 54 -3 121 -8 149 -10 28 -2 102 -7 164 -11 159 -8 174 -13 204 -59 15
-23 17 -52 14 -230 l-3 -205 -27 -27 c-28 -28 -78 -38 -111 -21 -40 20 -51 56
-52 168 -2 165 -24 186 -204 190 -58 1 -139 3 -179 4 -47 1 -84 -3 -103 -13
-54 -25 -60 -52 -58 -249 1 -183 2 -209 13 -377 15 -238 24 -278 69 -306 27
-17 43 -19 102 -14 39 3 81 7 95 9 14 3 87 12 163 21 75 9 147 18 160 21 120
24 178 -9 194 -111 2 -16 16 -91 30 -165 14 -74 25 -146 24 -160 -4 -84 -121
-120 -169 -52 -19 25 -23 41 -39 147 -9 62 -41 113 -80 126 -31 10 -83 5 -272
-26 -13 -2 -45 -7 -70 -11 -47 -7 -77 -19 -96 -38 -21 -21 -37 -75 -31 -103 4
-15 8 -39 11 -53 33 -175 51 -252 90 -402 58 -225 82 -299 105 -323 43 -46 74
-42 340 46 135 45 265 83 290 86 71 7 98 -24 155 -182 27 -71 57 -150 67 -174
32 -71 12 -125 -55 -150 -21 -8 -36 -7 -61 3 -34 14 -43 28 -91 146 -29 73
-75 120 -117 120 -24 0 -138 -36 -193 -60 -11 -5 -55 -21 -97 -36 -85 -29
-116 -55 -128 -107 -6 -30 2 -58 57 -193 35 -88 111 -254 168 -371 115 -233
129 -251 204 -240 20 3 115 49 211 102 342 191 337 189 392 151 27 -18 187
-257 218 -324 26 -58 -3 -125 -61 -137 -53 -12 -83 10 -145 106 -61 95 -98
122 -150 113 -33 -6 -308 -165 -342 -198 -14 -14 -26 -40 -29 -64 -5 -37 0
-50 43 -119 136 -219 393 -564 444 -596 41 -26 88 -18 143 25 23 18 44 35 47
38 3 3 75 64 160 135 85 71 157 132 160 136 9 11 65 36 75 34 6 -2 22 -6 38
-9 15 -4 35 -15 45 -25 132 -139 230 -249 245 -276 47 -86 -59 -175 -137 -114
-14 11 -51 47 -82 80 -93 97 -140 98 -242 6 -209 -187 -221 -199 -227 -227
-14 -65 0 -86 179 -264 94 -94 194 -191 221 -216 84 -76 195 -170 203 -171 45
-6 71 -4 93 6 14 8 101 108 195 223 93 115 182 218 199 228 30 18 74 20 104 5
22 -12 271 -197 297 -221 56 -52 24 -147 -53 -157 -31 -4 -47 1 -88 28 -27 18
-52 36 -55 39 -18 19 -71 49 -97 54 -40 9 -92 -12 -120 -50 -107 -142 -175
-232 -188 -249 -8 -10 -16 -25 -16 -32 -1 -7 -2 -19 -3 -25 -3 -21 16 -72 33
-88 70 -68 590 -400 667 -427 71 -25 114 7 181 134 213 403 236 437 304 426
17 -2 79 -28 137 -56 59 -29 135 -65 170 -81 95 -43 120 -110 63 -167 -41 -40
-79 -38 -184 11 -95 45 -114 47 -164 24 -30 -15 -44 -37 -119 -188 -74 -148
-85 -176 -81 -209 3 -22 15 -50 27 -63 47 -49 700 -314 775 -314 33 0 67 17
86 43 9 12 51 135 94 272 42 138 84 263 92 278 8 16 31 35 51 44 33 14 43 14
97 0 33 -9 105 -27 160 -41 172 -44 172 -44 193 -78 24 -38 21 -82 -9 -114
-31 -34 -59 -36 -154 -14 -105 24 -138 25 -176 3 -34 -20 -38 -29 -88 -208
-55 -199 -55 -199 -35 -240 20 -43 46 -57 139 -79 39 -9 86 -21 105 -26 57
-14 293 -58 404 -76 21 -3 48 -8 60 -10 11 -2 48 -7 82 -10 109 -11 145 25
159 159 3 37 8 76 10 86 2 9 6 51 10 92 3 41 8 81 10 89 2 8 6 47 10 85 15
169 48 204 180 190 28 -2 104 -7 170 -11 72 -4 133 -12 152 -21 61 -28 68
-114 12 -156 -27 -20 -39 -21 -174 -17 -115 3 -153 -27 -161 -128 -3 -32 -6
-75 -9 -97 -21 -219 -16 -259 36 -297 32 -24 82 -27 419 -28 316 -1 415 5 446
25 38 24 56 70 50 123 -3 26 -8 90 -11 142 -4 52 -8 111 -10 130 -2 19 -7 88
-11 152 l-7 117 34 34 c30 30 43 35 104 42 39 4 77 8 85 10 8 1 42 6 75 10 32
4 68 9 80 11 39 9 92 6 113 -5 43 -23 59 -79 37 -133 -9 -22 -60 -45 -120 -53
-85 -10 -109 -15 -137 -26 -31 -12 -68 -79 -63 -112 3 -19 8 -63 20 -187 17
-164 21 -178 62 -210 25 -20 35 -22 103 -16 41 3 86 8 100 10 14 3 68 12 120
21 123 21 329 62 405 82 33 8 71 17 84 20 42 7 78 40 88 81 10 37 -7 116 -67
322 -37 126 -70 257 -70 275 0 12 15 38 33 57 28 31 54 42 207 92 96 31 185
56 198 56 37 0 82 -52 82 -93 0 -55 -29 -80 -132 -116 -143 -50 -172 -95 -134
-212 8 -24 31 -98 51 -164 43 -141 69 -175 135 -175 21 0 49 4 62 9 13 6 82
31 153 57 125 45 370 145 486 198 72 34 100 64 103 112 2 32 -20 83 -122 289
-83 165 -125 261 -125 283 0 32 26 78 54 94 189 108 323 178 339 178 63 0 111
-63 94 -123 -10 -33 -49 -64 -141 -113 -95 -49 -112 -110 -59 -209 158 -294
167 -305 232 -305 51 0 422 226 662 403 61 44 83 84 72 132 -4 18 -79 127
-179 258 -148 196 -171 232 -171 263 0 50 22 81 97 139 35 28 90 73 121 102
69 63 125 93 155 84 48 -13 69 -38 74 -84 5 -43 3 -48 -38 -87 -24 -23 -63
-58 -86 -77 -48 -40 -66 -86 -53 -134 7 -23 171 -238 225 -295 36 -37 104 -45
147 -16 90 59 545 500 575 556 6 12 10 40 8 61 -4 43 -12 52 -200 221 -49 45
-119 107 -155 139 -75 68 -90 86 -96 120 -5 28 17 88 42 112 9 9 61 72 115
140 55 67 103 123 107 124 4 0 18 3 32 5 55 10 110 -39 110 -99 0 -15 -26 -58
-65 -108 -36 -46 -68 -99 -71 -117 -9 -46 11 -87 65 -130 68 -55 92 -75 109
-92 34 -33 135 -110 146 -111 6 0 20 -2 31 -4 42 -8 82 26 186 163 110 143
230 313 312 441 52 83 61 138 29 177 -9 12 -116 81 -237 154 -279 168 -272
163 -285 211 -10 35 -8 46 8 77 116 223 165 312 183 328 31 28 93 25 123 -6
43 -44 42 -65 -14 -178 -53 -109 -57 -140 -25 -189 21 -31 333 -203 370 -203
62 0 85 27 167 191 116 234 238 512 252 576 12 52 -15 100 -69 124 -48 21
-168 67 -195 74 -8 2 -82 29 -165 60 -215 80 -222 93 -161 284 19 58 44 139
56 179 15 52 28 77 46 88 49 32 98 25 136 -20 23 -28 22 -49 -7 -150 -29 -100
-31 -126 -10 -166 20 -38 38 -47 232 -110 150 -50 164 -53 201 -42 46 14 68
43 89 116 29 102 102 379 107 405 3 14 7 37 10 51 17 78 44 214 47 238 5 34
-6 67 -28 92 -30 33 -63 42 -243 65 -30 4 -57 9 -60 10 -3 2 -33 7 -65 10 -33
4 -63 9 -66 11 -3 1 -28 6 -55 9 -105 14 -141 32 -171 88 -8 16 -5 74 11 182
3 17 8 71 11 120 4 51 14 101 23 117 31 52 103 64 145 23 32 -33 35 -53 25
-156 -17 -158 8 -190 164 -209 57 -7 112 -14 123 -16 10 -2 50 -6 88 -10 133
-12 159 20 172 211 4 44 8 100 10 125 3 25 8 154 11 287 7 264 4 288 -44 319
-30 20 -45 20 -387 10 -167 -4 -226 -3 -244 7 -42 21 -60 57 -66 132 -3 39 -8
93 -10 120 -19 224 -20 212 13 245 35 34 83 40 120 14 39 -27 42 -38 56 -204
5 -48 10 -60 42 -89 l36 -33 132 7 c72 4 142 9 156 10 14 1 45 3 69 4 35 1 49
7 78 36 l36 36 -6 97 c-4 53 -9 111 -11 127 -3 17 -7 55 -11 85 -9 80 -16 132
-21 160 -2 14 -9 54 -14 90 -34 209 -50 270 -75 296 -39 39 -68 40 -220 5 -77
-17 -149 -33 -160 -35 -11 -2 -60 -14 -110 -26 -129 -31 -167 -33 -204 -7 -22
16 -35 36 -45 72 -109 386 -105 358 -61 402 23 23 42 33 63 33 43 0 89 -42
103 -93 40 -155 52 -177 105 -197 25 -10 48 -9 109 6 6 1 39 10 75 19 36 9 70
18 75 19 6 1 40 10 78 20 73 21 112 51 122 94 11 54 -154 567 -246 759 -26 55
-34 64 -70 74 -49 15 -45 17 -339 -112 -129 -56 -244 -103 -256 -103 -11 0
-34 6 -52 13 -27 11 -43 38 -121 193 -50 99 -91 189 -91 199 0 47 53 99 102
99 35 0 75 -41 112 -116 45 -91 61 -112 96 -127 44 -18 76 -8 244 73 229 109
239 130 150 297 -116 219 -313 552 -349 591 -7 7 -30 19 -51 27 -32 11 -45 11
-69 0 -16 -6 -125 -78 -242 -158 -116 -80 -220 -150 -230 -155 -23 -12 -79 -6
-103 11 -10 7 -49 53 -86 102 -37 50 -90 119 -117 154 -45 59 -49 69 -44 105
8 54 45 85 99 82 40 -3 54 -15 113 -92 16 -21 45 -54 64 -73 31 -30 39 -33 80
-29 40 4 66 19 190 111 79 59 150 115 157 125 18 26 23 73 10 102 -9 21 -106
153 -125 170 -4 3 -24 28 -46 55 -22 28 -53 65 -70 84 -51 59 -137 155 -154
172 -9 9 -42 44 -75 78 -67 70 -110 88 -160 67 -17 -8 -120 -104 -229 -214
-133 -134 -207 -201 -225 -205 -43 -8 -77 3 -114 36 -18 18 -72 66 -118 107
-141 125 -150 135 -150 174 0 25 9 45 28 67 50 56 100 40 215 -65 92 -85 139
-74 260 57 46 51 103 112 125 137 23 25 44 60 48 78 12 61 -5 83 -196 246 -83
70 -300 236 -393 300 -74 50 -123 59 -164 31 -12 -9 -93 -121 -179 -249 -87
-131 -167 -239 -180 -247 -49 -26 -84 -14 -222 70 -72 45 -136 81 -141 81 -5
0 -26 15 -45 34 -48 44 -50 94 -7 137 43 42 77 38 181 -21 148 -85 175 -74
292 115 106 172 110 180 111 221 1 50 -26 79 -143 146 -186 108 -549 287 -612
303 -45 11 -93 -19 -122 -78 -30 -63 -196 -456 -196 -466 0 -15 -48 -52 -79
-61 -28 -8 -57 0 -206 56 -96 35 -179 64 -184 64 -18 0 -51 58 -51 89 0 38 45
91 80 93 14 1 70 -14 126 -32 163 -54 180 -41 273 208 47 129 62 178 57 199
-8 29 -65 89 -87 91 -8 0 -68 19 -134 42 -66 22 -167 54 -225 71 -58 16 -128
36 -155 45 -28 8 -64 17 -80 20 -17 2 -45 9 -63 15 -45 15 -113 15 -140 0 -37
-20 -51 -63 -96 -286 -64 -313 -74 -343 -124 -368 -29 -15 -36 -15 -177 9
-107 18 -125 21 -188 29 -60 7 -83 21 -101 60 -19 41 -10 80 27 111 28 24 35
25 96 19 36 -4 69 -9 73 -11 3 -2 29 -5 56 -5 73 -2 117 32 128 99 2 15 9 50
14 77 5 28 12 67 16 89 3 21 8 48 10 60 32 158 3 204 -141 221 -33 4 -68 9
-79 11 -10 2 -44 6 -75 9 -31 4 -67 8 -81 10 -24 4 -85 9 -225 21 -38 3 -115
7 -169 9 -87 3 -103 1 -128 -16 -15 -11 -33 -30 -39 -42 -7 -13 -13 -102 -15
-236 -7 -360 -7 -368 -39 -401 -19 -20 -41 -31 -69 -34 -73 -10 -362 -13 -384
-5 -30 11 -61 66 -56 97 12 65 38 82 137 88 131 7 152 13 183 45 l29 30 0 191
c0 212 -5 236 -57 268 -26 16 -47 20 -101 18 -38 -2 -69 -4 -70 -4z m25 -216
c43 -50 14 -139 -51 -152 -14 -3 -60 -8 -101 -11 -110 -8 -127 -13 -156 -48
-26 -31 -26 -34 -20 -122 3 -49 8 -103 10 -120 3 -16 7 -55 11 -85 3 -30 8
-69 11 -87 10 -53 66 -92 129 -87 17 1 70 5 119 9 49 4 189 8 311 10 200 2
225 4 248 21 47 34 49 46 62 359 11 267 12 272 34 304 12 17 35 32 52 36 27 6
214 -1 249 -10 8 -2 46 -6 83 -10 91 -9 106 -12 133 -30 45 -29 44 -121 -2
-152 -29 -18 -45 -19 -171 -8 -142 12 -174 -10 -186 -125 -26 -245 -28 -308
-13 -344 22 -52 53 -64 201 -81 118 -13 292 -42 425 -69 89 -19 121 -20 153
-5 42 19 54 51 112 299 53 227 76 304 96 326 40 42 73 41 263 -15 96 -27 191
-57 211 -65 64 -27 79 -110 28 -158 -32 -30 -84 -28 -183 6 -102 35 -134 34
-174 -6 -26 -27 -38 -55 -64 -153 -18 -66 -33 -124 -33 -130 -1 -5 -5 -17 -10
-27 -5 -9 -11 -36 -14 -60 -4 -36 -1 -52 17 -79 20 -28 38 -39 113 -64 194
-66 285 -99 418 -152 185 -74 223 -68 272 42 13 28 44 94 69 148 25 55 46 100
46 102 0 1 22 50 49 108 56 117 84 146 142 142 47 -2 364 -165 402 -206 45
-48 31 -115 -30 -144 -40 -19 -52 -16 -160 41 -162 86 -180 77 -297 -156 -71
-141 -85 -177 -81 -203 9 -46 29 -73 77 -100 236 -133 300 -171 412 -244 138
-89 172 -99 224 -67 15 9 99 117 187 241 168 237 191 260 251 250 27 -5 157
-92 210 -142 6 -5 29 -23 50 -40 21 -16 57 -46 79 -67 35 -32 40 -41 39 -78
-2 -50 -35 -89 -80 -94 -38 -3 -54 5 -147 81 -43 35 -85 64 -95 64 -9 1 -24 2
-32 3 -45 4 -72 -20 -184 -167 -160 -212 -160 -219 7 -359 61 -51 123 -104
138 -118 245 -234 286 -265 334 -256 38 7 47 14 196 156 77 74 169 161 202
192 86 80 139 88 196 29 84 -88 242 -275 258 -306 30 -58 -28 -141 -93 -132
-42 6 -49 11 -130 108 -94 110 -146 117 -241 31 -29 -26 -88 -78 -132 -117
-44 -38 -86 -83 -94 -99 -20 -38 -12 -92 18 -131 13 -16 70 -86 125 -155 55
-69 135 -175 178 -237 130 -187 130 -187 403 -12 112 72 234 151 271 175 37
24 71 44 75 44 15 0 263 -429 263 -454 0 -64 -56 -113 -116 -101 -39 7 -62 35
-120 142 -73 135 -105 136 -321 7 -132 -78 -164 -101 -178 -130 -20 -42 -15
-81 18 -137 46 -77 172 -331 216 -432 24 -55 53 -110 64 -123 23 -25 79 -44
105 -35 24 8 243 93 267 103 11 5 70 30 132 55 198 80 211 71 302 -190 77
-222 80 -244 40 -285 -33 -32 -70 -38 -113 -19 -29 13 -43 41 -81 157 -50 152
-73 158 -312 71 -239 -87 -253 -107 -198 -270 24 -70 101 -341 109 -384 15
-77 39 -163 52 -182 20 -31 62 -51 101 -47 29 2 102 16 452 84 150 29 184 5
206 -145 3 -22 10 -65 15 -95 5 -30 11 -77 15 -105 3 -27 7 -72 10 -98 5 -45
3 -51 -29 -83 -29 -29 -39 -33 -71 -29 -21 2 -44 10 -52 16 -13 12 -45 66 -42
71 4 7 -14 147 -23 178 -19 66 -71 86 -180 69 -29 -5 -70 -11 -91 -14 -201
-31 -234 -44 -255 -104 -9 -25 -9 -43 2 -126 3 -22 8 -67 11 -100 3 -33 7 -79
10 -102 2 -23 7 -97 11 -165 3 -68 7 -144 8 -169 2 -45 26 -91 56 -106 8 -4
152 -10 318 -13 l304 -5 30 -34 31 -34 -7 -186 c-9 -258 -10 -261 -46 -293
-42 -39 -83 -37 -125 5 -28 28 -33 39 -30 73 10 128 7 204 -9 228 -34 52 -58
56 -372 60 -120 2 -147 -26 -158 -159 -4 -44 -9 -100 -11 -125 -2 -25 -7 -74
-10 -110 -4 -36 -15 -123 -26 -194 -10 -70 -19 -142 -19 -158 0 -38 31 -82 67
-96 22 -9 206 -46 383 -78 29 -6 46 -9 120 -24 61 -12 107 -48 113 -90 6 -38
-73 -381 -100 -433 -15 -30 -67 -58 -92 -50 -41 13 -61 28 -75 58 -14 29 -14
39 9 124 37 139 31 191 -27 222 -41 22 -362 90 -393 83 -57 -12 -90 -65 -111
-180 -3 -15 -7 -31 -10 -36 -3 -4 -7 -16 -9 -25 -8 -40 -67 -225 -105 -331
-74 -208 -76 -206 264 -342 140 -56 264 -110 276 -120 12 -11 26 -36 30 -56 7
-32 2 -51 -42 -153 -93 -213 -134 -287 -167 -300 -63 -27 -131 18 -131 85 0
18 18 68 41 114 83 167 71 190 -154 290 -89 39 -175 74 -192 76 -18 3 -44 -2
-64 -13 -29 -15 -47 -44 -120 -188 -93 -182 -131 -252 -194 -354 -21 -35 -41
-79 -44 -97 -11 -69 4 -84 241 -236 279 -179 262 -167 281 -209 15 -32 15 -40
2 -71 -16 -37 -126 -201 -185 -273 -4 -5 -19 -25 -32 -43 -55 -75 -137 -76
-174 -3 -22 42 -11 75 53 160 71 94 82 124 67 171 -12 38 -44 65 -224 186
-109 74 -114 76 -159 71 -48 -5 -67 -20 -118 -93 -24 -34 -205 -263 -226 -284
-66 -71 -141 -163 -149 -185 -14 -37 3 -106 30 -125 10 -6 324 -306 361 -343
35 -37 48 -74 37 -113 -7 -28 -55 -79 -237 -254 -65 -63 -93 -80 -128 -80 -49
0 -93 45 -93 96 0 34 8 45 90 124 50 48 90 91 91 96 0 5 2 18 4 29 9 45 -18
84 -153 218 -187 185 -177 184 -378 3 -55 -49 -163 -140 -241 -203 -78 -62
-148 -123 -154 -135 -26 -48 -7 -87 165 -328 175 -245 182 -260 152 -319 -15
-28 -241 -183 -345 -238 -44 -22 -53 -24 -85 -13 -23 7 -42 23 -51 40 -35 68
-11 108 106 179 152 91 153 116 8 334 -58 87 -114 161 -127 166 -49 23 -89 13
-187 -46 -52 -32 -110 -67 -128 -77 -57 -34 -190 -105 -272 -146 -103 -50
-130 -78 -130 -133 1 -40 19 -85 231 -545 19 -41 34 -75 34 -77 0 -1 -46 -22
-102 -45 -57 -24 -121 -51 -143 -60 -22 -10 -84 -34 -138 -54 -87 -32 -103
-36 -132 -26 -56 19 -80 76 -54 133 11 23 66 57 119 72 14 4 48 18 76 31 60
28 90 75 79 124 -13 58 -135 334 -160 360 -39 41 -80 38 -234 -19 -127 -46
-265 -91 -438 -141 -55 -16 -77 -27 -93 -50 -20 -28 -27 -74 -17 -115 43 -181
83 -345 98 -402 26 -99 25 -135 -7 -172 -29 -34 -50 -41 -227 -75 -172 -33
-228 -39 -259 -27 -47 18 -66 76 -42 127 20 41 48 54 159 69 121 18 160 48
159 123 0 42 -39 249 -65 344 -17 66 -82 93 -179 75 -19 -3 -57 -11 -85 -16
-27 -5 -95 -14 -150 -21 -55 -6 -113 -13 -130 -15 -16 -2 -66 -6 -110 -10
-107 -8 -130 -13 -153 -33 -46 -41 -47 -49 -27 -452 9 -160 7 -190 -9 -215
-36 -55 -50 -58 -271 -58 -221 0 -251 5 -277 51 -26 44 -6 111 39 131 13 6 75
11 137 11 100 0 117 3 140 21 45 35 49 53 47 209 -4 218 -5 235 -24 263 -25
39 -51 49 -136 52 -257 11 -360 16 -382 20 -41 6 -182 18 -213 18 -61 -1 -98
-43 -110 -124 -4 -25 -8 -57 -10 -70 -3 -13 -7 -44 -10 -69 -14 -95 -17 -117
-27 -185 -15 -99 -17 -113 -24 -175 -3 -30 -9 -63 -11 -73 -6 -20 -7 -20 -144
2 -71 12 -69 11 -220 42 -58 11 -110 22 -116 23 -24 4 -65 39 -75 62 -19 52
20 117 77 128 11 2 56 -4 98 -14 188 -44 222 -19 252 185 3 22 12 74 20 115
21 113 19 145 -13 180 -24 25 -46 33 -143 55 -63 15 -122 28 -130 30 -105 25
-156 39 -278 74 -96 29 -152 40 -171 36 -46 -10 -76 -53 -114 -165 -20 -58
-61 -177 -91 -265 -31 -88 -56 -161 -56 -162 0 -8 -72 -43 -89 -43 -23 0 -141
44 -314 117 -87 37 -111 51 -123 75 -33 63 12 138 82 138 18 0 61 -13 96 -29
108 -49 147 -57 187 -37 35 19 50 42 85 136 15 41 34 89 41 105 7 17 23 59 35
95 19 55 20 70 10 100 -15 44 -33 58 -150 107 -103 44 -301 140 -420 203 -44
23 -89 40 -108 40 -45 0 -87 -32 -117 -88 -14 -26 -30 -54 -35 -62 -30 -45
-200 -343 -200 -350 0 -20 -66 -55 -100 -54 -39 1 -56 11 -262 147 -162 106
-174 124 -136 203 12 25 48 44 82 44 13 0 58 -22 99 -50 42 -27 89 -56 105
-64 37 -19 88 -13 116 13 23 22 146 213 189 293 39 73 24 128 -47 174 -121 79
-417 298 -480 356 -11 10 -22 18 -25 19 -3 0 -15 2 -26 5 -34 7 -70 -6 -101
-34 -31 -30 -37 -37 -187 -210 -54 -63 -104 -121 -113 -129 -8 -9 -22 -26 -30
-39 -22 -33 -77 -56 -117 -49 -36 7 -72 37 -239 201 -114 112 -130 141 -106
191 7 15 30 36 50 46 33 16 40 16 70 4 18 -8 64 -47 103 -86 71 -73 107 -90
159 -77 30 7 88 65 239 235 49 54 57 69 57 103 0 22 -4 47 -9 57 -5 9 -56 64
-113 122 -134 138 -177 185 -271 296 -72 84 -110 112 -144 107 -7 -1 -21 -2
-32 -3 -15 -1 -80 -49 -270 -199 -148 -117 -198 -153 -219 -159 -45 -11 -85
10 -134 72 -71 87 -211 295 -212 314 -2 41 14 77 42 94 57 33 103 18 148 -48
15 -22 41 -60 57 -83 16 -24 43 -52 59 -62 53 -32 88 -18 245 98 80 58 151
116 160 128 32 50 22 96 -44 191 -81 119 -167 257 -237 381 -60 107 -96 142
-147 142 -25 0 -96 -34 -386 -186 -217 -114 -232 -109 -338 123 -93 201 -105
239 -93 275 22 62 108 83 152 37 13 -13 41 -63 61 -110 70 -165 93 -170 320
-63 180 84 215 112 215 168 0 18 -26 93 -57 167 -31 74 -86 217 -122 318 -72
200 -89 225 -153 224 -18 0 -151 -35 -295 -77 -193 -57 -270 -76 -292 -71 -26
6 -80 54 -82 73 -1 15 -7 39 -20 82 -7 25 -13 50 -15 55 -33 144 -54 242 -54
257 0 67 73 112 135 82 39 -18 48 -36 70 -139 22 -104 37 -136 73 -158 34 -19
63 -18 163 8 35 9 72 19 82 21 10 2 27 6 37 9 10 3 29 8 41 10 72 14 120 38
136 68 9 18 18 38 19 46 2 8 -15 103 -36 210 -21 108 -41 220 -45 250 -4 30
-8 61 -10 70 -1 9 -6 43 -10 76 -8 71 -25 106 -60 129 -23 15 -42 17 -125 11
-54 -3 -107 -7 -117 -9 -10 -2 -52 -7 -93 -10 -41 -4 -100 -9 -130 -11 -30 -3
-75 -7 -99 -10 -58 -6 -109 18 -126 59 -14 32 -24 170 -28 354 l-2 104 33 29
c42 38 82 38 124 0 31 -28 32 -31 35 -122 5 -133 9 -152 44 -185 35 -33 45
-34 289 -20 140 8 173 18 200 60 11 16 15 79 16 281 1 143 4 300 7 349 10 154
-11 172 -228 191 -38 3 -90 8 -115 10 -25 2 -72 7 -105 10 -148 14 -172 17
-197 27 -28 10 -57 46 -63 78 -2 10 0 47 5 82 5 35 11 86 15 113 11 96 36 229
46 247 12 22 35 35 77 41 27 4 40 0 64 -22 36 -32 41 -68 23 -157 -18 -83 -14
-158 9 -183 28 -30 63 -40 216 -57 25 -2 56 -6 70 -9 102 -15 129 -16 163 -2
40 17 63 48 71 92 5 31 43 248 52 300 3 17 21 91 40 165 19 74 34 151 34 171
0 48 -41 93 -99 109 -24 6 -147 42 -274 80 -200 59 -235 72 -254 97 -13 15
-23 42 -23 58 0 48 120 391 149 425 37 44 98 45 136 4 33 -36 32 -70 -8 -184
-18 -52 -33 -101 -31 -107 1 -7 2 -21 3 -32 3 -43 50 -69 228 -127 250 -80
252 -79 338 144 59 155 57 150 143 340 84 185 79 221 -45 283 -305 156 -430
224 -445 243 -29 36 -33 81 -10 125 35 66 38 72 122 213 71 118 86 139 116
148 59 20 113 -14 121 -77 4 -33 -3 -51 -51 -132 -69 -114 -75 -157 -30 -201
32 -31 304 -185 345 -195 44 -11 95 18 126 70 69 116 145 231 261 396 49 69
92 139 95 155 11 58 -12 84 -229 254 -218 171 -241 192 -254 225 -17 46 1 82
100 196 181 211 190 219 239 219 32 0 47 -6 66 -26 49 -53 40 -93 -40 -180
-84 -91 -100 -120 -91 -169 8 -40 18 -52 111 -130 32 -27 75 -64 94 -81 78
-67 110 -86 145 -86 35 0 106 35 106 53 0 5 101 110 225 234 124 124 225 229
226 233 0 4 3 19 5 35 3 15 -1 37 -7 49 -10 19 -218 313 -242 343 -4 6 -37 51
-72 100 -60 84 -76 115 -57 115 4 0 18 10 32 23 30 27 83 69 213 170 83 65
104 77 136 77 41 0 90 -37 92 -69 6 -64 0 -74 -86 -139 -111 -85 -118 -95
-119 -149 -1 -47 2 -51 118 -195 72 -89 130 -151 147 -159 51 -21 91 -5 210
84 116 86 326 227 397 267 45 25 72 66 72 107 0 34 -43 121 -125 253 -12 19
-24 42 -28 50 -4 8 -11 22 -17 30 -63 96 -112 197 -113 231 -1 59 32 86 238
190 169 86 185 92 216 83 42 -12 79 -64 73 -101 -9 -49 -25 -63 -122 -112
-110 -55 -130 -74 -139 -124 -6 -38 -4 -42 95 -227 75 -139 77 -143 104 -163
43 -32 84 -24 219 41 109 53 189 87 437 189 67 27 92 54 98 103 2 19 -26 117
-77 263 -104 302 -99 286 -99 314 0 40 31 81 72 98 75 30 354 107 391 108 52
1 89 -36 91 -91 1 -63 -26 -84 -150 -117 -85 -23 -109 -33 -129 -57 -40 -48
-39 -64 24 -269 70 -225 88 -242 226 -206 79 20 71 18 187 46 109 26 104 25
267 56 144 27 176 41 192 83 10 24 7 130 -5 188 -2 12 -7 45 -11 74 -4 29 -9
62 -11 74 -2 12 -11 77 -20 146 -29 214 -20 219 361 245 55 4 102 8 104 10 7
8 55 -17 73 -37z"/>
<path d="M6547 11804 c-1 -1 -73 -5 -159 -9 -87 -3 -168 -8 -180 -10 -13 -2
-57 -6 -98 -10 -92 -9 -125 -13 -170 -19 -19 -3 -55 -8 -80 -11 -25 -3 -52 -8
-60 -10 -8 -2 -32 -6 -54 -10 -51 -7 -230 -44 -281 -57 -22 -5 -48 -12 -57
-13 -109 -21 -440 -124 -620 -193 -482 -185 -1025 -499 -1398 -808 -815 -677
-1378 -1508 -1683 -2484 -81 -259 -160 -616 -182 -825 -4 -33 -8 -67 -10 -75
-3 -8 -7 -49 -10 -90 -4 -41 -8 -86 -10 -99 -6 -38 -18 -333 -18 -446 0 -112
12 -404 18 -434 2 -11 6 -52 10 -93 8 -96 13 -137 19 -173 3 -16 8 -50 11 -75
5 -39 36 -209 50 -280 3 -14 7 -36 10 -50 24 -129 138 -518 197 -675 208 -546
479 -1022 832 -1460 136 -170 200 -239 390 -428 634 -631 1434 -1089 2304
-1318 85 -22 161 -42 170 -44 40 -9 225 -45 250 -50 124 -21 260 -40 367 -50
33 -3 78 -8 101 -10 199 -22 683 -22 863 0 14 2 61 6 104 10 43 3 86 8 95 10
9 1 42 6 72 10 69 8 108 14 140 20 14 3 41 7 60 10 262 42 694 162 958 266
352 138 720 329 1007 523 563 380 1021 834 1407 1396 57 83 198 307 198 314 0
2 23 43 51 91 111 194 255 514 349 774 127 355 229 812 265 1181 3 36 8 81 10
100 29 273 21 735 -19 1060 -10 80 -19 147 -21 160 -1 8 -6 35 -10 60 -4 25
-9 52 -10 60 -2 8 -10 56 -19 105 -9 50 -21 104 -26 120 -5 17 -11 41 -14 55
-26 151 -137 501 -238 755 -60 150 -213 473 -267 563 -15 26 -59 99 -96 162
-458 769 -1157 1440 -1949 1872 -91 49 -392 198 -401 198 -3 0 -24 9 -48 19
-220 100 -706 256 -926 296 -14 3 -37 7 -51 10 -64 14 -230 44 -279 50 -30 4
-61 8 -70 10 -31 6 -140 18 -276 31 -81 7 -513 22 -518 18z m3078 -2163 c-6
-5 -25 -17 -42 -28 -31 -17 -3535 -2206 -3599 -2248 -17 -11 -182 -114 -367
-230 -700 -437 -649 -407 -686 -401 -45 7 -80 31 -92 64 -6 16 -10 151 -11
341 0 173 -4 325 -9 340 -14 38 -57 66 -104 66 -43 0 -51 -6 -622 -400 -128
-88 -276 -189 -328 -225 -53 -36 -160 -110 -240 -165 -79 -55 -217 -149 -305
-210 -88 -60 -232 -159 -320 -220 -88 -60 -242 -166 -342 -235 -100 -69 -245
-169 -323 -222 -77 -53 -213 -146 -301 -207 l-162 -110 -21 112 c-58 315 -72
429 -88 702 -12 217 -5 618 12 728 2 12 6 54 10 92 7 72 11 107 21 173 3 20 7
53 10 72 2 19 13 80 24 135 11 55 22 109 24 120 2 11 12 52 21 90 9 39 18 79
20 89 10 46 60 213 107 357 l51 157 41 13 c23 7 115 40 206 72 91 32 172 60
180 62 8 2 71 24 140 49 69 24 314 111 545 191 581 203 738 259 825 290 41 14
82 28 90 30 8 2 119 41 245 86 350 123 538 189 555 194 8 2 110 38 225 79 523
185 518 184 569 150 46 -30 48 -50 50 -661 l1 -575 33 -29 c47 -42 83 -38 268
27 87 31 195 68 239 84 44 15 179 62 300 105 121 42 270 94 330 115 61 21 196
69 300 105 105 37 201 71 215 75 14 4 102 35 195 68 247 87 748 263 990 347
195 68 323 113 805 282 102 35 214 75 250 88 76 28 77 28 65 16z m1929 -2166
c19 -110 37 -234 41 -275 4 -41 8 -82 10 -90 25 -138 25 -690 0 -940 -2 -19
-6 -62 -10 -95 -3 -33 -8 -71 -10 -85 -3 -14 -7 -47 -11 -75 -7 -56 -61 -350
-70 -379 -4 -10 -7 -24 -8 -30 -16 -86 -80 -309 -132 -466 l-46 -135 -81 -30
c-45 -16 -86 -30 -92 -31 -5 -2 -75 -26 -155 -54 -80 -29 -235 -83 -345 -122
-110 -38 -290 -101 -400 -140 -110 -38 -211 -73 -225 -78 -32 -10 -362 -126
-415 -146 -22 -8 -47 -17 -55 -19 -8 -2 -222 -77 -475 -165 -253 -89 -512
-180 -575 -202 -63 -22 -122 -42 -130 -45 -8 -3 -85 -30 -170 -60 -484 -170
-464 -166 -517 -111 l-28 29 -5 595 -5 596 -33 29 c-45 41 -85 38 -238 -17
-71 -25 -192 -67 -269 -94 -77 -26 -216 -75 -310 -108 -93 -33 -321 -113 -505
-177 -473 -165 -713 -249 -875 -307 -77 -27 -144 -51 -150 -52 -5 -2 -17 -6
-25 -9 -25 -10 -1282 -449 -1325 -463 -22 -7 -92 -31 -155 -54 -112 -40 -129
-41 -63 -3 18 10 543 338 1168 728 624 391 1146 717 1160 725 43 26 1267 791
1335 835 57 37 519 325 585 365 13 8 99 61 189 118 172 107 209 121 257 96 59
-30 59 -31 62 -397 l2 -337 33 -32 c26 -27 40 -33 75 -33 44 0 47 2 247 140
41 29 163 112 270 186 107 74 228 157 268 184 299 206 399 275 551 380 95 66
184 127 197 135 25 16 250 171 404 277 52 36 136 94 185 128 50 33 214 147
365 251 151 104 315 217 365 250 l90 62 8 -27 c4 -14 23 -116 41 -226z"/>
</g>
</svg>
