<?xml version="1.0" encoding="utf-8"?>
<!-- Generator: Adobe Illustrator 26.2.1, SVG Export Plug-In . SVG Version: 6.00 Build 0)  -->
<svg version="1.1" id="Layer_1" xmlns="http://www.w3.org/2000/svg" xmlns:xlink="http://www.w3.org/1999/xlink" x="0px" y="0px"
	 viewBox="0 0 200 200" style="enable-background:new 0 0 200 200;" xml:space="preserve">
<style type="text/css">
	.st0{fill:url(#SVGID_1_);}
	.st1{fill:url(#SVGID_00000137838418568457093780000007014254384358691741_);}
	.st2{fill:url(#SVGID_00000075164537689570542740000000755811663913127838_);}
</style>
<g id="Layer_4">
</g>
<g id="Layer_2_00000032610408991210097480000004552636808721793948_">
	<g>
		
			<linearGradient id="SVGID_1_" gradientUnits="userSpaceOnUse" x1="99.994" y1="45.7251" x2="99.994" y2="-109.7311" gradientTransform="matrix(1 0 0 -1 0 68)">
			<stop  offset="0" style="stop-color:#F0D033"/>
			<stop  offset="1" style="stop-color:#F09B33"/>
		</linearGradient>
		<path class="st0" d="M165.4,142c4-6.2,7.1-13,9.2-20.1c2.1-7.1,3.1-14.5,3.1-21.9c0-7.4-1-14.8-3.1-21.9
			c-2.1-7.1-5.2-13.9-9.2-20.1l-0.2-0.3c-4-6.1-8.8-11.7-14.3-16.5c-5.6-4.9-11.9-8.9-18.6-12l-0.3-0.1c-6.6-3-13.7-5.1-20.9-6.1
			c-7.3-1-14.8-1-22.2,0c-7.3,1-14.5,3.1-21.2,6.2c-6.7,3.1-13,7.1-18.6,12C43.5,46.1,38.6,51.8,34.6,58s-7.1,13-9.2,20.1
			c-4.2,14.2-4.2,29.6,0,43.8c2.1,7.1,5.2,13.9,9.2,20.1c4,6.2,8.9,11.9,14.5,16.7c5.6,4.9,11.9,8.9,18.6,12
			c6.7,3.1,13.9,5.2,21.2,6.2c7.3,1,14.8,1,22.2,0s14.5-3.1,21.2-6.2c6.7-3.1,13-7.1,18.6-12C156.5,153.9,161.4,148.2,165.4,142
			L165.4,142z M26.7,116.5c-2.8-12.4-2.4-25.5,1.2-37.6c0.5-1.7,1-3.3,1.7-5l53-18.6c1.1-0.4,2.3,0.4,2.3,1.6v16.5
			c0,1.2,1.2,2,2.3,1.6l58.4-20.4L75.3,98.4c-1.1,0.7-2.6-0.1-2.6-1.4V88c0-1.4-1.5-2.2-2.7-1.4L26.7,116.5L26.7,116.5z
			 M117.4,144.7c-1.1,0.4-2.3-0.4-2.3-1.6v-16.5c0-1.2-1.2-2-2.3-1.6l-58.4,20.4l70.2-43.9c1.1-0.7,2.6,0.1,2.6,1.4v8.9
			c0,1.4,1.5,2.2,2.7,1.4l43.3-29.8c1.2,5.4,1.8,10.9,1.8,16.5c0,7.2-1,14.3-3,21.2c-0.5,1.7-1,3.3-1.7,5L117.4,144.7L117.4,144.7z"
			/>
		
			<linearGradient id="SVGID_00000099660175100074539110000017602079699383173043_" gradientUnits="userSpaceOnUse" x1="100" y1="68" x2="100" y2="-131.994" gradientTransform="matrix(1 0 0 -1 0 68)">
			<stop  offset="0" style="stop-color:#F0D033"/>
			<stop  offset="1" style="stop-color:#F09B33"/>
		</linearGradient>
		<path style="fill:url(#SVGID_00000099660175100074539110000017602079699383173043_);" d="M196,71.8c-2.7-9.2-6.7-17.9-11.8-25.9
			l-0.2-0.3c-5.1-7.9-11.4-15.1-18.5-21.2C158.3,18.2,150.2,13,141.5,9l-0.3-0.1c-8.6-3.9-17.7-6.6-27-7.9c-9.4-1.3-19-1.3-28.4,0
			c-9.4,1.3-18.7,4-27.3,8c-8.7,4-16.7,9.2-23.9,15.4C27.3,30.7,21,37.9,15.9,45.9c-5.2,8-9.2,16.8-11.8,25.9C1.3,81,0,90.5,0,100
			s1.3,19,4,28.2c2.7,9.1,6.7,17.9,11.8,25.9c5.2,8,11.5,15.3,18.6,21.5c7.2,6.2,15.3,11.4,23.9,15.4c8.7,4,17.9,6.7,27.3,8
			c9.4,1.3,19,1.3,28.4,0c9.4-1.3,18.7-4,27.3-8c8.7-4,16.7-9.2,23.9-15.4c7.2-6.2,13.5-13.5,18.6-21.5c5.2-8,9.2-16.8,11.8-25.9
			c2.7-9.1,4-18.7,4-28.2C200,90.5,198.7,81,196,71.8L196,71.8z M193.4,127.4c-2.6,8.9-6.5,17.4-11.5,25.2
			c-5,7.8-11.2,14.9-18.2,20.9s-14.9,11.1-23.3,15c-8.4,3.9-17.4,6.5-26.6,7.8c-9.2,1.3-18.5,1.3-27.7,0l-0.3,0
			c-9.1-1.3-18-3.9-26.3-7.8c-8.4-3.9-16.3-8.9-23.3-15l-0.2-0.2c-6.9-6-12.9-13-17.9-20.7c-5-7.8-8.9-16.3-11.5-25.2l-0.1-0.3
			c-2.6-8.8-3.8-18-3.8-27.1c0-9.3,1.3-18.5,3.9-27.4c6-20.5,9.4-21.9,11.5-25.2c5-7.8,11.2-14.9,18.2-20.9s14.9-11.1,23.3-15
			C68,7.6,77,4.9,86.1,3.6c9.2-1.3,18.5-1.3,27.7,0c9.2,1.3,18.2,3.9,26.6,7.8c8.4,3.9,16.3,8.9,23.3,15s13.1,13.1,18.2,20.9
			c5,7.8,8.9,16.3,11.5,25.2c2.6,8.9,3.9,18.2,3.9,27.4C197.4,109.3,196.1,118.5,193.4,127.4L193.4,127.4z"/>
		
			<linearGradient id="SVGID_00000054264425659234598380000007242922898155625890_" gradientUnits="userSpaceOnUse" x1="99.996" y1="62.3779" x2="99.996" y2="-126.4558" gradientTransform="matrix(1 0 0 -1 0 68)">
			<stop  offset="0" style="stop-color:#F0D033"/>
			<stop  offset="1" style="stop-color:#F09B33"/>
		</linearGradient>
		<path style="fill:url(#SVGID_00000054264425659234598380000007242922898155625890_);" d="M194.4,98.9c0-0.9-0.8-1.7-1.7-1.6
			l-7.7,0.2c-0.9,0-1.7-0.7-1.8-1.6c-0.1-1.6-0.2-3.3-0.4-4.9c-0.1-0.8,0.5-1.5,1.3-1.6c0.8-0.1,1.5,0.5,1.6,1.3
			c0.1,0.8,0.2,1.5,0.2,2.3c0.1,0.9,0.9,1.6,1.8,1.6l4.8-0.3c0.9-0.1,1.6-0.9,1.6-1.8c-0.3-3.8-0.8-7.6-1.6-11.3
			c-0.2-0.9-1.1-1.5-2-1.3l-7.6,1.7c-0.9,0.2-1.8-0.4-2-1.3c-0.4-1.6-0.8-3.2-1.3-4.7c-0.2-0.8,0.2-1.6,1-1.9
			c0.8-0.3,1.6,0.2,1.8,0.9c0.2,0.7,0.4,1.5,0.7,2.2c0.3,0.9,1.2,1.4,2.1,1.2l4.7-1.2c0.9-0.2,1.5-1.2,1.2-2.1
			c-1-3.7-2.3-7.3-3.7-10.8c-0.4-0.9-1.4-1.3-2.2-0.9l-7.1,3.1c-0.9,0.4-1.9,0-2.2-0.9c-0.7-1.5-1.4-3-2.2-4.4
			c-0.4-0.7-0.1-1.6,0.6-2c0.7-0.4,1.6-0.1,2,0.6c0.4,0.7,0.7,1.4,1.1,2c0.4,0.8,1.4,1.2,2.3,0.8l4.3-2.1c0.8-0.4,1.2-1.4,0.8-2.3
			c-1.5-3-3.3-6.1-5.1-8.9l0,0c0-0.1-0.1-0.1-0.1-0.2c0,0,0-0.1-0.1-0.1l0,0c-0.1-0.2-0.3-0.5-0.4-0.7c-0.5-0.8-1.6-1-2.3-0.4
			l-6.4,4.4c-0.8,0.5-1.8,0.3-2.4-0.4c-1-1.3-2-2.6-3-3.9c-0.5-0.6-0.4-1.6,0.2-2.1c0.6-0.5,1.5-0.4,2.1,0.2c0.5,0.6,1,1.2,1.4,1.8
			c0.6,0.7,1.6,0.9,2.4,0.3l3.9-2.8c0.8-0.6,0.9-1.6,0.3-2.4c-2.3-3-4.8-5.9-7.5-8.6c-0.7-0.7-1.7-0.7-2.4,0l-5.4,5.5
			c-0.7,0.7-1.7,0.7-2.4,0c-1.2-1.1-2.4-2.2-3.7-3.3c-0.6-0.5-0.7-1.5-0.2-2.1c0.5-0.6,1.4-0.7,2.1-0.2c0.6,0.5,1.2,1,1.7,1.5
			c0.7,0.6,1.8,0.6,2.4-0.1l3.3-3.5c0.6-0.7,0.6-1.8-0.1-2.4c-2.8-2.5-5.8-4.9-9-7.1c-0.8-0.5-1.8-0.3-2.3,0.5l-4.3,6.4
			c-0.5,0.8-1.6,1-2.4,0.5c-1.4-0.9-2.8-1.7-4.2-2.5c-0.7-0.4-1-1.3-0.6-2c0.4-0.7,1.3-1,2-0.6c0.7,0.4,1.3,0.8,2,1.2
			c0.8,0.5,1.8,0.2,2.3-0.6l2.5-4.1c0.5-0.8,0.3-1.8-0.6-2.3c-2.9-1.8-6-3.4-9.1-4.8l-0.5-0.2c-0.2-0.1-0.3-0.2-0.5-0.2
			c-0.9-0.4-1.8,0-2.2,0.9l-3,7.1c-0.4,0.9-1.4,1.3-2.2,0.9c-1.5-0.6-3.1-1.2-4.6-1.7c-0.8-0.3-1.2-1.1-1-1.9s1.1-1.2,1.8-1
			c0.7,0.2,1.5,0.5,2.2,0.8c0.9,0.3,1.9-0.1,2.2-1l1.7-4.5c0.3-0.9-0.1-1.9-1-2.2c-3.6-1.3-7.2-2.4-11-3.2c-0.9-0.2-1.8,0.4-2,1.3
			l-1.6,7.6c-0.2,0.9-1.1,1.5-2,1.3c-1.6-0.3-3.2-0.6-4.9-0.8c-0.8-0.1-1.4-0.8-1.3-1.6s0.8-1.4,1.6-1.3c0.8,0.1,1.5,0.2,2.3,0.3
			c0.9,0.1,1.8-0.5,2-1.4l0.8-4.7c0.2-0.9-0.5-1.8-1.4-1.9c-3.8-0.6-7.6-1-11.4-1.1c-0.9,0-1.7,0.7-1.7,1.7l-0.1,7.7
			c0,0.9-0.8,1.7-1.7,1.7c-1.6,0-3.3,0.1-4.9,0.2c-0.8,0-1.5-0.6-1.6-1.4c-0.1-0.8,0.5-1.5,1.4-1.6c0.8,0,1.5-0.1,2.3-0.1
			c0.9,0,1.7-0.8,1.7-1.7l-0.1-4.8c0-0.9-0.8-1.7-1.7-1.7C93.4,5.7,89.9,6,86.6,6.5c-0.4,0.1-0.7,0.1-1.1,0.2
			c-0.9,0.1-1.5,1-1.4,1.9l1.3,7.6c0.2,0.9-0.5,1.8-1.4,2c-1.6,0.3-3.2,0.7-4.8,1.1c-0.8,0.2-1.6-0.3-1.8-1c-0.2-0.8,0.2-1.6,1-1.8
			c0.7-0.2,1.5-0.4,2.2-0.5c0.9-0.2,1.5-1.1,1.3-2l-1-4.7c-0.2-0.9-1.1-1.5-2-1.3c-3.7,0.8-7.4,1.9-11,3.2c-0.9,0.3-1.3,1.3-1,2.2
			l2.8,7.2c0.3,0.9-0.1,1.9-1,2.2c-1.5,0.6-3,1.3-4.5,2c-0.7,0.3-1.6,0.1-2-0.7s-0.1-1.6,0.7-2c0.7-0.3,1.4-0.7,2.1-1
			c0.9-0.4,1.3-1.4,0.9-2.2l-1.9-4.4c-0.4-0.9-1.4-1.3-2.2-0.9c-3.5,1.5-6.9,3.3-10.2,5.2c-0.8,0.5-1,1.5-0.6,2.3l4.1,6.6
			c0.5,0.8,0.2,1.8-0.5,2.3c-1.4,0.9-2.7,1.8-4,2.8c-0.7,0.5-1.6,0.4-2.1-0.3c-0.5-0.6-0.4-1.6,0.3-2.1c0.6-0.5,1.2-0.9,1.9-1.3
			c0.8-0.5,1-1.6,0.5-2.4l-2.7-4c-0.5-0.8-1.6-1-2.3-0.5c-2.5,1.7-4.9,3.6-7.3,5.6l0,0c-0.1,0.1-0.3,0.2-0.5,0.4
			c-0.1,0.1-0.2,0.2-0.3,0.3l0,0c-0.4,0.3-0.7,0.6-0.8,0.7c-0.7,0.6-0.7,1.7-0.1,2.4l5.2,5.7c0.6,0.7,0.6,1.8-0.1,2.4
			c-1.2,1.1-2.3,2.3-3.4,3.5c-0.6,0.6-1.5,0.7-2.1,0.1c-0.6-0.5-0.7-1.5-0.1-2.1c0.5-0.6,1.1-1.1,1.6-1.7c0.7-0.7,0.7-1.7,0-2.4
			l-3.4-3.4c-0.7-0.7-1.7-0.7-2.4,0c-2.7,2.7-5.2,5.6-7.5,8.6c-0.6,0.7-0.4,1.8,0.3,2.4l6.2,4.6c0.8,0.6,0.9,1.6,0.4,2.4
			c-0.9,1.3-1.9,2.7-2.7,4.1c-0.4,0.7-1.3,0.9-2,0.5c-0.7-0.4-0.9-1.3-0.5-2c0.4-0.7,0.8-1.3,1.2-1.9c0.5-0.8,0.3-1.8-0.4-2.4
			l-4-2.7c-0.8-0.5-1.8-0.3-2.3,0.4c-2.1,3.2-4,6.5-5.7,9.9c-0.4,0.8-0.1,1.8,0.8,2.3l7,3.3c0.8,0.4,1.2,1.4,0.8,2.3
			c-0.7,1.5-1.3,3-1.9,4.5c-0.3,0.8-1.1,1.2-1.9,0.9s-1.2-1.1-0.9-1.9c0.3-0.7,0.6-1.4,0.9-2.1c0.4-0.9,0-1.9-0.9-2.2L15,62.8
			c-0.9-0.4-1.9,0-2.2,0.9c-1.3,3.2-2.5,6.4-3.4,9.7c-0.1,0.4-0.2,0.7-0.3,1.1c-0.3,0.9,0.3,1.8,1.2,2.1l7.5,2
			c0.9,0.2,1.4,1.2,1.2,2.1c-0.4,1.6-0.7,3.2-1,4.8c-0.1,0.8-0.9,1.3-1.7,1.2c-0.8-0.1-1.3-0.9-1.2-1.7c0.1-0.8,0.3-1.5,0.4-2.3
			c0.2-0.9-0.4-1.8-1.3-2l-4.7-1.1c-0.9-0.2-1.8,0.4-2,1.3c-0.8,3.7-1.3,7.5-1.6,11.3c-0.1,0.9,0.6,1.7,1.6,1.8l7.7,0.5
			c0.9,0.1,1.6,0.9,1.6,1.8c-0.1,1.6-0.1,3.3-0.1,4.9c0,0.8-0.6,1.5-1.4,1.5c-0.8,0-1.5-0.6-1.5-1.4c0-0.8,0-1.5,0-2.3
			c0-0.9-0.7-1.7-1.7-1.7l-4.8-0.2c-0.9,0-1.7,0.7-1.7,1.6c0,3.8,0.1,7.6,0.5,11.4c0.1,0.9,0.9,1.6,1.9,1.5l7.7-1
			c0.9-0.1,1.8,0.5,1.9,1.5c0.2,1.6,0.5,3.2,0.8,4.8c0.2,0.8-0.3,1.6-1.1,1.8c-0.8,0.2-1.6-0.3-1.7-1.1c-0.2-0.8-0.3-1.5-0.4-2.3
			c-0.2-0.9-1-1.6-2-1.4l-4.7,0.8c-0.9,0.1-1.6,1-1.4,1.9c0.6,3.4,1.4,6.7,2.3,10c0.1,0.4,0.2,0.7,0.3,1.1c0.3,0.9,1.2,1.4,2.1,1.1
			l7.4-2.4c0.9-0.3,1.8,0.2,2.2,1.1c0.5,1.5,1.1,3.1,1.8,4.6c0.3,0.7,0,1.6-0.8,1.9c-0.7,0.3-1.6,0-1.9-0.8
			c-0.3-0.7-0.6-1.4-0.9-2.1c-0.3-0.9-1.3-1.3-2.2-1l-4.5,1.6c-0.9,0.3-1.3,1.3-1,2.2c1.4,3.6,3,7,4.7,10.4c0.4,0.8,1.5,1.1,2.3,0.7
			l6.8-3.8c0.8-0.5,1.8-0.2,2.3,0.7c0.8,1.4,1.7,2.8,2.6,4.2c0.5,0.7,0.3,1.6-0.4,2.1c-0.7,0.5-1.6,0.3-2-0.4
			c-0.4-0.6-0.8-1.3-1.3-1.9c-0.5-0.8-1.5-1.1-2.3-0.6l-4.1,2.5c-0.8,0.5-1.1,1.5-0.6,2.3c2,3.2,4.2,6.3,6.6,9.3
			c0.6,0.7,1.7,0.8,2.4,0.2l5.9-5c0.7-0.6,1.8-0.5,2.4,0.2c1.1,1.2,2.2,2.4,3.3,3.6c0.6,0.6,0.6,1.5,0,2.1s-1.5,0.6-2.1,0
			c-0.5-0.5-1.1-1.1-1.6-1.7c-0.6-0.7-1.7-0.7-2.4-0.1l-3.6,3.2c-0.7,0.6-0.8,1.7-0.1,2.4c2.3,2.5,4.8,4.9,7.4,7.2
			c0.3,0.2,0.6,0.5,0.9,0.7c0.7,0.6,1.8,0.5,2.4-0.2l4.9-6c0.6-0.7,1.7-0.8,2.4-0.3c1.3,1,2.6,2,4,2.9c0.7,0.5,0.8,1.4,0.4,2
			c-0.5,0.7-1.4,0.9-2,0.4c-0.6-0.4-1.3-0.9-1.9-1.3c-0.8-0.6-1.8-0.4-2.4,0.3l-2.9,3.8c-0.6,0.7-0.4,1.8,0.3,2.4
			c3.1,2.3,6.3,4.3,9.6,6.2c0.8,0.5,1.8,0.2,2.3-0.7l3.7-6.8c0.4-0.8,1.5-1.1,2.3-0.7c1.5,0.7,2.9,1.5,4.4,2.1
			c0.7,0.3,1.1,1.2,0.8,1.9c-0.3,0.7-1.2,1.1-1.9,0.8c-0.7-0.3-1.4-0.6-2.1-1c-0.8-0.4-1.9-0.1-2.3,0.8l-2.1,4.3
			c-0.4,0.8-0.1,1.9,0.8,2.3c3.4,1.6,7,3.1,10.6,4.3c0.9,0.3,1.8-0.2,2.1-1.1l2.3-7.4c0.3-0.9,1.2-1.4,2.1-1.1
			c1.6,0.5,3.2,0.9,4.8,1.2c0.8,0.2,1.3,1,1.1,1.8c-0.2,0.8-0.9,1.3-1.7,1.1c-0.8-0.2-1.5-0.3-2.2-0.5c-0.9-0.2-1.8,0.3-2.1,1.2
			l-1.3,4.6c-0.2,0.9,0.3,1.8,1.2,2.1c3,0.8,6,1.4,9,1.8l0,0c0.1,0,0.4,0.1,0.7,0.1c0.1,0,0.3,0,0.4,0.1l0,0
			c0.5,0.1,0.9,0.1,1.1,0.2c0.9,0.1,1.8-0.5,1.9-1.5l0.9-7.7c0.1-0.9,0.9-1.6,1.9-1.5c1.6,0.2,3.3,0.3,4.9,0.3
			c0.8,0,1.5,0.7,1.4,1.5c0,0.8-0.7,1.5-1.5,1.4c-0.8,0-1.5-0.1-2.3-0.1c-0.9-0.1-1.7,0.6-1.8,1.6l-0.4,4.8
			c-0.1,0.9,0.6,1.8,1.6,1.8c3.8,0.2,7.6,0.2,11.4,0c0.9-0.1,1.6-0.9,1.6-1.8l-0.6-7.7c-0.1-0.9,0.6-1.7,1.6-1.8
			c1.6-0.2,3.3-0.4,4.9-0.6c0.8-0.1,1.6,0.4,1.7,1.2c0.1,0.8-0.4,1.6-1.2,1.7c-0.8,0.1-1.5,0.2-2.3,0.3c-0.9,0.1-1.6,1-1.5,1.9
			l0.5,4.8c0.1,0.9,0.9,1.6,1.9,1.5c3.8-0.5,7.5-1.2,11.2-2.1c0.9-0.2,1.4-1.2,1.2-2.1l-2-7.5c-0.2-0.9,0.3-1.8,1.2-2.1
			c1.6-0.5,3.1-1,4.7-1.5c0.8-0.3,1.6,0.1,1.9,0.9c0.3,0.8-0.1,1.6-0.9,1.9c-0.7,0.3-1.5,0.5-2.2,0.8c-0.9,0.3-1.4,1.2-1.1,2.1
			l1.4,4.6c0.3,0.9,1.2,1.4,2.1,1.1c3.2-1,6.5-2.4,9.6-3.8l0,0c0.1,0,0.1-0.1,0.2-0.1c0,0,0.1,0,0.1,0l0,0c0.2-0.1,0.5-0.2,0.7-0.3
			c0.8-0.4,1.2-1.4,0.8-2.3l-3.4-6.9c-0.4-0.8-0.1-1.9,0.8-2.3c1.5-0.8,2.9-1.6,4.3-2.4c0.7-0.4,1.6-0.2,2,0.5
			c0.4,0.7,0.2,1.6-0.5,2c-0.7,0.4-1.3,0.8-2,1.2c-0.8,0.5-1.1,1.5-0.7,2.3l2.3,4.2c0.4,0.8,1.5,1.1,2.3,0.7
			c3.3-1.9,6.5-3.9,9.6-6.2c0.8-0.6,0.9-1.6,0.3-2.4l-4.7-6.2c-0.6-0.7-0.4-1.8,0.3-2.4c1.3-1,2.5-2.1,3.8-3.2
			c0.6-0.5,1.5-0.5,2.1,0.1c0.5,0.6,0.5,1.5-0.1,2.1c-0.6,0.5-1.2,1-1.7,1.5c-0.7,0.6-0.8,1.7-0.2,2.4l3,3.7
			c0.6,0.7,1.7,0.8,2.4,0.2c2.9-2.5,5.7-5.1,8.3-7.9c0.6-0.7,0.6-1.8-0.1-2.4l-5.8-5.2c-0.7-0.6-0.8-1.7-0.1-2.4
			c1.1-1.2,2.1-2.5,3.1-3.8c0.5-0.6,1.4-0.8,2.1-0.3c0.7,0.5,0.8,1.4,0.3,2c-0.5,0.6-0.9,1.2-1.4,1.8c-0.6,0.7-0.5,1.8,0.2,2.4
			l3.7,3.1c0.7,0.6,1.8,0.5,2.4-0.2c2.2-2.7,4.2-5.4,6-8.3l0.3-0.5c0.1-0.2,0.2-0.3,0.3-0.5c0.5-0.8,0.2-1.8-0.6-2.3l-6.6-4
			c-0.8-0.5-1.1-1.5-0.6-2.3c0.8-1.4,1.6-2.9,2.3-4.3c0.4-0.7,1.2-1,2-0.7c0.7,0.3,1,1.2,0.7,2c-0.3,0.7-0.7,1.4-1.1,2.1
			c-0.4,0.8-0.1,1.9,0.7,2.3l4.2,2.3c0.8,0.5,1.8,0.2,2.3-0.7c1.8-3.4,3.4-6.8,4.8-10.4c0.3-0.9-0.1-1.8-1-2.2l-7.3-2.7
			c-0.9-0.3-1.3-1.3-1-2.2c0.5-1.5,1-3.1,1.5-4.7c0.2-0.8,1-1.3,1.8-1.1c0.8,0.2,1.3,1,1,1.8c-0.2,0.7-0.4,1.5-0.6,2.2
			c-0.3,0.9,0.2,1.8,1.1,2.1l4.6,1.5c0.9,0.3,1.8-0.2,2.1-1.1c1.1-3.6,2-7.3,2.7-11.1c0.2-0.9-0.5-1.8-1.4-1.9l-7.6-1.2
			c-0.9-0.2-1.6-1-1.4-1.9c0.2-1.6,0.4-3.3,0.5-4.9c0.1-0.8,0.8-1.4,1.6-1.4c0.8,0,1.4,0.7,1.4,1.6c-0.1,0.8-0.1,1.5-0.2,2.3
			c-0.1,0.9,0.6,1.8,1.5,1.9l4.8,0.6c0.9,0.1,1.8-0.5,1.9-1.5c0.4-3.4,0.6-6.8,0.6-10.3C194.4,99.6,194.4,99.3,194.4,98.9
			L194.4,98.9z M191.5,107.4c-0.1,0.8-0.8,1.4-1.6,1.3c-0.8-0.1-1.4-0.8-1.3-1.6c0.1-0.8,0.1-1.6,0.2-2.5c0-0.9-0.7-1.7-1.6-1.7
			l-4.8-0.2c-0.9,0-1.7,0.7-1.8,1.6c-0.2,3.1-0.5,6.2-1,9.2c-0.2,0.9,0.4,1.8,1.4,2l7.6,1.5c0.9,0.2,1.5,1.1,1.3,2
			c-0.4,1.9-0.8,3.7-1.4,5.6c-0.2,0.8-1,1.2-1.8,1c-0.8-0.2-1.2-1-1-1.8c0.2-0.8,0.4-1.6,0.6-2.4c0.2-0.9-0.3-1.8-1.3-2l-4.7-1.1
			c-0.9-0.2-1.8,0.4-2,1.3c-0.7,3-1.7,5.9-2.8,8.8c-0.3,0.9,0.1,1.9,1,2.2l7.2,2.9c0.9,0.3,1.3,1.3,0.9,2.2
			c-0.7,1.8-1.5,3.5-2.4,5.2c-0.4,0.7-1.3,1-2,0.6c-0.7-0.4-1-1.3-0.6-2c0.4-0.7,0.7-1.5,1.1-2.2c0.4-0.8,0-1.8-0.9-2.2l-4.4-1.9
			c-0.9-0.4-1.9,0-2.3,0.9c-1.3,2.8-2.8,5.5-4.4,8.2c-0.5,0.8-0.3,1.8,0.5,2.3l6.5,4.2c0.8,0.5,1,1.6,0.5,2.3
			c-1.1,1.6-2.2,3.1-3.3,4.7c-0.5,0.6-1.4,0.8-2.1,0.2c-0.6-0.5-0.7-1.4-0.3-2.1c0.5-0.7,1-1.3,1.5-2c0.5-0.8,0.4-1.8-0.4-2.3
			l-3.9-2.7c-0.8-0.5-1.8-0.3-2.4,0.4c-1.8,2.5-3.8,4.9-5.9,7.2c-0.6,0.7-0.6,1.8,0.1,2.4l5.6,5.3c0.7,0.6,0.7,1.7,0,2.4
			c-1.3,1.4-2.7,2.7-4.2,4c-0.6,0.5-1.5,0.5-2.1-0.1c-0.5-0.6-0.5-1.5,0.1-2.1c0.6-0.5,1.2-1.1,1.8-1.7c0.7-0.6,0.7-1.7,0-2.4
			l-3.4-3.4c-0.7-0.7-1.7-0.7-2.4,0c-2.3,2.1-4.6,4.1-7.1,6c-0.8,0.6-0.9,1.6-0.4,2.4l4.5,6.3c0.5,0.8,0.4,1.8-0.4,2.3
			c-1.6,1.1-3.2,2.1-4.8,3.1c-0.7,0.4-1.6,0.2-2-0.5c-0.4-0.7-0.2-1.6,0.5-2c0.7-0.4,1.4-0.9,2.1-1.3c0.8-0.5,1-1.6,0.5-2.3l-2.7-4
			c-0.5-0.8-1.6-1-2.4-0.5c-2.6,1.7-5.3,3.2-8.1,4.5c-0.8,0.4-1.2,1.4-0.8,2.3l3.9,8.6l0,0c-2.3,1-4.6,2-6.9,2.8
			c-0.8,0.3-1.6-0.1-1.9-0.9c-0.3-0.8,0.1-1.6,0.9-1.9c0.8-0.3,1.5-0.6,2.3-0.9c0.9-0.3,1.3-1.3,0.9-2.2l-1.8-4.4
			c-0.4-0.9-1.3-1.3-2.2-0.9c-2.9,1.1-5.8,2.1-8.8,2.9c-0.9,0.2-1.5,1.2-1.2,2.1l1.8,7.5c0.2,0.9-0.3,1.8-1.3,2
			c-1.9,0.4-3.8,0.8-5.6,1.1c-0.8,0.1-1.5-0.4-1.7-1.2s0.4-1.5,1.2-1.7c0.8-0.1,1.6-0.3,2.4-0.4c0.9-0.2,1.5-1.1,1.3-2l-1-4.7
			c-0.2-0.9-1.1-1.5-2-1.3c-3,0.6-6.1,0.9-9.2,1.2c-0.9,0.1-1.7,0.9-1.6,1.8l0.4,7.7c0,0.9-0.7,1.7-1.6,1.8c-1.9,0.1-3.8,0.1-5.7,0
			c-0.8,0-1.4-0.7-1.4-1.5c0-0.8,0.7-1.4,1.5-1.4c0.8,0,1.7,0,2.5,0c0.9,0,1.7-0.8,1.7-1.7l-0.1-4.8c0-0.9-0.8-1.7-1.7-1.7
			c-3.1,0-6.2-0.2-9.3-0.6c-0.9-0.1-1.8,0.5-1.9,1.5l-1.3,9.3l0,0c-2.5-0.3-4.9-0.8-7.3-1.3c-0.8-0.2-1.3-1-1.1-1.8
			c0.2-0.8,1-1.3,1.8-1.1c0.8,0.2,1.6,0.4,2.4,0.5c0.9,0.2,1.8-0.4,2-1.4l0.8-4.7c0.2-0.9-0.5-1.8-1.4-2c-3-0.6-6-1.4-9-2.3
			c-0.9-0.3-1.9,0.2-2.2,1.1l-2.5,7.3c-0.3,0.9-1.3,1.4-2.2,1c-1.8-0.7-3.6-1.4-5.3-2.2c-0.7-0.3-1.1-1.2-0.7-1.9
			c0.3-0.7,1.2-1.1,2-0.7c0.8,0.3,1.5,0.7,2.3,1c0.9,0.4,1.8-0.1,2.2-1l1.7-4.5c0.3-0.9-0.1-1.9-1-2.2c-2.9-1.2-5.6-2.5-8.3-4
			c-0.8-0.5-1.9-0.2-2.3,0.6l-3.9,6.7c-0.5,0.8-1.5,1.1-2.3,0.6c-1.6-1-3.2-2-4.8-3.1c-0.7-0.5-0.8-1.4-0.3-2
			c0.5-0.7,1.4-0.8,2.1-0.3c0.7,0.5,1.4,0.9,2.1,1.4c0.8,0.5,1.8,0.3,2.3-0.5l2.5-4.1c0.5-0.8,0.3-1.8-0.5-2.3
			c-2.6-1.7-5.1-3.5-7.5-5.5c-0.7-0.6-1.8-0.5-2.4,0.2l-5.1,5.8c-0.6,0.7-1.7,0.8-2.4,0.2c-1.4-1.3-2.8-2.6-4.1-4
			c-0.6-0.6-0.5-1.5,0-2.1c0.6-0.6,1.5-0.5,2.1,0c0.6,0.6,1.2,1.2,1.8,1.7c0.7,0.7,1.7,0.6,2.4-0.1l3.3-3.5c0.6-0.7,0.6-1.8-0.1-2.4
			c-2.2-2.2-4.3-4.4-6.3-6.8c-0.6-0.7-1.7-0.8-2.4-0.3l-6.1,4.8c-0.7,0.6-1.8,0.5-2.4-0.3c-1.2-1.5-2.3-3.1-3.3-4.7
			c-0.5-0.7-0.2-1.6,0.4-2c0.7-0.4,1.6-0.2,2,0.4c0.5,0.7,0.9,1.4,1.4,2c0.5,0.8,1.6,0.9,2.4,0.4l3.9-2.8c0.8-0.6,0.9-1.6,0.4-2.4
			c-1.8-2.5-3.4-5.2-4.9-7.9c-0.4-0.8-1.5-1.2-2.3-0.7l-6.9,3.6c-0.8,0.4-1.9,0.1-2.3-0.7c-0.8-1.7-1.6-3.5-2.4-5.2
			c-0.3-0.7,0.1-1.6,0.8-1.9c0.8-0.3,1.6,0.1,1.9,0.8c0.3,0.8,0.6,1.5,1,2.3c0.4,0.9,1.4,1.2,2.2,0.8l4.3-2.1
			c0.8-0.4,1.2-1.4,0.8-2.3c-1.3-2.8-2.4-5.7-3.3-8.6c-0.3-0.9-1.2-1.4-2.1-1.1l-7.4,2.2c-0.9,0.3-1.8-0.3-2.1-1.2
			c-0.5-1.8-1-3.7-1.3-5.6c-0.2-0.8,0.4-1.6,1.2-1.7c0.8-0.2,1.6,0.4,1.7,1.2c0.2,0.8,0.3,1.6,0.5,2.4c0.2,0.9,1.1,1.5,2,1.2
			l4.7-1.2c0.9-0.2,1.5-1.2,1.2-2.1c-0.7-3-1.2-6.1-1.6-9.1c-0.1-0.9-0.9-1.6-1.9-1.5l-7.7,0.7c-0.9,0.1-1.8-0.6-1.8-1.5
			c-0.1-1.9-0.2-3.8-0.3-5.7c0-0.8,0.7-1.5,1.5-1.5c0.8,0,1.5,0.7,1.5,1.5c0,0.8,0,1.7,0.1,2.5c0,0.9,0.8,1.6,1.8,1.6l4.8-0.3
			c0.9-0.1,1.6-0.9,1.6-1.8c-0.1-3.1-0.1-6.2,0.2-9.3c0.1-0.9-0.6-1.8-1.5-1.8l-7.7-0.7c-0.9-0.1-1.6-0.9-1.5-1.8
			c0.2-1.9,0.5-3.8,0.8-5.7c0.1-0.8,0.9-1.3,1.7-1.2c0.8,0.2,1.3,0.9,1.2,1.7c-0.1,0.8-0.3,1.6-0.4,2.4c-0.1,0.9,0.5,1.8,1.5,1.9
			l4.8,0.6c0.9,0.1,1.8-0.5,1.9-1.5c0.5-3.1,1.1-6.1,1.9-9.1c0.2-0.9-0.3-1.8-1.2-2.1l-7.4-2.2c-0.9-0.3-1.4-1.2-1.1-2.1
			c0.6-1.8,1.2-3.6,1.9-5.4c0.3-0.8,1.2-1.1,1.9-0.8c0.8,0.3,1.1,1.2,0.8,1.9c-0.3,0.8-0.6,1.5-0.9,2.3c-0.3,0.9,0.2,1.8,1.1,2.1
			l4.6,1.5c0.9,0.3,1.8-0.2,2.2-1.1c1-2.9,2.2-5.8,3.6-8.5c0.4-0.8,0.1-1.9-0.7-2.3l-6.9-3.6c-0.8-0.4-1.2-1.5-0.7-2.3
			c0.9-1.7,1.9-3.3,2.9-5c0.4-0.7,1.3-0.9,2-0.4c0.7,0.4,0.9,1.3,0.4,2c-0.4,0.7-0.9,1.4-1.3,2.1c-0.5,0.8-0.2,1.8,0.6,2.3l4.2,2.3
			c0.8,0.5,1.8,0.2,2.3-0.6c1.6-2.7,3.3-5.2,5.1-7.7c0.6-0.7,0.4-1.8-0.3-2.4l-6.1-4.8c-0.7-0.6-0.9-1.6-0.3-2.4
			c1.2-1.5,2.5-2.9,3.8-4.3c0.6-0.6,1.5-0.6,2.1-0.1c0.6,0.6,0.6,1.5,0.1,2.1c-0.6,0.6-1.1,1.2-1.7,1.8c-0.6,0.7-0.5,1.8,0.2,2.4
			l3.7,3.1c0.7,0.6,1.8,0.5,2.4-0.2c2-2.3,4.2-4.5,6.5-6.6c0.7-0.6,0.8-1.7,0.2-2.4l-5.5-7.7c1.7-1.4,3.4-2.8,5.1-4.1
			c0.7-0.5,1.6-0.3,2,0.3c0.5,0.7,0.3,1.6-0.3,2.1c-0.7,0.5-1.3,1-2,1.5c-0.7,0.6-0.8,1.6-0.3,2.4l3,3.7c0.6,0.7,1.7,0.8,2.4,0.3
			c2.4-1.9,5-3.7,7.6-5.3c0.8-0.5,1.1-1.5,0.6-2.3l-3.9-6.7c-0.5-0.8-0.2-1.8,0.6-2.3c1.7-0.9,3.4-1.8,5.1-2.6
			c0.7-0.3,1.6,0,1.9,0.7c0.3,0.7,0,1.6-0.7,2c-0.7,0.4-1.5,0.7-2.2,1.1c-0.8,0.4-1.1,1.5-0.7,2.3l2.3,4.2c0.4,0.8,1.5,1.1,2.3,0.7
			c2.8-1.4,5.6-2.6,8.5-3.7c0.9-0.3,1.3-1.3,1-2.2l-2.5-7.3c-0.3-0.9,0.2-1.8,1.1-2.1c1.8-0.6,3.7-1.1,5.5-1.6
			c0.8-0.2,1.6,0.3,1.8,1.1c0.2,0.8-0.3,1.6-1.1,1.8c-0.8,0.2-1.6,0.4-2.4,0.7c-0.9,0.3-1.4,1.2-1.1,2.1l1.4,4.6
			c0.3,0.9,1.2,1.4,2.1,1.1c3-0.8,6-1.5,9-2c0.9-0.2,1.6-1,1.4-1.9l-1.1-7.7C87,9.9,87.7,9,88.6,8.9c1.9-0.2,3.8-0.4,5.7-0.5
			c0.8,0,1.5,0.6,1.5,1.4s-0.6,1.5-1.4,1.5c-0.8,0-1.6,0.1-2.5,0.2c-0.9,0.1-1.6,0.9-1.5,1.8l0.5,4.8c0.1,0.9,0.9,1.6,1.9,1.5
			c3.1-0.3,6.2-0.4,9.3-0.3c0.9,0,1.7-0.7,1.8-1.6l0.4-7.7c0-0.9,0.8-1.7,1.8-1.6c1.9,0.1,3.8,0.3,5.7,0.6c0.8,0.1,1.4,0.8,1.2,1.7
			c-0.1,0.8-0.9,1.4-1.7,1.3c-0.8-0.1-1.6-0.2-2.5-0.3c-0.9-0.1-1.7,0.6-1.8,1.5l-0.4,4.8c-0.1,0.9,0.6,1.7,1.6,1.8
			c3.1,0.3,6.1,0.8,9.1,1.5c0.9,0.2,1.8-0.4,2-1.3l1.8-7.5c0.2-0.9,1.1-1.5,2-1.2c1.8,0.5,3.7,1,5.5,1.6c0.8,0.3,1.2,1.1,0.9,1.9
			c-0.3,0.8-1.1,1.2-1.9,0.9c-0.8-0.3-1.6-0.5-2.4-0.7c-0.9-0.3-1.8,0.3-2.1,1.2l-1.3,4.6c-0.3,0.9,0.3,1.8,1.2,2.1
			c3,0.9,5.9,2,8.7,3.2c0.9,0.4,1.9,0,2.3-0.9l3.2-7c0.4-0.8,1.4-1.2,2.2-0.8c1.7,0.8,3.4,1.7,5.1,2.6c0.7,0.4,0.9,1.3,0.5,2
			c-0.4,0.7-1.3,0.9-2,0.5c-0.7-0.4-1.4-0.8-2.2-1.2c-0.8-0.4-1.8-0.1-2.3,0.7l-2.1,4.3c-0.4,0.8-0.1,1.9,0.8,2.3
			c2.7,1.4,5.4,3,7.9,4.8c0.8,0.5,1.8,0.3,2.4-0.4l4.5-6.3c0.5-0.8,1.6-0.9,2.4-0.4c1.5,1.1,3,2.3,4.5,3.6c0.6,0.5,0.7,1.5,0.2,2.1
			c-0.5,0.6-1.5,0.7-2.1,0.2c-0.6-0.5-1.3-1.1-1.9-1.6c-0.7-0.6-1.8-0.4-2.4,0.3l-2.9,3.8c-0.6,0.7-0.4,1.8,0.3,2.4
			c2.4,1.9,4.7,4,6.9,6.2c0.7,0.7,1.7,0.7,2.4,0l5.6-5.3c0.7-0.6,1.8-0.6,2.4,0.1c1.3,1.4,2.5,2.9,3.8,4.3c0.5,0.6,0.4,1.6-0.2,2.1
			c-0.6,0.5-1.6,0.4-2.1-0.2c-0.5-0.6-1-1.3-1.6-1.9c-0.6-0.7-1.7-0.8-2.4-0.1l-3.6,3.2c-0.7,0.6-0.8,1.7-0.2,2.4
			c2,2.3,3.9,4.8,5.6,7.4c0.5,0.8,1.6,1,2.4,0.5l8-5.1c1.3,2,2.6,4.4,3.7,6.4c0.4,0.7,0.1,1.6-0.6,2c-0.7,0.4-1.6,0.1-2-0.6
			c-0.4-0.7-0.8-1.5-1.2-2.2c-0.5-0.8-1.5-1.1-2.3-0.6l-4.1,2.5c-0.8,0.5-1.1,1.5-0.6,2.3c1.5,2.7,2.9,5.5,4.1,8.3
			c0.4,0.9,1.3,1.3,2.2,0.9l7.2-2.9c0.9-0.3,1.9,0.1,2.2,0.9c0.7,1.8,1.3,3.6,1.9,5.4c0.2,0.8-0.2,1.6-1,1.8c-0.8,0.2-1.6-0.2-1.8-1
			c-0.2-0.8-0.5-1.6-0.8-2.4c-0.3-0.9-1.3-1.3-2.2-1l-4.5,1.6c-0.9,0.3-1.3,1.3-1,2.2c1,2.9,1.8,5.9,2.5,8.9c0.2,0.9,1.1,1.5,2,1.3
			l7.6-1.5c0.9-0.2,1.8,0.4,2,1.3c0.3,1.9,0.6,3.8,0.8,5.7c0.1,0.8-0.5,1.5-1.3,1.6c-0.8,0.1-1.5-0.5-1.6-1.3
			c-0.1-0.8-0.2-1.6-0.3-2.5c-0.1-0.9-1-1.6-1.9-1.4l-4.7,0.7c-0.9,0.1-1.6,1-1.4,1.9c0.4,3.1,0.7,6.2,0.7,9.2
			c0,0.9,0.8,1.7,1.7,1.7h7.7c0.9,0,1.7,0.8,1.7,1.7C191.7,103.6,191.6,105.5,191.5,107.4L191.5,107.4z"/>
	</g>
</g>
</svg>
