<svg width="48" height="48" viewBox="0 0 48 48" fill="none" xmlns="http://www.w3.org/2000/svg">
<path d="M30.0001 26.4999C34.6945 26.4999 38.5001 22.6943 38.5001 17.9999C38.5001 13.3055 34.6945 9.49994 30.0001 9.49994C25.3057 9.49994 21.5001 13.3055 21.5001 17.9999C21.5001 18.6202 21.5665 19.2249 21.6927 19.8074L9.50012 31.9999V38.4999H16.0001L17.5001 36.9999V33.4999H21.0001L23.5001 30.9999V27.4999H27.0001L28.1927 26.3073C28.7751 26.4335 29.3799 26.4999 30.0001 26.4999Z" stroke="white" stroke-width="3" stroke-linecap="round" stroke-linejoin="round"/>
<path d="M33.0001 15.9999C33.0001 16.5522 32.5523 16.9999 32.0001 16.9999C31.4479 16.9999 31.0001 16.5522 31.0001 15.9999C31.0001 15.4477 31.4479 14.9999 32.0001 14.9999C32.5523 14.9999 33.0001 15.4477 33.0001 15.9999Z" stroke="white" stroke-width="2"/>
</svg>
