<svg width="292" height="129" viewBox="0 0 292 129" fill="none" xmlns="http://www.w3.org/2000/svg">
<path opacity="0.12" d="M229.186 110.848L177 129L240.09 89.8136C242.667 88.2129 246 90.0662 246 93.1C246 96.2098 249.483 98.0486 252.051 96.2943L292 69V109L239.814 127.152C237.215 128.056 234.5 126.126 234.5 123.374V114.626C234.5 111.874 231.785 109.944 229.186 110.848Z" fill="white"/>
<path opacity="0.12" d="M51.5627 39.7731L114 0L62.3439 18.427C59.7392 19.3562 57 17.425 57 14.6595V5.67379C57 2.90829 54.2608 0.977146 51.6561 1.90632L0 20.3333V61L39.4954 33.3252C42.066 31.5239 45.6 33.3629 45.6 36.5017C45.6 39.5632 48.9806 41.418 51.5627 39.7731Z" fill="white"/>
</svg>
