<?xml version="1.0" encoding="utf-8"?>
<!-- Generator: Adobe Illustrator 26.1.0, SVG Export Plug-In . SVG Version: 6.00 Build 0)  -->
<svg version="1.1" xmlns="http://www.w3.org/2000/svg" xmlns:xlink="http://www.w3.org/1999/xlink" x="0px" y="0px"
	 viewBox="0 0 200 200" style="enable-background:new 0 0 200 200;" xml:space="preserve">
<style type="text/css">
	.st0{fill:#6F37E6;}
</style>
<g id="Layer_1">
</g>
<g id="Layer_2">
	<g>
		<path class="st0" d="M178.3,100h6.9c0,0,0,0,0,0c0,0,0,0,0,0L178.3,100C178.3,100,178.3,100,178.3,100z"/>
		<path class="st0" d="M100,21.7v-6.9c0,0,0,0,0,0c0,0,0,0,0,0L100,21.7C100,21.7,100,21.7,100,21.7z"/>
		<path class="st0" d="M164.7,153.1c0.6-0.7,1.1-1.4,1.7-2.1l-2.1-1.6c-1.1,1.4-2.2,2.8-3.4,4.1l3.1,2.8c0.6-0.7,1.2-1.4,1.8-2.1
			L164.7,153.1z"/>
		<path class="st0" d="M168.8,142.8l3.6,2.2c0.5-0.8,1-1.6,1.4-2.4l-1.3-0.7c0.9-1.6,1.8-3.2,2.6-4.8l1.3,0.7
			c0.4-0.8,0.8-1.7,1.2-2.5l-3.8-1.7C172.3,136.6,170.6,139.8,168.8,142.8z"/>
		<path class="st0" d="M163.6,145.6l5.6,4c0.5-0.8,1.1-1.5,1.6-2.3l-5.7-3.8c2.9-4.3,5.3-8.8,7.2-13.5l-2.5-1
			c-3.8,9.1-9.4,17.5-16.4,24.5l6.8,6.8c0.7-0.7,1.3-1.3,1.9-2l-5-4.7C159.5,151,161.6,148.4,163.6,145.6z"/>
		<path class="st0" d="M147.2,165.8l2.4,3.4c0.8-0.5,1.5-1.1,2.2-1.7l-0.9-1.2c1.4-1.1,2.9-2.3,4.2-3.5l1,1.1
			c0.7-0.6,1.4-1.2,2.1-1.9l-2.9-3.1C152.8,161.5,150,163.8,147.2,165.8z"/>
		<path class="st0" d="M141.3,166.5l3.6,5.9c0.8-0.5,1.6-1,2.3-1.5l-3.8-5.7c4.3-2.9,8.2-6.1,11.9-9.7l-1.9-1.9
			c-7,7-15.4,12.6-24.5,16.4l3.7,8.9c0.9-0.4,1.7-0.7,2.6-1.1l-2.8-6.3C135.4,169.9,138.4,168.3,141.3,166.5z"/>
		<path class="st0" d="M139.4,173.8c0.8-0.4,1.6-0.9,2.4-1.3l-1.4-2.3c-1.5,0.9-3.1,1.7-4.7,2.5l1.9,3.8c0.8-0.4,1.7-0.8,2.5-1.3
			L139.4,173.8z"/>
		<path class="st0" d="M16.7,108.2c0.1,0.9,0.2,1.8,0.3,2.7l2.7-0.3c-0.2-1.8-0.4-3.5-0.5-5.3l-4.2,0.3c0.1,0.9,0.1,1.9,0.2,2.8
			L16.7,108.2z"/>
		<path class="st0" d="M108.2,183.3c0.9-0.1,1.8-0.2,2.7-0.3l-0.3-2.7c-1.8,0.2-3.5,0.4-5.3,0.5l0.3,4.2c0.9-0.1,1.9-0.1,2.8-0.2
			L108.2,183.3z"/>
		<path class="st0" d="M37.1,155.2l-1.1,1c0.6,0.7,1.2,1.4,1.9,2.1l3.1-2.9c-2.4-2.6-4.7-5.3-6.7-8.2l-3.4,2.4
			c0.5,0.8,1.1,1.5,1.7,2.2l1.2-0.9C34.7,152.4,35.9,153.8,37.1,155.2z"/>
		<path class="st0" d="M21.3,132.6c0.4,0.9,0.7,1.7,1.1,2.6l6.3-2.8c1.4,3.1,3,6.1,4.8,9l-5.9,3.6c0.5,0.8,1,1.6,1.5,2.3l5.7-3.8
			c2.9,4.3,6.1,8.2,9.7,11.9l1.9-1.9c-7-7-12.6-15.4-16.4-24.5L21.3,132.6z"/>
		<path class="st0" d="M72.4,173.3c3.2,1.2,6.5,2.2,9.8,3l-1.6,6.7c0.9,0.2,1.8,0.4,2.7,0.6l1.3-6.8c5,1,10.1,1.5,15.3,1.5v6.9
			c0,0,0,0,0,0c0,0,0,0,0,0v-9.6c0,0,0,0,0,0c-5,0-9.9-0.5-14.8-1.4c-4.8-1-9.6-2.4-14.2-4.3l0,0.1l0-0.1
			c-9.1-3.8-17.5-9.4-24.5-16.4l-6.8,6.8c0.7,0.7,1.3,1.3,2,1.9l4.7-5c2.5,2.3,5.1,4.5,7.9,6.5l-4,5.6c0.8,0.5,1.5,1.1,2.3,1.6
			l3.8-5.7c4.3,2.9,8.8,5.3,13.5,7.2l-2.6,6.4c0.9,0.4,1.7,0.7,2.6,1L72.4,173.3z"/>
		<path class="st0" d="M112.8,177.2l1.1,6.8c0.9-0.2,1.8-0.3,2.7-0.5l-1.3-6.8c5-1,9.9-2.5,14.7-4.4l-1-2.5
			c-4.6,1.9-9.3,3.3-14.2,4.3c-4.8,1-9.8,1.4-14.7,1.4v9.6c0.9,0,1.8,0,2.8-0.1l-0.2-6.9C106,178.1,109.4,177.8,112.8,177.2z"/>
		<path class="st0" d="M126.9,179.3l0.5,1.4c0.9-0.3,1.8-0.6,2.6-0.9l-1.5-3.9c-3.3,1.2-6.7,2.3-10.1,3.1l0.9,4.1
			c0.9-0.2,1.8-0.4,2.7-0.7l-0.4-1.4C123.4,180.4,125.2,179.8,126.9,179.3z"/>
		<path class="st0" d="M20.7,126.9l-1.4,0.5c0.3,0.9,0.6,1.8,0.9,2.6l3.9-1.5c-1.2-3.3-2.3-6.7-3.1-10.1l-4.1,0.9
			c0.2,0.9,0.4,1.8,0.7,2.7l1.4-0.4C19.6,123.4,20.2,125.2,20.7,126.9z"/>
		<path class="st0" d="M22.8,112.8l-6.8,1.1c0.2,0.9,0.3,1.8,0.5,2.7l6.8-1.3c1,5,2.5,9.9,4.4,14.7l2.5-1c-1.9-4.6-3.3-9.3-4.3-14.2
			c-1-4.8-1.4-9.8-1.4-14.7h-9.6c0,0.9,0,1.8,0.1,2.8l6.9-0.2C21.9,106,22.2,109.4,22.8,112.8z"/>
		<path class="st0" d="M75.7,180.1c0.9,0.3,1.8,0.5,2.6,0.8l0.7-2.6c-1.7-0.5-3.4-1-5.1-1.5l-1.3,4c0.9,0.3,1.8,0.6,2.7,0.9
			L75.7,180.1z"/>
		<path class="st0" d="M26.2,139.4c0.4,0.8,0.9,1.6,1.3,2.4l2.3-1.4c-0.9-1.5-1.7-3.1-2.5-4.7l-3.8,1.9c0.4,0.8,0.8,1.7,1.3,2.5
			L26.2,139.4z"/>
		<path class="st0" d="M57.2,168.8l-2.2,3.6c0.8,0.5,1.6,1,2.4,1.4l0.7-1.3c1.6,0.9,3.2,1.8,4.8,2.6l-0.7,1.3
			c0.8,0.4,1.7,0.8,2.5,1.2l1.7-3.8C63.4,172.3,60.2,170.6,57.2,168.8z"/>
		<path class="st0" d="M24.4,100c0-5,0.5-9.9,1.4-14.8c1-4.8,2.4-9.6,4.3-14.2l-8.9-3.7c-0.4,0.9-0.7,1.7-1,2.6l6.5,2.4
			c-1.2,3.2-2.2,6.5-3,9.8l-6.7-1.6c-0.2,0.9-0.4,1.8-0.6,2.7l6.8,1.3c-1,5-1.5,10.1-1.5,15.3h-6.9c0,0,0,0,0,0c0,0,0,0,0,0
			L24.4,100C24.4,100,24.4,100,24.4,100z"/>
		<path class="st0" d="M46.9,164.7c0.7,0.6,1.4,1.1,2.1,1.7l1.6-2.1c-1.4-1.1-2.8-2.2-4.1-3.4l-2.8,3.1c0.7,0.6,1.4,1.2,2.1,1.8
			L46.9,164.7z"/>
		<path class="st0" d="M94.5,183.5l-0.1,1.5c0.9,0.1,1.9,0.1,2.8,0.1l0.1-4.2c-3.5-0.1-7.1-0.5-10.5-1l-0.7,4.1
			c0.9,0.1,1.8,0.3,2.8,0.4l0.2-1.5C90.9,183.2,92.7,183.4,94.5,183.5z"/>
		<path class="st0" d="M19.9,75.7c-0.3,0.9-0.5,1.8-0.8,2.6l2.6,0.7c0.5-1.7,1-3.4,1.5-5.1l-4-1.3c-0.3,0.9-0.6,1.8-0.9,2.7
			L19.9,75.7z"/>
		<path class="st0" d="M16.5,94.5L15,94.4c-0.1,0.9-0.1,1.9-0.1,2.8l4.2,0.1c0.1-3.5,0.5-7.1,1-10.5L16,86.1
			c-0.1,0.9-0.3,1.8-0.4,2.8l1.5,0.2C16.8,90.9,16.6,92.7,16.5,94.5z"/>
		<path class="st0" d="M28.5,114.2c0.9,4.7,2.3,9.3,4.1,13.7l0,0c3.6,8.8,9.1,16.9,15.8,23.6l1.9-1.9c-6.5-6.5-11.7-14.3-15.2-22.8
			l0,0c-1.8-4.2-3.1-8.6-4-13.1c-0.9-4.5-1.3-9.1-1.3-13.7h-2.7C27.2,104.8,27.6,109.6,28.5,114.2z"/>
		<path class="st0" d="M31.2,86.3c0.9-4.5,2.2-8.9,4-13.1l0,0c3.5-8.5,8.7-16.3,15.2-22.8l-1.9-1.9c-6.8,6.7-12.2,14.8-15.8,23.6
			l0,0c-1.8,4.4-3.2,9-4.1,13.7c-0.9,4.7-1.4,9.4-1.4,14.2c0,0,0,0,0,0h2.7c0,0,0,0,0,0C29.9,95.4,30.3,90.8,31.2,86.3z"/>
		<path class="st0" d="M100,170.1c-4.6,0-9.2-0.4-13.7-1.3c-4.5-0.9-8.9-2.2-13.1-4c-8.5-3.5-16.3-8.7-22.8-15.2l-1.9,1.9
			c6.7,6.8,14.8,12.2,23.6,15.8c4.4,1.8,9,3.2,13.7,4.1c4.7,0.9,9.4,1.4,14.2,1.4c0,0,0,0,0,0L100,170.1
			C100,170.1,100,170.1,100,170.1z"/>
		<path class="st0" d="M85.8,28.5c-4.7,0.9-9.3,2.3-13.7,4.1c-8.8,3.6-16.9,9.1-23.6,15.8l1.9,1.9c6.5-6.5,14.3-11.7,22.8-15.2
			c4.2-1.8,8.6-3.1,13.1-4c4.5-0.9,9.1-1.3,13.7-1.3c0,0,0,0,0,0v-2.7c0,0,0,0,0,0C95.2,27.1,90.4,27.6,85.8,28.5z"/>
		<path class="st0" d="M168.8,113.7c-0.9,4.5-2.2,8.9-4,13.1c-3.5,8.5-8.7,16.3-15.2,22.8c-6.5,6.5-14.3,11.7-22.8,15.2
			c-4.2,1.8-8.6,3.1-13.1,4c-4.5,0.9-9.1,1.3-13.7,1.3v2.7c4.8,0,9.5-0.5,14.2-1.4c4.7-0.9,9.3-2.3,13.7-4.1
			c8.8-3.6,16.9-9.1,23.6-15.8c6.8-6.7,12.2-14.8,15.8-23.6c1.8-4.4,3.2-9,4.1-13.7c0.9-4.7,1.4-9.4,1.4-14.2h-2.7
			C170.1,104.6,169.7,109.2,168.8,113.7z"/>
		<path class="st0" d="M171.5,85.8c-0.9-4.7-2.3-9.3-4.1-13.7c-3.6-8.8-9.1-16.9-15.8-23.6c-6.7-6.8-14.8-12.2-23.6-15.8
			c-4.4-1.8-9-3.2-13.7-4.1c-4.7-0.9-9.4-1.4-14.2-1.4v2.7c4.6,0,9.2,0.4,13.7,1.3c4.5,0.9,8.9,2.2,13.1,4
			c8.5,3.5,16.3,8.7,22.8,15.2c6.5,6.5,11.7,14.3,15.2,22.8c1.8,4.2,3.1,8.6,4,13.1c0.9,4.5,1.3,9.1,1.3,13.7c0,0,0,0,0,0h2.7
			c0,0,0,0,0,0C172.9,95.2,172.4,90.4,171.5,85.8z"/>
		<path class="st0" d="M183.5,105.5l1.5,0.1c0.1-0.9,0.1-1.9,0.1-2.8l-4.2-0.1c-0.1,3.5-0.5,7.1-1,10.5l4.1,0.7
			c0.1-0.9,0.3-1.8,0.4-2.8l-1.5-0.2C183.2,109.1,183.4,107.3,183.5,105.5z"/>
		<path class="st0" d="M176.2,117.8l6.7,1.6c0.2-0.9,0.4-1.8,0.6-2.7l-6.8-1.3c1-5,1.5-10.1,1.5-15.3h-2.7c0,5-0.5,9.9-1.4,14.7
			c-1,4.8-2.4,9.6-4.3,14.2l8.9,3.7c0.4-0.9,0.7-1.7,1-2.6l-6.5-2.4C174.5,124.4,175.5,121.1,176.2,117.8z"/>
		<path class="st0" d="M117.8,23.8l1.6-6.7c-0.9-0.2-1.8-0.4-2.7-0.6l-1.3,6.8c-5-1-10.1-1.5-15.3-1.5v2.7c5,0,9.9,0.5,14.7,1.4
			c4.8,1,9.6,2.4,14.2,4.3c9.1,3.8,17.5,9.4,24.5,16.4c7,7,12.6,15.4,16.4,24.5c1.9,4.6,3.3,9.3,4.3,14.2c1,4.8,1.4,9.8,1.4,14.8
			c0,0,0,0,0,0h2.7c0,0,0,0,0,0h6.9c0-0.9,0-1.9-0.1-2.8l-6.9,0.2c-0.1-3.4-0.4-6.8-1-10.2l6.8-1.1c-0.2-0.9-0.3-1.8-0.5-2.7
			l-6.8,1.3c-1-5-2.5-9.9-4.4-14.7l6.4-2.6c-0.4-0.9-0.7-1.7-1.1-2.6l-6.3,2.8c-1.4-3.1-3-6.1-4.8-9l5.9-3.6c-0.5-0.8-1-1.6-1.5-2.3
			l-5.7,3.8c-2.9-4.3-6.1-8.2-9.7-11.9l4.9-4.9c-0.7-0.7-1.3-1.3-2-1.9l-4.7,5c-2.5-2.3-5.1-4.5-7.9-6.5l4-5.6
			c-0.8-0.5-1.5-1.1-2.3-1.6l-3.8,5.7c-4.3-2.9-8.8-5.3-13.5-7.2l2.6-6.4c-0.9-0.4-1.7-0.7-2.6-1l-2.4,6.5
			C124.4,25.5,121.1,24.5,117.8,23.8z"/>
		<path class="st0" d="M162.9,44.8l1.1-1c-0.6-0.7-1.2-1.4-1.9-2.1l-3.1,2.9c2.4,2.6,4.7,5.3,6.7,8.2l3.4-2.4
			c-0.5-0.8-1.1-1.5-1.7-2.2l-1.2,0.9C165.3,47.6,164.1,46.2,162.9,44.8z"/>
		<path class="st0" d="M179.3,73.1l1.4-0.5c-0.3-0.9-0.6-1.8-0.9-2.6l-3.9,1.5c1.2,3.3,2.3,6.7,3.1,10.1l4.1-0.9
			c-0.2-0.9-0.4-1.8-0.7-2.7l-1.4,0.4C180.4,76.6,179.8,74.8,179.3,73.1z"/>
		<path class="st0" d="M173.8,60.6c-0.4-0.8-0.9-1.6-1.3-2.4l-2.3,1.4c0.9,1.5,1.7,3.1,2.5,4.7l3.8-1.9c-0.4-0.8-0.8-1.7-1.3-2.5
			L173.8,60.6z"/>
		<path class="st0" d="M105.5,16.5l0.1-1.5c-0.9-0.1-1.9-0.1-2.8-0.1l-0.1,4.2c3.5,0.1,7.1,0.5,10.5,1l0.7-4.1
			c-0.9-0.1-1.8-0.3-2.8-0.4l-0.2,1.5C109.1,16.8,107.3,16.6,105.5,16.5z"/>
		<path class="st0" d="M141.8,27.5c-1.6-0.9-3.2-1.8-4.8-2.6l0.7-1.3c-0.8-0.4-1.7-0.8-2.5-1.2l-1.7,3.8c3.2,1.5,6.3,3.1,9.3,5
			l2.2-3.6c-0.8-0.5-1.6-1-2.4-1.4L141.8,27.5z"/>
		<path class="st0" d="M153.1,35.3c-0.7-0.6-1.4-1.1-2.1-1.7l-1.6,2.1c1.4,1.1,2.8,2.2,4.1,3.4l2.8-3.1c-0.7-0.6-1.4-1.2-2.1-1.8
			L153.1,35.3z"/>
		<path class="st0" d="M183.3,91.8c-0.1-0.9-0.2-1.8-0.3-2.7l-2.7,0.4c0.2,1.8,0.4,3.5,0.5,5.3l4.2-0.3c-0.1-0.9-0.1-1.9-0.2-2.8
			L183.3,91.8z"/>
		<path class="st0" d="M44.8,37.1l-1-1.1c-0.7,0.6-1.4,1.2-2.1,1.9l2.9,3.1c2.6-2.4,5.3-4.7,8.2-6.7l-2.4-3.4
			c-0.8,0.5-1.5,1.1-2.2,1.7l0.9,1.2C47.6,34.7,46.2,35.9,44.8,37.1z"/>
		<path class="st0" d="M35.3,46.9c-0.6,0.7-1.1,1.4-1.7,2.1l2.1,1.6c1.1-1.4,2.2-2.8,3.4-4.1L36,43.9c-0.6,0.7-1.2,1.4-1.8,2.1
			L35.3,46.9z"/>
		<path class="st0" d="M36.4,54.4l-5.6-4c-0.5,0.8-1.1,1.5-1.6,2.3l5.7,3.8c-2.9,4.3-5.3,8.8-7.2,13.5l2.5,1
			c3.8-9.1,9.4-17.5,16.4-24.5c7-7,15.4-12.6,24.5-16.4l-0.2-0.6l0.2,0.6c4.6-1.9,9.3-3.3,14.2-4.3c4.8-1,9.8-1.4,14.8-1.4
			c0,0,0,0,0,0v-2.7c0,0,0,0,0,0v-6.9c-0.9,0-1.9,0-2.8,0.1l0.2,6.9c-3.4,0.1-6.8,0.4-10.2,1L86.1,16c-0.9,0.2-1.8,0.3-2.7,0.5
			l1.3,6.8c-5,1-9.9,2.5-14.7,4.4l-2.6-6.4c-0.9,0.4-1.7,0.7-2.6,1.1l2.8,6.3c-3.1,1.4-6.1,3-9,4.8L55,27.7c-0.8,0.5-1.6,1-2.3,1.5
			l3.8,5.7c-4.3,2.8-8.2,6.1-11.9,9.7l-4.9-4.9c-0.7,0.7-1.3,1.3-1.9,2l5,4.7C40.5,49,38.4,51.6,36.4,54.4z"/>
		<path class="st0" d="M31.2,57.2L27.7,55c-0.5,0.8-1,1.6-1.4,2.4l1.3,0.7c-0.9,1.6-1.8,3.2-2.6,4.8l-1.3-0.7
			c-0.4,0.8-0.8,1.7-1.2,2.5l3.8,1.7C27.7,63.4,29.4,60.2,31.2,57.2z"/>
		<path class="st0" d="M60.6,26.2c-0.8,0.4-1.6,0.9-2.4,1.3l1.4,2.3c1.5-0.9,3.1-1.7,4.7-2.5l-1.9-3.8c-0.8,0.4-1.7,0.8-2.5,1.3
			L60.6,26.2z"/>
		<path class="st0" d="M73.1,20.7l-0.5-1.4c-0.9,0.3-1.8,0.6-2.6,0.9l1.5,3.9c3.3-1.2,6.7-2.3,10.1-3.1l-0.9-4.1
			c-0.9,0.2-1.8,0.4-2.7,0.7l0.4,1.4C76.6,19.6,74.8,20.2,73.1,20.7z"/>
		<path class="st0" d="M91.8,16.7c-0.9,0.1-1.8,0.2-2.7,0.3l0.4,2.7c1.8-0.2,3.5-0.4,5.3-0.5L94.4,15c-0.9,0.1-1.9,0.1-2.8,0.2
			L91.8,16.7z"/>
		<path class="st0" d="M124.3,19.9c-0.9-0.3-1.8-0.5-2.6-0.8l-0.7,2.6c1.7,0.5,3.4,1,5.1,1.5l1.3-4c-0.9-0.3-1.8-0.6-2.7-0.9
			L124.3,19.9z"/>
		<path class="st0" d="M180.1,124.3c0.3-0.9,0.5-1.8,0.8-2.6l-2.6-0.7c-0.5,1.7-1,3.4-1.5,5.1l4,1.3c0.3-0.9,0.6-1.8,0.9-2.7
			L180.1,124.3z"/>
	</g>
</g>
<g id="Layer_3">
</g>
</svg>
