<?xml version="1.0" encoding="utf-8"?>
<!-- Generator: Adobe Illustrator 26.1.0, SVG Export Plug-In . SVG Version: 6.00 Build 0)  -->
<svg version="1.1" xmlns="http://www.w3.org/2000/svg" xmlns:xlink="http://www.w3.org/1999/xlink" x="0px" y="0px"
	 viewBox="0 0 200 200" style="enable-background:new 0 0 200 200;" xml:space="preserve">
<style type="text/css">
	.st0{display:none;}
	.st1{display:inline;}
	.st2{fill-rule:evenodd;clip-rule:evenodd;fill:#6F37E6;}
	.st3{display:inline;fill:#B75C5C;}
	.st4{fill:none;}
	.st5{fill:#6F37E6;}
</style>
<g id="Layer_1">
</g>
<g id="Layer_2" class="st0">
	<g class="st1">
		<path class="st2" d="M179.5,145.9l-7-4.1c0.9-1.6,1.8-3.2,2.6-4.8l2.4,1.2c-0.4,0.8-0.8,1.7-1.3,2.5l2.4,1.3
			c0.9-1.7,1.8-3.5,2.6-5.2l-7.4-3.4c-1.5,3.2-3.1,6.3-5,9.3l9.2,5.7c-3.2,5.1-6.9,9.9-11,14.3l-9.9-9.2c2.3-2.5,4.5-5.1,6.5-7.9
			l6.6,4.7c-1.1,1.5-2.2,3-3.4,4.5l-2.1-1.7c0.6-0.7,1.1-1.4,1.7-2.1l-2.1-1.6c-1.1,1.4-2.2,2.8-3.4,4.1l6.1,5.4
			c2.6-2.9,4.9-6,7.1-9.2l-9-6c2.9-4.3,5.3-8.8,7.2-13.5l-2.5-1c-3.8,9.1-9.4,17.5-16.4,24.5l13.4,13.4c8.7-8.7,15.8-19.2,20.5-30.6
			l-2.5-1C183.3,138.8,181.5,142.4,179.5,145.9z"/>
		<path class="st2" d="M155.9,172.8l-4.9-6.4c1.4-1.1,2.9-2.3,4.2-3.5l1.8,2c-0.7,0.6-1.4,1.2-2.2,1.8l1.7,2.1
			c1.5-1.2,3-2.5,4.4-3.8l-5.5-5.9c-2.6,2.4-5.3,4.7-8.2,6.7l6.3,8.8c-4.9,3.5-10.1,6.5-15.6,9l-5.6-12.3c3.1-1.4,6.1-3,9-4.8
			l4.3,6.9c-1.6,1-3.2,1.9-4.9,2.8l-1.3-2.4c0.8-0.4,1.6-0.9,2.4-1.3l-1.4-2.3c-1.5,0.9-3.1,1.7-4.7,2.5l3.6,7.3
			c3.5-1.7,6.9-3.7,10.1-5.8l-6-9c4.3-2.9,8.2-6.1,11.9-9.7l-1.9-1.9c-7,7-15.4,12.6-24.5,16.4l7.3,17.5
			c11.4-4.7,21.9-11.8,30.6-20.5l-1.9-1.9C162.1,167.7,159.1,170.4,155.9,172.8z"/>
		<path class="st2" d="M123.8,188.7l-2.1-7.8c1.8-0.5,3.5-1,5.2-1.6l0.9,2.6c-0.9,0.3-1.8,0.6-2.7,0.9l0.8,2.6
			c1.9-0.6,3.7-1.2,5.5-1.9l-2.9-7.6c-3.3,1.2-6.7,2.3-10.1,3.1l2.4,10.5c-5.9,1.4-11.8,2.1-17.8,2.3l-0.4-13.5
			c3.4-0.1,6.8-0.4,10.2-1l1.3,8c-1.9,0.3-3.7,0.5-5.6,0.7l-0.3-2.7c0.9-0.1,1.8-0.2,2.7-0.3l-0.3-2.7c-1.8,0.2-3.5,0.4-5.3,0.5
			l0.5,8.1c3.9-0.2,7.7-0.8,11.6-1.5l-2.1-10.6c5-1,9.9-2.5,14.7-4.4l-1-2.5c-4.6,1.9-9.3,3.3-14.2,4.3c-4.8,1-9.8,1.4-14.8,1.4
			c-5,0-9.9-0.5-14.8-1.4c-4.8-1-9.6-2.4-14.2-4.3l0,0.1l0-0.1c-9.1-3.8-17.5-9.4-24.5-16.4l-11.5,11.5c-2.8-2.8-5.5-5.8-7.9-9
			l6.4-4.9c1.1,1.4,2.3,2.9,3.5,4.2l-2,1.8c-0.6-0.7-1.2-1.4-1.8-2.2l-2.1,1.7c1.2,1.5,2.5,3,3.8,4.4l5.9-5.5
			c-2.4-2.6-4.7-5.3-6.7-8.2l-8.8,6.3c-3.5-4.9-6.5-10.1-9-15.6l12.3-5.6c1.4,3.1,3,6.1,4.8,9l-6.9,4.3c-1-1.6-1.9-3.2-2.8-4.9
			l2.4-1.3c0.4,0.8,0.9,1.6,1.3,2.4l2.3-1.4c-0.9-1.5-1.7-3.1-2.5-4.7l-7.3,3.6c1.7,3.5,3.7,6.9,5.8,10.1l9-6
			c2.9,4.3,6.1,8.2,9.7,11.9l1.9-1.9c-7-7-12.6-15.4-16.4-24.5l-15,6.2c-1.5-3.7-2.8-7.5-3.9-11.4l7.8-2.1c0.5,1.8,1,3.5,1.6,5.2
			l-2.6,0.9c-0.3-0.9-0.6-1.8-0.9-2.7l-2.6,0.8c0.6,1.9,1.2,3.7,1.9,5.5l7.6-2.9c-1.2-3.3-2.3-6.7-3.1-10.1l-10.5,2.4
			C9.2,115,8.5,109,8.3,103l13.5-0.4c0.1,3.4,0.4,6.8,1,10.2l-8,1.3c-0.3-1.9-0.5-3.7-0.7-5.6l2.7-0.3c0.1,0.9,0.2,1.8,0.3,2.7
			l2.7-0.3c-0.2-1.8-0.4-3.5-0.5-5.3l-8.1,0.5c0.2,3.9,0.8,7.7,1.5,11.6l10.6-2.1c1,5,2.5,9.9,4.4,14.7l2.5-1
			c-1.9-4.6-3.3-9.3-4.3-14.2c-1-4.8-1.4-9.8-1.4-14.8c0-5,0.5-9.9,1.4-14.8c1-4.8,2.4-9.6,4.3-14.2l-17.5-7.3
			c-2.4,5.7-4.2,11.7-5.4,17.7C6.1,87.6,5.5,93.8,5.5,100c0,6.2,0.6,12.4,1.8,18.4c1.2,6.1,3,12,5.4,17.7
			c4.7,11.4,11.8,21.9,20.5,30.6l0.6-0.6l-0.6,0.6c8.7,8.7,19.2,15.8,30.6,20.5l1-2.5c-3.7-1.5-7.3-3.3-10.8-5.3l4.1-7
			c1.6,0.9,3.2,1.8,4.8,2.6l-1.2,2.4c-0.8-0.4-1.7-0.8-2.5-1.3l-1.3,2.4c1.7,0.9,3.5,1.8,5.2,2.6l3.4-7.4c-3.2-1.5-6.3-3.1-9.3-5
			l-5.7,9.2c-5.1-3.2-9.9-6.9-14.3-11l9.2-9.9c2.5,2.3,5.1,4.5,7.9,6.5l-4.7,6.6c-1.5-1.1-3-2.2-4.5-3.4l1.7-2.1
			c0.7,0.6,1.4,1.1,2.1,1.7l1.6-2.1c-1.4-1.1-2.8-2.2-4.1-3.4l-5.4,6.1c2.9,2.6,6,4.9,9.2,7.1l6-9c4.3,2.9,8.8,5.3,13.5,7.2l-6.2,15
			c5.7,2.4,11.7,4.2,17.7,5.4c6.1,1.2,12.3,1.8,18.4,1.8c6.2,0,12.4-0.6,18.4-1.8c6.1-1.2,12-3,17.7-5.4l-1-2.5
			C131.4,186.4,127.6,187.6,123.8,188.7z M9,88l8,1.1c-0.2,1.8-0.4,3.6-0.5,5.5l-2.7-0.2c0.1-0.9,0.1-1.9,0.2-2.8l-2.7-0.3
			c-0.2,1.9-0.3,3.9-0.4,5.8l8.1,0.3c0.1-3.5,0.5-7.1,1-10.5L9.4,85.1c1-5.9,2.5-11.8,4.6-17.4l12.7,4.8c-1.2,3.2-2.2,6.5-3,9.8
			l-7.9-1.8c0.4-1.8,0.9-3.7,1.5-5.5l2.6,0.8c-0.3,0.9-0.5,1.8-0.8,2.6l2.6,0.7c0.5-1.7,1-3.4,1.5-5.1l-7.7-2.6
			c-1.2,3.7-2.3,7.4-3,11.3l10.6,2.1c-1,5-1.5,10.1-1.5,15.3H8.2C8.2,96,8.5,92,9,88z M100,191.8c-4,0-8-0.3-12-0.8l1.1-8
			c1.8,0.2,3.6,0.4,5.5,0.5l-0.2,2.7c-0.9-0.1-1.9-0.1-2.8-0.2l-0.3,2.7c1.9,0.2,3.9,0.3,5.8,0.4l0.3-8.1c-3.5-0.1-7.1-0.5-10.5-1
			l-1.8,10.7c-5.9-1-11.8-2.5-17.4-4.7l4.8-12.7c3.2,1.2,6.5,2.2,9.8,3l-1.8,7.9c-1.8-0.4-3.7-0.9-5.5-1.5l0.8-2.6
			c0.9,0.3,1.8,0.5,2.6,0.8l0.7-2.6c-1.7-0.5-3.4-1-5.1-1.5l-2.6,7.7c3.7,1.2,7.4,2.3,11.3,3l2.1-10.6c5,1,10.1,1.5,15.3,1.5V191.8z
			"/>
		<path class="st2" d="M31.3,168.7L31.3,168.7c-9-9-16.2-19.8-21.1-31.5c-2.4-5.9-4.3-12-5.5-18.3c-1.2-6.2-1.8-12.6-1.8-19
			c0-6.3,0.6-12.7,1.8-19c1.2-6.2,3.1-12.4,5.5-18.3C15.1,51,22.3,40.3,31.3,31.3l-1.9-1.9c-9.2,9.2-16.7,20.3-21.7,32.4h0
			c-2.5,6-4.4,12.3-5.7,18.8c-1.3,6.4-1.9,13-1.9,19.5c0,6.5,0.6,13.1,1.9,19.5c1.3,6.4,3.2,12.7,5.7,18.8h0
			c5,12.1,12.4,23.2,21.7,32.4l0.4-0.4l-0.4,0.4c9.2,9.2,20.3,16.7,32.4,21.7l1-2.5C51,184.9,40.3,177.7,31.3,168.7z"/>
		<path class="st2" d="M32.7,127.9L32.7,127.9c3.6,8.8,9.1,16.9,15.8,23.6l1.9-1.9c-6.5-6.5-11.7-14.3-15.2-22.8l0,0
			c-1.8-4.2-3.1-8.6-4-13.1c-0.9-4.5-1.3-9.1-1.3-13.7c0-4.6,0.4-9.2,1.3-13.7c0.9-4.5,2.2-8.9,4-13.1l0,0
			c3.5-8.5,8.7-16.3,15.2-22.8l-1.9-1.9c-6.8,6.7-12.2,14.8-15.8,23.6l0,0c-1.8,4.4-3.2,9-4.1,13.7c-0.9,4.7-1.4,9.4-1.4,14.2
			c0,4.8,0.5,9.6,1.4,14.2C29.5,118.9,30.8,123.5,32.7,127.9z"/>
		<path class="st2" d="M73.2,35.2c4.2-1.8,8.6-3.1,13.1-4c4.5-0.9,9.1-1.3,13.7-1.3c4.6,0,9.2,0.4,13.7,1.3c4.5,0.9,8.9,2.2,13.1,4
			c8.5,3.5,16.3,8.7,22.8,15.2c6.5,6.5,11.7,14.3,15.2,22.8c1.8,4.2,3.1,8.6,4,13.1c0.9,4.5,1.3,9.1,1.3,13.7
			c0,4.6-0.4,9.2-1.3,13.7c-0.9,4.5-2.2,8.9-4,13.1c-3.5,8.5-8.7,16.3-15.2,22.8c-6.5,6.5-14.3,11.7-22.8,15.2
			c-4.2,1.8-8.6,3.1-13.1,4c-4.5,0.9-9.1,1.3-13.7,1.3c-4.6,0-9.2-0.4-13.7-1.3c-4.5-0.9-8.9-2.2-13.1-4
			c-8.5-3.5-16.3-8.7-22.8-15.2l-1.9,1.9c6.7,6.8,14.8,12.2,23.6,15.8c4.4,1.8,9,3.2,13.7,4.1c4.7,0.9,9.4,1.4,14.2,1.4
			c4.8,0,9.6-0.5,14.2-1.4c4.7-0.9,9.3-2.3,13.7-4.1c8.8-3.6,16.9-9.1,23.6-15.8c6.8-6.7,12.2-14.8,15.8-23.6
			c1.8-4.4,3.2-9,4.1-13.7c0.9-4.7,1.4-9.4,1.4-14.2c0-4.8-0.5-9.6-1.4-14.2c-0.9-4.7-2.3-9.3-4.1-13.7c-3.6-8.8-9.1-16.9-15.8-23.6
			c-6.7-6.8-14.8-12.2-23.6-15.8c-4.4-1.8-9-3.2-13.7-4.1c-4.7-0.9-9.4-1.4-14.2-1.4c-4.8,0-9.6,0.5-14.2,1.4
			c-4.7,0.9-9.3,2.3-13.7,4.1c-8.8,3.6-16.9,9.1-23.6,15.8l1.9,1.9C56.9,43.9,64.7,38.7,73.2,35.2z"/>
		<path class="st2" d="M33.2,33.2l0.1,0.1L33.2,33.2c-8.7,8.7-15.8,19.2-20.5,30.6l2.5,1c1.5-3.7,3.3-7.3,5.3-10.8l7,4.1
			c-0.9,1.6-1.8,3.2-2.6,4.8l-2.4-1.2c0.4-0.8,0.8-1.7,1.3-2.5L21.4,58c-0.9,1.7-1.8,3.5-2.6,5.2l7.4,3.4c1.5-3.2,3.1-6.3,5-9.3
			L22,51.5c3.2-5.1,6.9-9.9,11-14.3l9.9,9.2c-2.3,2.5-4.5,5.1-6.5,7.9l-6.6-4.7c1.1-1.5,2.2-3,3.4-4.5l2.1,1.7
			c-0.6,0.7-1.1,1.4-1.7,2.1l2.1,1.6c1.1-1.4,2.2-2.8,3.4-4.1L33,41.3c-2.6,2.9-4.9,6-7.1,9.2l9,6c-2.9,4.3-5.3,8.8-7.2,13.5l2.5,1
			c3.8-9.1,9.4-17.5,16.4-24.5c7-7,15.4-12.6,24.5-16.4l-0.2-0.6l0.2,0.6c4.6-1.9,9.3-3.3,14.2-4.3c4.8-1,9.8-1.4,14.8-1.4
			c5,0,9.9,0.5,14.8,1.4c4.8,1,9.6,2.4,14.2,4.3c9.1,3.8,17.5,9.4,24.5,16.4c7,7,12.6,15.4,16.4,24.5c1.9,4.6,3.3,9.3,4.3,14.2
			c1,4.8,1.4,9.8,1.4,14.8c0,5-0.5,9.9-1.4,14.8c-1,4.8-2.4,9.6-4.3,14.2l17.5,7.3c2.4-5.7,4.2-11.7,5.4-17.7
			c1.2-6.1,1.8-12.3,1.8-18.4c0-6.2-0.6-12.4-1.8-18.4c-1.2-6.1-3-12-5.4-17.7c-4.7-11.4-11.8-21.9-20.5-30.6l-1.9,1.9
			c2.8,2.8,5.5,5.8,7.9,9l-6.4,4.9c-1.1-1.4-2.3-2.9-3.5-4.2l2-1.8c0.6,0.7,1.2,1.4,1.8,2.2l2.1-1.7c-1.2-1.5-2.5-3-3.8-4.4
			l-5.9,5.5c2.4,2.6,4.7,5.3,6.7,8.2l8.8-6.3c3.5,4.9,6.5,10.1,9,15.6l-12.3,5.6c-1.4-3.1-3-6.1-4.8-9l6.9-4.3
			c1,1.6,1.9,3.2,2.8,4.9l-2.4,1.3c-0.4-0.8-0.9-1.6-1.3-2.4l-2.3,1.4c0.9,1.5,1.7,3.1,2.5,4.7l7.3-3.6c-1.7-3.5-3.7-6.9-5.8-10.1
			l-9,6c-2.9-4.3-6.1-8.2-9.7-11.9l11.5-11.5c-8.7-8.7-19.2-15.8-30.6-20.5l-1,2.5c3.7,1.5,7.3,3.3,10.8,5.3l-4.1,7
			c-1.6-0.9-3.2-1.8-4.8-2.6l1.2-2.4c0.8,0.4,1.7,0.8,2.5,1.3l1.3-2.4c-1.7-0.9-3.5-1.8-5.2-2.6l-3.4,7.4c3.2,1.5,6.3,3.1,9.3,5
			l5.7-9.2c5.1,3.2,9.9,6.9,14.3,11l-9.2,9.9c-2.5-2.3-5.1-4.5-7.9-6.5l4.7-6.6c1.5,1.1,3,2.2,4.5,3.4l-1.7,2.1
			c-0.7-0.6-1.4-1.1-2.1-1.7l-1.6,2.1c1.4,1.1,2.8,2.2,4.1,3.4l5.4-6.1c-2.9-2.6-6-4.9-9.2-7.1l-6,9c-4.3-2.9-8.8-5.3-13.5-7.2
			l6.2-15c-5.7-2.4-11.7-4.2-17.7-5.4c-6.1-1.2-12.3-1.8-18.4-1.8c-6.2,0-12.4,0.6-18.4,1.8c-6.1,1.2-12,3-17.7,5.4l0.1,0.2
			l-0.1-0.2C52.4,17.4,41.9,24.4,33.2,33.2z M191,112l-8-1.1c0.2-1.8,0.4-3.6,0.5-5.5l2.7,0.2c-0.1,0.9-0.1,1.9-0.2,2.8l2.7,0.3
			c0.2-1.9,0.3-3.9,0.4-5.8l-8.1-0.3c-0.1,3.5-0.5,7.1-1,10.5l10.7,1.8c-1,5.9-2.5,11.8-4.7,17.4l-12.7-4.8c1.2-3.2,2.2-6.5,3-9.8
			l7.9,1.8c-0.4,1.8-0.9,3.7-1.5,5.5l-2.6-0.8c0.3-0.9,0.5-1.8,0.8-2.6l-2.6-0.7c-0.5,1.7-1,3.4-1.5,5.1l7.7,2.6
			c1.2-3.7,2.3-7.4,3-11.3l-10.6-2.1c1-5,1.5-10.1,1.5-15.3h13.5C191.8,104,191.5,108,191,112z M184.8,64.9
			c1.5,3.7,2.8,7.5,3.9,11.4l-7.8,2.1c-0.5-1.8-1-3.5-1.6-5.2l2.6-0.9c0.3,0.9,0.6,1.8,0.9,2.7l2.6-0.8c-0.6-1.9-1.2-3.7-1.9-5.5
			l-7.6,2.9c1.2,3.3,2.3,6.7,3.1,10.1l10.5-2.4c1.4,5.9,2.1,11.8,2.3,17.8l-13.5,0.4c-0.1-3.4-0.4-6.8-1-10.2l8-1.3
			c0.3,1.9,0.5,3.7,0.7,5.6l-2.7,0.3c-0.1-0.9-0.2-1.8-0.3-2.7l-2.7,0.4c0.2,1.8,0.4,3.5,0.5,5.3l8.1-0.5c-0.2-3.9-0.8-7.7-1.5-11.6
			l-10.6,2.1c-1-5-2.5-9.9-4.4-14.7L184.8,64.9z M100,8.2c4,0,8,0.3,12,0.8l-1.1,8c-1.8-0.2-3.6-0.4-5.4-0.5l0.2-2.7
			c0.9,0.1,1.9,0.1,2.8,0.2l0.3-2.7c-1.9-0.2-3.9-0.3-5.8-0.4l-0.3,8.1c3.5,0.1,7.1,0.5,10.5,1l1.8-10.7c5.9,1,11.8,2.5,17.4,4.6
			l-4.8,12.7c-3.2-1.2-6.5-2.2-9.8-3l1.8-7.9c1.8,0.4,3.7,0.9,5.5,1.5l-0.8,2.6c-0.9-0.3-1.8-0.5-2.6-0.8l-0.7,2.6
			c1.7,0.5,3.4,1,5.1,1.5l2.6-7.7c-3.7-1.2-7.4-2.3-11.3-3l-2.1,10.6c-5-1-10.1-1.5-15.3-1.5V8.2z M58.7,33.5l-4.3-6.9
			c1.6-1,3.2-1.9,4.9-2.8l1.3,2.4c-0.8,0.4-1.6,0.9-2.4,1.3l1.4,2.3c1.5-0.9,3.1-1.7,4.7-2.5l-3.6-7.3c-3.5,1.7-6.9,3.7-10.1,5.8
			l6,9c-4.3,2.8-8.2,6.1-11.9,9.7l-9.6-9.6c2.8-2.8,5.8-5.5,9-7.9l4.9,6.4c-1.4,1.1-2.9,2.3-4.2,3.5l-1.8-2c0.7-0.6,1.4-1.2,2.2-1.8
			l-1.7-2.1c-1.5,1.2-3,2.5-4.4,3.8l5.5,5.9c2.6-2.4,5.3-4.7,8.2-6.7l-6.3-8.8c4.9-3.5,10.1-6.5,15.6-9l5.6,12.3
			C64.6,30.1,61.6,31.7,58.7,33.5z M76.2,11.3l2.1,7.8c-1.8,0.5-3.5,1-5.2,1.6l-0.9-2.6c0.9-0.3,1.8-0.6,2.7-0.9l-0.8-2.6
			c-1.9,0.6-3.7,1.2-5.5,1.9l2.9,7.6c3.3-1.2,6.7-2.3,10.1-3.1l-2.4-10.5C85,9.2,91,8.5,97,8.3l0.4,13.5c-3.4,0.1-6.8,0.4-10.2,1
			l-1.3-8c1.9-0.3,3.7-0.5,5.6-0.7l0.3,2.7c-0.9,0.1-1.8,0.2-2.7,0.3l0.4,2.7c1.8-0.2,3.5-0.4,5.3-0.5l-0.5-8.1
			c-3.9,0.2-7.7,0.8-11.6,1.5l2.1,10.6c-5,1-9.9,2.5-14.7,4.4l-5.2-12.5C68.6,13.6,72.4,12.4,76.2,11.3z"/>
		<path class="st2" d="M62.8,10.2l-1-2.5c-12.1,5-23.2,12.4-32.4,21.7l1.9,1.9C40.3,22.3,51,15.1,62.8,10.2z"/>
		<path class="st2" d="M138.2,7.7c-6-2.5-12.3-4.4-18.8-5.7c-6.4-1.3-13-1.9-19.5-1.9c-6.5,0-13.1,0.6-19.5,1.9
			c-6.4,1.3-12.7,3.2-18.8,5.7l1,2.5c5.9-2.4,12-4.3,18.3-5.5c6.2-1.2,12.6-1.8,19-1.8c6.3,0,12.7,0.6,19,1.8
			c6.2,1.2,12.4,3.1,18.3,5.5c11.8,4.9,22.5,12.1,31.5,21.1l1.9-1.9C161.4,20.1,150.3,12.7,138.2,7.7z"/>
		<path class="st2" d="M198,80.5c-1.3-6.4-3.2-12.7-5.7-18.8c-5-12.1-12.4-23.2-21.7-32.4l-1.9,1.9c9,9,16.2,19.8,21.1,31.5
			c2.4,5.9,4.3,12,5.5,18.3c1.2,6.2,1.9,12.6,1.9,19c0,6.3-0.6,12.7-1.9,19c-1.2,6.2-3.1,12.4-5.5,18.3
			c-4.9,11.8-12.1,22.5-21.1,31.5c-9,9-19.8,16.2-31.5,21.1c-5.9,2.4-12,4.3-18.3,5.5c-6.2,1.2-12.6,1.8-19,1.8
			c-6.3,0-12.7-0.6-19-1.8c-6.2-1.2-12.4-3.1-18.3-5.5l-1,2.5c6,2.5,12.3,4.4,18.8,5.7c6.4,1.3,13,1.9,19.5,1.9
			c6.5,0,13.1-0.6,19.5-1.9c6.4-1.3,12.7-3.2,18.8-5.7c12.1-5,23.2-12.4,32.4-21.7c9.2-9.2,16.7-20.3,21.7-32.4
			c2.5-6,4.4-12.3,5.7-18.8c1.3-6.4,1.9-13,1.9-19.5C199.9,93.5,199.3,86.9,198,80.5z"/>
	</g>
	<circle class="st3" cx="100" cy="100" r="85.2"/>
</g>
<g id="Layer_2_copy">
	<g>
		<path class="st4" d="M12.6,82.6c0.8-3.8,1.8-7.6,3-11.3l3.7,1.3c0.3-0.9,0.6-1.8,0.9-2.6l-6.2-2.3c-2.1,5.6-3.7,11.5-4.6,17.4
			l6.5,1.1c0.2-0.9,0.3-1.8,0.5-2.7L12.6,82.6z"/>
		<path class="st4" d="M17.3,74.9c-0.5,1.8-1,3.6-1.5,5.5l1.2,0.3c0.4-1.8,0.9-3.6,1.4-5.4L17.3,74.9z"/>
		<path class="st4" d="M170.2,150.3l-1-0.7c-1.1,1.5-2.2,3-3.4,4.4l0.9,0.8C168,153.3,169.1,151.8,170.2,150.3z"/>
		<path class="st4" d="M149.5,174.1c-3.2,2.2-6.6,4.1-10.1,5.8l-1.7-3.5c-0.8,0.4-1.7,0.8-2.5,1.2l2.7,6c5.5-2.5,10.7-5.5,15.6-9
			l-3.9-5.4c-0.8,0.5-1.5,1.1-2.3,1.6L149.5,174.1z"/>
		<path class="st4" d="M25.9,50.5c2.2-3.2,4.5-6.3,7.1-9.2l2.9,2.6c0.6-0.7,1.2-1.4,1.9-2.1L33,37.3c-4.1,4.4-7.8,9.2-11,14.3
			l5.6,3.5c0.5-0.8,1-1.6,1.5-2.3L25.9,50.5z"/>
		<path class="st4" d="M50.5,25.9c3.2-2.2,6.6-4.1,10.1-5.8l1.7,3.5c0.8-0.4,1.7-0.8,2.5-1.2l-2.7-6c-5.5,2.5-10.7,5.5-15.6,9
			l3.9,5.4c0.8-0.5,1.5-1.1,2.3-1.6L50.5,25.9z"/>
		<path class="st4" d="M174.1,149.5c-2.2,3.2-4.5,6.3-7.1,9.2l-3-2.6c-0.6,0.7-1.2,1.4-1.9,2.1l4.8,4.5c4.1-4.4,7.8-9.2,11-14.3
			l-5.6-3.5c-0.5,0.8-1,1.6-1.5,2.3L174.1,149.5z"/>
		<path class="st4" d="M41.8,37.8L39.1,35c1.4-1.3,2.9-2.6,4.4-3.8l1.7,2.1c-0.7,0.6-1.4,1.2-2.2,1.8l0.8,0.9
			c1.4-1.2,2.8-2.4,4.3-3.5l-4-5.3c-3.2,2.4-6.2,5.1-9,7.9l4.7,4.7C40.4,39.1,41.1,38.5,41.8,37.8z"/>
		<path class="st4" d="M51.5,178l3.5-5.6c-0.8-0.5-1.6-1-2.3-1.5l-2.2,3.2c-3.2-2.2-6.3-4.5-9.2-7.1l2.6-3c-0.7-0.6-1.4-1.2-2.1-1.9
			l-4.5,4.8C41.6,171.1,46.4,174.8,51.5,178z"/>
		<path class="st4" d="M12.6,117.4c-0.8-3.8-1.3-7.7-1.5-11.6l3.9-0.3c-0.1-0.9-0.1-1.9-0.1-2.8L8.3,103c0.2,6,1,12,2.3,17.8
			l6.5-1.5c-0.2-0.9-0.4-1.8-0.6-2.7L12.6,117.4z"/>
		<path class="st4" d="M23.8,140.7c0.9,1.7,1.8,3.3,2.8,4.9l1-0.6c-1-1.6-1.9-3.2-2.8-4.8L23.8,140.7z"/>
		<path class="st4" d="M145.6,173.4l-0.6-1c-1.6,1-3.2,1.9-4.8,2.8l0.6,1.1C142.4,175.3,144,174.4,145.6,173.4z"/>
		<path class="st4" d="M14.8,114.1l1.2-0.2c-0.3-1.8-0.5-3.7-0.7-5.5l-1.2,0.1C14.2,110.3,14.5,112.2,14.8,114.1z"/>
		<path class="st4" d="M114.1,185.2l-0.2-1.2c-1.8,0.3-3.7,0.5-5.5,0.7l0.1,1.2C110.3,185.8,112.2,185.5,114.1,185.2z"/>
		<path class="st4" d="M185.2,100h6.6c0,0,0,0,0,0L185.2,100C185.2,100,185.2,100,185.2,100C185.2,100,185.2,100,185.2,100z"/>
		<path class="st4" d="M148.5,22l-3.5,5.6c0.8,0.5,1.6,1,2.3,1.5l2.2-3.2c3.2,2.2,6.3,4.5,9.2,7.1l-2.6,3c0.7,0.6,1.4,1.2,2.1,1.9
			l4.5-4.8C158.4,28.9,153.6,25.2,148.5,22z"/>
		<path class="st4" d="M154.8,33.2c-1.5-1.2-3-2.3-4.5-3.4l-0.7,1c1.5,1.1,3,2.2,4.4,3.4L154.8,33.2z"/>
		<path class="st4" d="M162.2,41.8l2.9-2.7c1.3,1.4,2.6,2.9,3.8,4.4l-2.1,1.7c-0.6-0.7-1.2-1.4-1.8-2.2l-0.9,0.8
			c1.2,1.4,2.4,2.8,3.5,4.3l5.3-4c-2.4-3.2-5.1-6.2-7.9-9l1.9-1.9l-6.6,6.6C160.9,40.4,161.5,41.1,162.2,41.8z"/>
		<path class="st4" d="M185.1,102.8l3.9,0.1c-0.1,1.9-0.2,3.9-0.4,5.8l-2.7-0.3c0.1-0.9,0.2-1.9,0.2-2.8l-1.2-0.1
			c-0.1,1.9-0.3,3.7-0.5,5.5l6.6,0.9c0.5-4,0.8-8,0.8-12h-6.6C185.2,101,185.1,101.9,185.1,102.8z"/>
		<path class="st4" d="M186,91.5c-0.2-1.9-0.4-3.7-0.7-5.6l-1.2,0.2c0.3,1.8,0.5,3.7,0.7,5.5L186,91.5z"/>
		<path class="st4" d="M176.2,59.3c-0.9-1.7-1.8-3.3-2.8-4.9l-1,0.6c1,1.6,1.9,3.2,2.8,4.8L176.2,59.3z"/>
		<path class="st4" d="M187.4,82.6c0.8,3.8,1.3,7.7,1.5,11.6l-3.9,0.3c0.1,0.9,0.1,1.9,0.1,2.8l6.6-0.2c-0.2-6-1-12-2.3-17.8
			l-6.5,1.5c0.2,0.9,0.4,1.8,0.6,2.7L187.4,82.6z"/>
		<path class="st4" d="M174.1,50.5c2.2,3.2,4.1,6.6,5.8,10.1l-3.5,1.7c0.4,0.8,0.8,1.7,1.2,2.5l6-2.7c-2.5-5.5-5.5-10.7-9-15.6
			l-5.4,3.9c0.5,0.8,1.1,1.5,1.6,2.3L174.1,50.5z"/>
		<path class="st4" d="M82.6,12.6c3.8-0.8,7.7-1.3,11.6-1.5l0.3,3.9c0.9-0.1,1.9-0.1,2.8-0.1L97,8.3c-6,0.2-12,1-17.8,2.3l1.5,6.5
			c0.9-0.2,1.8-0.4,2.7-0.6L82.6,12.6z"/>
		<path class="st4" d="M136.8,18.8c1.8,0.8,3.5,1.7,5.2,2.6l-1.3,2.4c-0.8-0.4-1.7-0.9-2.5-1.3l-0.5,1.1c1.7,0.8,3.3,1.7,4.9,2.6
			l3.3-5.7c-3.5-2-7.1-3.8-10.8-5.3l1-2.5l-3.6,8.6c0.9,0.4,1.7,0.7,2.6,1.1L136.8,18.8z"/>
		<path class="st4" d="M45.2,166.8c1.5,1.2,3,2.3,4.5,3.4l0.7-1c-1.5-1.1-3-2.2-4.4-3.4L45.2,166.8z"/>
		<path class="st4" d="M183.4,68.6c0.7,1.8,1.3,3.7,1.9,5.5l-2.6,0.8c-0.3-0.9-0.6-1.8-0.9-2.7l-1.2,0.4c0.6,1.8,1.1,3.5,1.6,5.3
			l6.4-1.7c-1-3.9-2.3-7.7-3.9-11.4l-6.1,2.5c0.4,0.9,0.7,1.7,1,2.6L183.4,68.6z"/>
		<path class="st4" d="M100,14.8V8.2c0,0,0,0,0,0L100,14.8C100,14.8,100,14.8,100,14.8C100,14.8,100,14.8,100,14.8z"/>
		<path class="st4" d="M117.4,12.6c3.8,0.8,7.6,1.8,11.3,3l-1.3,3.7c0.9,0.3,1.8,0.6,2.6,0.9l2.3-6.2c-5.6-2.1-11.5-3.7-17.4-4.6
			l-1.1,6.5c0.9,0.2,1.8,0.3,2.7,0.5L117.4,12.6z"/>
		<path class="st4" d="M102.8,14.9l0.1-3.9c1.9,0.1,3.9,0.2,5.8,0.4l-0.3,2.7c-0.9-0.1-1.9-0.2-2.8-0.2l-0.1,1.2
			c1.9,0.1,3.7,0.3,5.5,0.5L112,9c-4-0.5-8-0.8-11.9-0.8v6.6C101,14.8,101.9,14.9,102.8,14.9z"/>
		<path class="st4" d="M187.4,117.4c-0.8,3.8-1.8,7.6-3,11.3l-3.7-1.3c-0.3,0.9-0.6,1.8-0.9,2.6l6.2,2.3c2.1-5.6,3.7-11.5,4.7-17.4
			l-6.5-1.1c-0.2,0.9-0.3,1.8-0.5,2.7L187.4,117.4z"/>
		<path class="st4" d="M184.1,119.6l-1.2-0.3c-0.4,1.8-0.9,3.6-1.4,5.4l1.2,0.4C183.2,123.3,183.7,121.5,184.1,119.6z"/>
		<path class="st4" d="M119.6,15.9l-0.3,1.2c1.8,0.4,3.6,0.9,5.4,1.4l0.4-1.2C123.3,16.8,121.5,16.3,119.6,15.9z"/>
		<path class="st4" d="M158.2,162.2l2.7,2.9c-1.4,1.3-2.9,2.6-4.4,3.8l-1.7-2.1c0.7-0.6,1.4-1.2,2.2-1.8l-0.8-0.9
			c-1.4,1.2-2.8,2.4-4.3,3.5l4,5.3c3.2-2.4,6.2-5.1,9-7.9l1.9,1.9l-6.6-6.6C159.6,160.9,158.9,161.5,158.2,162.2z"/>
		<path class="st4" d="M82.6,187.4c-3.8-0.8-7.6-1.8-11.3-3l1.3-3.7c-0.9-0.3-1.8-0.6-2.6-0.9l-2.3,6.2c5.6,2.1,11.5,3.7,17.4,4.7
			l1.1-6.5c-0.9-0.2-1.8-0.3-2.7-0.5L82.6,187.4z"/>
		<path class="st4" d="M137.2,189.8c11.8-4.9,22.5-12.1,31.5-21.1c9-9,16.2-19.8,21.1-31.5c2.4-5.9,4.3-12,5.5-18.3
			c1.2-6.2,1.8-12.6,1.9-18.9h-2.7c0,6.2-0.6,12.3-1.8,18.4c-1.2,6.1-3,12-5.4,17.7c-4.7,11.4-11.8,21.9-20.5,30.6
			c-8.7,8.7-19.2,15.8-30.6,20.5c-5.7,2.4-11.7,4.2-17.7,5.4c-6.1,1.2-12.2,1.8-18.4,1.8v2.7c6.3,0,12.7-0.6,18.9-1.8
			C125.2,194.1,131.3,192.3,137.2,189.8z"/>
		<path class="st4" d="M74.9,182.7c1.8,0.5,3.6,1,5.5,1.5l0.3-1.2c-1.8-0.4-3.6-0.9-5.4-1.4L74.9,182.7z"/>
		<path class="st4" d="M130,179.7l1.4,3.7c-1.8,0.7-3.7,1.3-5.5,1.9l-0.8-2.6c0.9-0.3,1.8-0.6,2.7-0.9l-0.4-1.2
			c-1.8,0.6-3.5,1.1-5.3,1.6l1.7,6.4c3.9-1,7.7-2.3,11.4-3.9l1,2.5l-3.6-8.6C131.7,179.1,130.9,179.4,130,179.7z"/>
		<path class="st4" d="M117.4,187.4c-3.8,0.8-7.7,1.3-11.6,1.5l-0.3-3.9c-0.9,0.1-1.9,0.1-2.8,0.1l0.2,6.6c6-0.2,12-1,17.8-2.3
			l-1.5-6.5c-0.9,0.2-1.8,0.4-2.7,0.6L117.4,187.4z"/>
		<path class="st4" d="M177.6,135.2l3.6,1.6c-0.8,1.8-1.7,3.5-2.6,5.2l-2.4-1.3c0.4-0.8,0.9-1.7,1.3-2.5l-1.1-0.5
			c-0.8,1.7-1.7,3.3-2.6,4.9l5.7,3.3c2-3.5,3.8-7.1,5.3-10.8l2.5,1l-8.6-3.6C178.3,133.5,178,134.3,177.6,135.2z"/>
		<path class="st4" d="M136.2,12.7c11.4,4.7,21.9,11.8,30.6,20.5c8.7,8.7,15.8,19.2,20.5,30.6c2.4,5.7,4.2,11.7,5.4,17.7
			c1.2,6.1,1.8,12.3,1.8,18.4c0,0,0,0,0,0h2.7c0,0,0,0,0,0c0-6.3-0.6-12.7-1.9-19c-1.2-6.2-3.1-12.4-5.5-18.3
			c-4.9-11.8-12.1-22.5-21.1-31.5c-9-9-19.8-16.2-31.5-21.1c-5.9-2.4-12-4.3-18.3-5.5c-6.2-1.2-12.6-1.8-18.9-1.8v2.7
			c6.2,0,12.3,0.6,18.4,1.8C124.5,8.5,130.5,10.3,136.2,12.7z"/>
		<path class="st4" d="M25.9,149.5c-2.2-3.2-4.1-6.6-5.8-10.1l3.5-1.7c-0.4-0.8-0.8-1.7-1.2-2.5l-6,2.7c2.5,5.5,5.5,10.7,9,15.6
			l5.4-3.9c-0.5-0.8-1.1-1.5-1.6-2.3L25.9,149.5z"/>
		<path class="st5" d="M179.5,145.9l-5.7-3.3c-0.5,0.8-0.9,1.6-1.4,2.4l5.6,3.5c-3.2,5.1-6.9,9.9-11,14.3l-4.8-4.5
			c-0.6,0.7-1.3,1.4-1.9,2l6.6,6.6c8.7-8.7,15.8-19.2,20.5-30.6l-2.5-1C183.3,138.8,181.5,142.4,179.5,145.9z"/>
		<path class="st5" d="M177.5,138.2c-0.4,0.8-0.8,1.7-1.3,2.5l2.4,1.3c0.9-1.7,1.8-3.5,2.6-5.2l-3.6-1.6c-0.4,0.8-0.8,1.7-1.2,2.5
			L177.5,138.2z"/>
		<path class="st5" d="M170.2,150.3c-1.1,1.5-2.2,3-3.4,4.5l-0.9-0.8c-0.6,0.7-1.2,1.4-1.8,2.1l3,2.6c2.6-2.9,4.9-6,7.1-9.2
			l-3.2-2.2c-0.5,0.8-1.1,1.5-1.6,2.3L170.2,150.3z"/>
		<path class="st5" d="M157,164.9c-0.7,0.6-1.4,1.2-2.2,1.8l1.7,2.1c1.5-1.2,3-2.5,4.4-3.8l-2.7-2.9c-0.7,0.6-1.4,1.3-2.1,1.9
			L157,164.9z"/>
		<path class="st5" d="M145.6,173.4c-1.6,1-3.2,1.9-4.9,2.8l-0.6-1.1c-0.8,0.4-1.6,0.9-2.5,1.3l1.7,3.5c3.5-1.7,6.9-3.7,10.1-5.8
			l-2.2-3.2c-0.8,0.5-1.6,1-2.3,1.5L145.6,173.4z"/>
		<path class="st5" d="M155.9,172.8l-4-5.3c-0.7,0.6-1.5,1.1-2.2,1.7l3.9,5.4c-4.9,3.5-10.1,6.5-15.6,9l-2.7-6
			c-0.8,0.4-1.7,0.8-2.6,1.1l3.6,8.6c11.4-4.7,21.9-11.8,30.6-20.5l-1.9-1.9C162.1,167.7,159.1,170.4,155.9,172.8z"/>
		<path class="st5" d="M100,185.2C100,185.2,100,185.2,100,185.2l0,6.6c-4,0-8-0.3-12-0.8l0.9-6.6c-0.9-0.1-1.8-0.2-2.8-0.4
			l-1.1,6.5c-5.9-1-11.8-2.5-17.4-4.7l2.3-6.2c-0.9-0.3-1.7-0.7-2.6-1l-3.6,8.6c5.7,2.4,11.7,4.2,17.7,5.4
			c6.1,1.2,12.3,1.8,18.4,1.8c0,0,0,0,0,0L100,185.2C100,185.2,100,185.2,100,185.2z"/>
		<path class="st5" d="M14.8,100C14.8,100,14.8,100,14.8,100l-6.6,0c0-4,0.3-8,0.8-12l6.6,0.9c0.1-0.9,0.2-1.8,0.4-2.8l-6.5-1.1
			c1-5.9,2.5-11.8,4.6-17.4l6.2,2.3c0.3-0.9,0.7-1.7,1-2.6l-8.6-3.6c-2.4,5.7-4.2,11.7-5.4,17.7C6.1,87.6,5.5,93.8,5.5,100
			c0,0,0,0,0,0L14.8,100C14.8,100,14.8,100,14.8,100z"/>
		<path class="st5" d="M136.2,187.3l-1-2.5c-3.7,1.5-7.5,2.8-11.4,3.9l-1.7-6.4c-0.9,0.2-1.8,0.5-2.7,0.7l1.5,6.5
			c-5.9,1.4-11.8,2.1-17.8,2.3l-0.2-6.6c-0.9,0-1.8,0.1-2.8,0.1v9.3c6.2,0,12.3-0.6,18.4-1.8C124.5,191.5,130.5,189.7,136.2,187.3z"
			/>
		<path class="st5" d="M51.5,178c-5.1-3.2-9.9-6.9-14.3-11l4.5-4.8c-0.7-0.6-1.4-1.3-2-1.9l-4.7,4.7c-2.8-2.8-5.5-5.8-7.9-9l5.3-4
			c-0.6-0.7-1.1-1.5-1.7-2.2l-5.4,3.9c-3.5-4.9-6.5-10.1-9-15.6l6-2.7c-0.4-0.8-0.8-1.7-1.1-2.6l-6.1,2.5c-1.5-3.7-2.8-7.5-3.9-11.4
			l6.4-1.7c-0.2-0.9-0.5-1.8-0.7-2.7l-6.5,1.5C9.2,115,8.5,109,8.3,103l6.6-0.2c0-0.9-0.1-1.8-0.1-2.8H5.5c0,6.2,0.6,12.3,1.8,18.4
			c1.2,6.1,3,12,5.4,17.7c4.7,11.4,11.8,21.9,20.5,30.6l0.6-0.6l-0.6,0.6c8.7,8.7,19.2,15.8,30.6,20.5l1-2.5
			c-3.7-1.5-7.3-3.3-10.8-5.3l3.3-5.7c-0.8-0.5-1.6-0.9-2.4-1.4L51.5,178z"/>
		<path class="st5" d="M61.8,177.5c-0.8-0.4-1.7-0.8-2.5-1.3l-1.3,2.4c1.7,0.9,3.5,1.8,5.2,2.6l1.6-3.6c-0.8-0.4-1.7-0.8-2.5-1.2
			L61.8,177.5z"/>
		<path class="st5" d="M18.2,127.8c-0.3-0.9-0.6-1.8-0.9-2.7l-2.6,0.8c0.6,1.9,1.2,3.7,1.9,5.5l3.7-1.4c-0.3-0.9-0.6-1.7-0.9-2.6
			L18.2,127.8z"/>
		<path class="st5" d="M14.8,114.1c-0.3-1.9-0.5-3.7-0.7-5.6l1.2-0.1c-0.1-0.9-0.2-1.9-0.2-2.8l-3.9,0.3c0.2,3.9,0.8,7.7,1.5,11.6
			l3.8-0.8c-0.2-0.9-0.3-1.8-0.5-2.7L14.8,114.1z"/>
		<path class="st5" d="M114.1,185.2c-1.9,0.3-3.7,0.5-5.6,0.7l-0.1-1.2c-0.9,0.1-1.9,0.2-2.8,0.2l0.3,3.9c3.9-0.2,7.7-0.8,11.6-1.5
			l-0.8-3.8c-0.9,0.2-1.8,0.3-2.7,0.5L114.1,185.2z"/>
		<path class="st5" d="M127.8,181.8c-0.9,0.3-1.8,0.6-2.7,0.9l0.8,2.6c1.9-0.6,3.7-1.2,5.5-1.9l-1.4-3.7c-0.9,0.3-1.7,0.6-2.6,0.9
			L127.8,181.8z"/>
		<path class="st5" d="M45.2,166.8l0.8-0.9c-0.7-0.6-1.4-1.2-2.1-1.8l-2.6,3c2.9,2.6,6,4.9,9.2,7.1l2.2-3.2
			c-0.8-0.5-1.5-1.1-2.3-1.6l-0.7,1C48.2,169.1,46.7,168,45.2,166.8z"/>
		<path class="st5" d="M94.4,186.2c-0.9-0.1-1.9-0.1-2.8-0.2l-0.3,2.7c1.9,0.2,3.9,0.3,5.8,0.4l0.1-3.9c-0.9,0-1.9-0.1-2.8-0.1
			L94.4,186.2z"/>
		<path class="st5" d="M23.8,140.7l1.1-0.6c-0.4-0.8-0.9-1.6-1.3-2.5l-3.5,1.7c1.7,3.5,3.7,6.9,5.8,10.1l3.2-2.2
			c-0.5-0.8-1-1.6-1.5-2.3l-1,0.6C25.6,144,24.7,142.4,23.8,140.7z"/>
		<path class="st5" d="M74.9,182.7l0.4-1.2c-0.9-0.3-1.8-0.6-2.7-0.9l-1.3,3.7c3.7,1.2,7.4,2.3,11.3,3l0.8-3.8
			c-0.9-0.2-1.8-0.4-2.7-0.6l-0.3,1.2C78.5,183.7,76.7,183.2,74.9,182.7z"/>
		<path class="st5" d="M13.8,94.4c0.1-0.9,0.1-1.9,0.2-2.8l-2.7-0.3c-0.2,1.9-0.3,3.9-0.4,5.8l3.9,0.1c0-0.9,0.1-1.9,0.1-2.8
			L13.8,94.4z"/>
		<path class="st5" d="M35.1,157c-0.6-0.7-1.2-1.4-1.8-2.2l-2.1,1.7c1.2,1.5,2.5,3,3.8,4.4l2.9-2.7c-0.6-0.7-1.3-1.4-1.9-2.1
			L35.1,157z"/>
		<path class="st5" d="M17.3,74.9l1.2,0.4c0.3-0.9,0.6-1.8,0.9-2.7l-3.7-1.3c-1.2,3.7-2.3,7.4-3,11.3l3.8,0.8
			c0.2-0.9,0.4-1.8,0.6-2.7l-1.2-0.3C16.3,78.5,16.8,76.7,17.3,74.9z"/>
		<path class="st5" d="M4.7,81c1.2-6.2,3.1-12.4,5.5-18.3C15.1,51,22.3,40.3,31.3,31.3l-1.9-1.9c-9.2,9.2-16.7,20.3-21.7,32.4h0
			c-2.5,6-4.4,12.3-5.7,18.8c-1.3,6.4-1.9,13-1.9,19.5c0,0,0,0,0,0h2.7c0,0,0,0,0,0C2.8,93.7,3.4,87.3,4.7,81z"/>
		<path class="st5" d="M2,119.5c1.3,6.4,3.2,12.7,5.7,18.8h0c5,12.1,12.4,23.2,21.7,32.4l0.4-0.4l-0.4,0.4
			c9.2,9.2,20.3,16.7,32.4,21.7l1-2.5c-11.8-4.9-22.5-12.1-31.5-21.1l0,0c-9-9-16.2-19.8-21.1-31.5c-2.4-5.9-4.3-12-5.5-18.3
			c-1.2-6.2-1.8-12.6-1.8-18.9H0.1C0.1,106.5,0.7,113.1,2,119.5z"/>
		<path class="st5" d="M181.8,72.2c0.3,0.9,0.6,1.8,0.9,2.7l2.6-0.8c-0.6-1.9-1.2-3.7-1.9-5.5l-3.7,1.4c0.3,0.9,0.6,1.7,0.9,2.6
			L181.8,72.2z"/>
		<path class="st5" d="M184.1,119.6c-0.4,1.8-0.9,3.7-1.5,5.5l-1.2-0.4c-0.3,0.9-0.6,1.8-0.9,2.7l3.7,1.3c1.2-3.7,2.3-7.4,3-11.3
			l-3.8-0.8c-0.2,0.9-0.4,1.8-0.6,2.7L184.1,119.6z"/>
		<path class="st5" d="M186.2,105.6c-0.1,0.9-0.1,1.9-0.2,2.8l2.7,0.3c0.2-1.9,0.3-3.9,0.4-5.8l-3.9-0.1c0,0.9-0.1,1.9-0.1,2.8
			L186.2,105.6z"/>
		<path class="st5" d="M20.5,54.1l5.7,3.3c0.5-0.8,0.9-1.6,1.4-2.4L22,51.5c3.2-5.1,6.9-9.9,11-14.3l4.8,4.5c0.6-0.7,1.3-1.4,1.9-2
			l-4.7-4.7c2.8-2.8,5.8-5.5,9-7.9l4,5.3c0.7-0.6,1.5-1.1,2.2-1.7l-3.9-5.4c4.9-3.5,10.1-6.5,15.6-9l2.7,6c0.8-0.4,1.7-0.8,2.6-1.1
			l-2.5-6.1c3.7-1.5,7.5-2.8,11.4-3.9l1.7,6.4c0.9-0.2,1.8-0.5,2.7-0.7l-1.5-6.5C85,9.2,91,8.5,97,8.3l0.2,6.6
			c0.9,0,1.9-0.1,2.8-0.1V8.2c0,0,0,0,0,0V5.5c0,0,0,0,0,0c-6.2,0-12.4,0.6-18.4,1.8c-6.1,1.2-12,3-17.7,5.4l0.1,0.2l-0.1-0.2
			c-11.4,4.7-21.9,11.8-30.6,20.5l0.1,0.1l-0.1-0.1c-8.7,8.7-15.8,19.2-20.5,30.6l2.5,1C16.7,61.2,18.5,57.6,20.5,54.1z"/>
		<path class="st5" d="M112,9l-0.9,6.6c0.9,0.1,1.8,0.2,2.8,0.4l1.1-6.5c5.9,1,11.8,2.5,17.4,4.6l-2.3,6.2c0.9,0.3,1.7,0.7,2.6,1
			l3.6-8.6c-5.7-2.4-11.7-4.2-17.7-5.4c-6.1-1.2-12.2-1.8-18.4-1.8v2.7C104,8.2,108,8.5,112,9z"/>
		<path class="st5" d="M164.9,43c0.6,0.7,1.2,1.4,1.8,2.2l2.1-1.7c-1.2-1.5-2.5-3-3.8-4.4l-2.9,2.7c0.6,0.7,1.3,1.4,1.9,2.1
			L164.9,43z"/>
		<path class="st5" d="M154.8,33.2l-0.8,0.9c0.7,0.6,1.4,1.2,2.1,1.8l2.6-3c-2.9-2.6-6-4.9-9.2-7.1l-2.2,3.2
			c0.8,0.5,1.5,1.1,2.3,1.6l0.7-1C151.8,30.9,153.3,32,154.8,33.2z"/>
		<path class="st5" d="M138.2,22.5c0.8,0.4,1.7,0.8,2.5,1.3l1.3-2.4c-1.7-0.9-3.5-1.8-5.2-2.6l-1.6,3.6c0.8,0.4,1.7,0.8,2.5,1.2
			L138.2,22.5z"/>
		<path class="st5" d="M176.2,59.3l-1.1,0.6c0.4,0.8,0.9,1.6,1.3,2.5l3.5-1.7c-1.7-3.5-3.7-6.9-5.8-10.1l-3.2,2.2
			c0.5,0.8,1,1.6,1.5,2.3l1-0.6C174.4,56,175.3,57.6,176.2,59.3z"/>
		<path class="st5" d="M186,91.5l-1.2,0.1c0.1,0.9,0.2,1.9,0.2,2.8l3.9-0.3c-0.2-3.9-0.8-7.7-1.5-11.6l-3.8,0.8
			c0.2,0.9,0.3,1.8,0.5,2.7l1.2-0.2C185.5,87.8,185.8,89.7,186,91.5z"/>
		<path class="st5" d="M91.5,14l0.1,1.2c0.9-0.1,1.9-0.2,2.8-0.2l-0.3-3.9c-3.9,0.2-7.7,0.8-11.6,1.5l0.8,3.8
			c0.9-0.2,1.8-0.3,2.7-0.5l-0.2-1.2C87.8,14.5,89.7,14.2,91.5,14z"/>
		<path class="st5" d="M145.9,20.5l-3.3,5.7c0.8,0.5,1.6,0.9,2.4,1.4l3.5-5.6c5.1,3.2,9.9,6.9,14.3,11l-4.5,4.8
			c0.7,0.6,1.4,1.3,2,1.9l6.6-6.6c-8.7-8.7-19.2-15.8-30.6-20.5l-1,2.5C138.8,16.7,142.4,18.5,145.9,20.5z"/>
		<path class="st5" d="M191,112l-6.6-0.9c-0.1,0.9-0.2,1.8-0.4,2.8l6.5,1.1c-1,5.9-2.5,11.8-4.7,17.4l-6.2-2.3
			c-0.3,0.9-0.7,1.7-1,2.6l8.6,3.6c2.4-5.7,4.2-11.7,5.4-17.7c1.2-6.1,1.8-12.2,1.8-18.4h-2.7C191.8,104,191.5,108,191,112z"/>
		<path class="st5" d="M59.3,23.8l0.6,1.1c0.8-0.4,1.6-0.9,2.5-1.3l-1.7-3.5c-3.5,1.7-6.9,3.7-10.1,5.8l2.2,3.3
			c0.8-0.5,1.6-1,2.3-1.5l-0.6-1C56,25.6,57.6,24.7,59.3,23.8z"/>
		<path class="st5" d="M29.8,49.7c1.1-1.5,2.2-3,3.4-4.5l0.9,0.8c0.6-0.7,1.2-1.4,1.8-2.1L33,41.3c-2.6,2.9-4.9,6-7.1,9.2l3.3,2.2
			c0.5-0.8,1.1-1.5,1.6-2.3L29.8,49.7z"/>
		<path class="st5" d="M105.6,13.8c0.9,0.1,1.9,0.1,2.8,0.2l0.3-2.7c-1.9-0.2-3.9-0.3-5.8-0.4l-0.1,3.9c0.9,0,1.9,0.1,2.8,0.1
			L105.6,13.8z"/>
		<path class="st5" d="M22.5,61.8c0.4-0.8,0.8-1.7,1.3-2.5L21.4,58c-0.9,1.7-1.8,3.5-2.6,5.2l3.6,1.6c0.4-0.8,0.8-1.7,1.2-2.5
			L22.5,61.8z"/>
		<path class="st5" d="M119.6,15.9c1.8,0.4,3.7,0.9,5.5,1.5l-0.4,1.2c0.9,0.3,1.8,0.6,2.7,0.9l1.3-3.7c-3.7-1.2-7.4-2.3-11.3-3
			l-0.8,3.8c0.9,0.2,1.8,0.4,2.7,0.6L119.6,15.9z"/>
		<path class="st5" d="M43,35.1c0.7-0.6,1.4-1.2,2.2-1.8l-1.7-2.1c-1.5,1.2-3,2.5-4.4,3.8l2.7,2.9c0.7-0.6,1.4-1.3,2.1-1.9L43,35.1z
			"/>
		<path class="st5" d="M192.7,81.6c-1.2-6.1-3-12-5.4-17.7c-4.7-11.4-11.8-21.9-20.5-30.6l-1.9,1.9c2.8,2.8,5.5,5.8,7.9,9l-5.3,4
			c0.6,0.7,1.1,1.5,1.7,2.2l5.4-3.9c3.5,4.9,6.5,10.1,9,15.6l-6,2.7c0.4,0.8,0.8,1.7,1.1,2.6l6.1-2.5c1.5,3.7,2.8,7.5,3.9,11.4
			l-6.4,1.7c0.2,0.9,0.5,1.8,0.7,2.7l6.5-1.5c1.4,5.9,2.1,11.8,2.3,17.8l-6.6,0.2c0,0.9,0.1,1.9,0.1,2.8h6.6c0,0,0,0,0,0h2.7
			c0,0,0,0,0,0C194.5,93.8,193.9,87.6,192.7,81.6z"/>
		<path class="st5" d="M72.2,18.2c0.9-0.3,1.8-0.6,2.7-0.9l-0.8-2.6c-1.9,0.6-3.7,1.2-5.5,1.9l1.4,3.7c0.9-0.3,1.7-0.6,2.6-0.9
			L72.2,18.2z"/>
		<path class="st5" d="M62.8,10.2l-1-2.5c-12.1,5-23.2,12.4-32.4,21.7l1.9,1.9C40.3,22.3,51,15.1,62.8,10.2z"/>
		<path class="st5" d="M100,0.1c-6.5,0-13.1,0.6-19.5,1.9c-6.4,1.3-12.7,3.2-18.8,5.7l1,2.5c5.9-2.4,12-4.3,18.3-5.5
			c6.2-1.2,12.6-1.8,19-1.8c0,0,0,0,0,0L100,0.1C100,0.1,100,0.1,100,0.1z"/>
		<path class="st5" d="M137.2,10.2c11.8,4.9,22.5,12.1,31.5,21.1l1.9-1.9c-9.2-9.2-20.3-16.7-32.4-21.7c-6-2.5-12.3-4.4-18.8-5.7
			c-6.4-1.3-12.9-1.9-19.5-1.9v2.7c6.3,0,12.7,0.6,18.9,1.8C125.2,5.9,131.3,7.7,137.2,10.2z"/>
		<path class="st5" d="M100,197.2c-6.3,0-12.7-0.6-19-1.8c-6.2-1.2-12.4-3.1-18.3-5.5l-1,2.5c6,2.5,12.3,4.4,18.8,5.7
			c6.4,1.3,13,1.9,19.5,1.9c0,0,0,0,0,0L100,197.2C100,197.2,100,197.2,100,197.2z"/>
		<path class="st5" d="M197.2,100c0,6.3-0.6,12.7-1.9,18.9c-1.2,6.2-3.1,12.4-5.5,18.3c-4.9,11.8-12.1,22.5-21.1,31.5
			c-9,9-19.8,16.2-31.5,21.1c-5.9,2.4-12,4.3-18.3,5.5c-6.2,1.2-12.6,1.8-18.9,1.8v2.7c6.5,0,13-0.6,19.5-1.9
			c6.4-1.3,12.7-3.2,18.8-5.7c12.1-5,23.2-12.4,32.4-21.7c9.2-9.2,16.7-20.3,21.7-32.4c2.5-6,4.4-12.3,5.7-18.8
			c1.3-6.4,1.9-12.9,1.9-19.5H197.2z"/>
		<path class="st5" d="M195.3,81c1.2,6.2,1.9,12.6,1.9,19c0,0,0,0,0,0h2.7c0,0,0,0,0,0c0-6.5-0.6-13.1-1.9-19.5
			c-1.3-6.4-3.2-12.7-5.7-18.8c-5-12.1-12.4-23.2-21.7-32.4l-1.9,1.9c9,9,16.2,19.8,21.1,31.5C192.3,68.7,194.1,74.8,195.3,81z"/>
	</g>
</g>
<g id="Layer_3">
</g>
</svg>
