<?xml version="1.0" encoding="utf-8"?>
<!-- Generator: Adobe Illustrator 26.2.1, SVG Export Plug-In . SVG Version: 6.00 Build 0)  -->
<svg version="1.1" id="Layer_1" xmlns="http://www.w3.org/2000/svg" xmlns:xlink="http://www.w3.org/1999/xlink" x="0px" y="0px"
	 viewBox="0 0 32 32" style="enable-background:new 0 0 32 32;" xml:space="preserve">
<style type="text/css">
	.st0{fill-rule:evenodd;clip-rule:evenodd;fill:url(#Head_00000110436695172180529710000002750377905950773927_);}
	.st1{fill-rule:evenodd;clip-rule:evenodd;fill:#FFFFFF;}
	.st2{fill-rule:evenodd;clip-rule:evenodd;fill:url(#path-3_00000013176568902705623330000011342518388921195907_);}
</style>
<desc>Created with Sketch.</desc>
<g id="Branding">
	<g id="logo_brave" transform="translate(-46.000000, -42.000000)">
		<g id="Logo_x2F_Logotypes_x2F_brave_x2F_logo-dark" transform="translate(46.000000, 42.000000)">
			<g id="Logotypes_x2F_brave_x2F_logo-dark" transform="translate(-3.910345, 0.000000)">
				<g id="Group-5">
					<g id="Build-Icons_x2F_Release">
						<g id="Logo" transform="translate(4.510718, 0.000000)">
							
								<linearGradient id="Head_00000116956276121586477610000015981848465656071818_" gradientUnits="userSpaceOnUse" x1="10.2234" y1="101.0616" x2="10.7723" y2="101.0616" gradientTransform="matrix(48.7978 0 0 -58.296 -496.4785 5907.4878)">
								<stop  offset="0" style="stop-color:#FF5500"/>
								<stop  offset="0.4099" style="stop-color:#FF5500"/>
								<stop  offset="0.582" style="stop-color:#FF2000"/>
								<stop  offset="1" style="stop-color:#FF2000"/>
							</linearGradient>
							
								<path id="Head" style="fill-rule:evenodd;clip-rule:evenodd;fill:url(#Head_00000116956276121586477610000015981848465656071818_);" d="
								M28.2,7.7L29,5.8c0,0-0.9-1-2.1-2.2s-3.5-0.5-3.5-0.5L20.6,0h-4.8H11L8.2,3.2c0,0-2.4-0.7-3.5,0.5S2.6,5.8,2.6,5.8l0.7,1.8
								l-0.9,2.7c0,0,2.8,10.6,3.1,11.9c0.6,2.6,1.1,3.5,2.9,4.8c1.8,1.3,5.1,3.5,5.6,3.9c0.5,0.3,1.2,0.9,1.8,0.9
								c0.6,0,1.3-0.6,1.8-0.9c0.5-0.3,3.8-2.6,5.6-3.9c1.8-1.3,2.2-2.3,2.9-4.8c0.3-1.3,3.1-11.9,3.1-11.9L28.2,7.7z"/>
							<path id="Face" class="st1" d="M15.8,19.9c0.2,0,1.4,0.4,2.3,0.9c0.9,0.5,1.6,0.8,1.8,1c0.2,0.1,0.1,0.4-0.1,0.5
								c-0.2,0.1-2.9,2.3-3.1,2.5c-0.3,0.2-0.6,0.6-0.9,0.6c-0.3,0-0.6-0.4-0.9-0.6c-0.3-0.2-2.9-2.3-3.1-2.5
								c-0.2-0.1-0.3-0.4-0.1-0.5c0.2-0.1,0.9-0.5,1.8-1C14.4,20.3,15.6,19.9,15.8,19.9z M15.8,4.9c0.1,0,0.6,0,1.3,0.3
								c0.8,0.3,1.7,0.6,2.1,0.6c0.4,0,3.4-0.6,3.4-0.6s3.5,4.3,3.5,5.3s-0.4,1.2-0.9,1.7c-0.4,0.5-2.4,2.6-2.6,2.9
								c-0.3,0.3-0.8,0.7-0.5,1.4s0.8,1.7,0.3,2.6c-0.5,1-1.4,1.6-1.9,1.5c-0.6-0.1-1.8-0.8-2.3-1.1c-0.5-0.3-2-1.6-2-2.1
								c0-0.5,1.6-1.4,1.9-1.6c0.3-0.2,1.6-1,1.6-1.3c0-0.3,0-0.4-0.4-1.1c-0.4-0.7-1.1-1.7-1-2.4c0.1-0.7,1.2-1,2.1-1.3
								c0.8-0.3,2.4-0.9,2.6-1c0.2-0.1,0.1-0.2-0.4-0.2c-0.6-0.1-2.3-0.3-3-0.1c-0.8,0.2-2,0.5-2.1,0.7c-0.1,0.2-0.2,0.2-0.1,0.8
								c0.1,0.6,0.7,3.4,0.7,3.9c0.1,0.5,0.2,0.8-0.4,1c-0.5,0.1-1.4,0.3-1.7,0.3s-1.2-0.2-1.7-0.3c-0.5-0.1-0.4-0.5-0.4-1
								c0.1-0.5,0.6-3.4,0.7-3.9c0.1-0.6,0-0.6-0.1-0.8c-0.1-0.2-1.4-0.5-2.1-0.7c-0.8-0.2-2.4,0-3,0.1C8.6,8.5,8.5,8.6,8.7,8.7
								c0.2,0.1,1.7,0.7,2.6,1c0.8,0.3,1.9,0.7,2.1,1.3c0.1,0.7-0.6,1.7-1,2.4c-0.4,0.7-0.4,0.8-0.4,1.1c0,0.3,1.3,1.1,1.6,1.3
								c0.3,0.2,1.9,1.1,1.9,1.6c0,0.5-1.5,1.8-2,2.1c-0.5,0.3-1.8,1-2.3,1.1C10.6,20.6,9.7,20,9.2,19c-0.5-1-0.1-1.9,0.3-2.6
								C9.8,15.7,9.3,15.3,9,15c-0.3-0.3-2.2-2.4-2.6-2.9c-0.4-0.5-0.9-0.7-0.9-1.7S9,5.2,9,5.2s3,0.6,3.4,0.6s1.3-0.3,2.1-0.6
								C15.2,4.9,15.7,4.9,15.8,4.9L15.8,4.9z"/>
							<g id="Top-Head">
								
									<linearGradient id="path-3_00000020373546625580314400000005080171669893918634_" gradientUnits="userSpaceOnUse" x1="10.1529" y1="93.4913" x2="10.69" y2="93.4913" gradientTransform="matrix(40.5021 0 0 -10.5044 -406.0594 984.9503)">
									<stop  offset="0" style="stop-color:#FF452A"/>
									<stop  offset="1" style="stop-color:#FF2000"/>
								</linearGradient>
								
									<path id="path-3_00000029036419773839766420000015061410604546606468_" style="fill-rule:evenodd;clip-rule:evenodd;fill:url(#path-3_00000020373546625580314400000005080171669893918634_);" d="
									M23.4,3.2L20.6,0h-4.8H11L8.2,3.2c0,0-2.4-0.7-3.5,0.5c0,0,3.2-0.3,4.3,1.5c0,0,3,0.6,3.4,0.6s1.3-0.3,2.1-0.6
									c0.8-0.3,1.3-0.3,1.3-0.3s0.5,0,1.3,0.3c0.8,0.3,1.7,0.6,2.1,0.6c0.4,0,3.4-0.6,3.4-0.6c1.1-1.8,4.3-1.5,4.3-1.5
									C25.8,2.5,23.4,3.2,23.4,3.2"/>
							</g>
						</g>
					</g>
				</g>
			</g>
		</g>
	</g>
</g>
</svg>
