<?xml version="1.0" encoding="utf-8"?>
<!-- Generator: Adobe Illustrator 26.2.1, SVG Export Plug-In . SVG Version: 6.00 Build 0)  -->
<svg version="1.1" id="Layer_1" xmlns="http://www.w3.org/2000/svg" xmlns:xlink="http://www.w3.org/1999/xlink" x="0px" y="0px"
	 viewBox="0 0 32 32" style="enable-background:new 0 0 32 32;" xml:space="preserve">
<style type="text/css">
	.st0{fill:#1DE9B6;}
	.st1{fill:url(#SVGID_1_);}
	.st2{fill:url(#SVGID_00000058563952759824892160000010599486100338748824_);}
	.st3{fill:url(#SVGID_00000101090838693619503820000014622125944868866725_);}
</style>
<path class="st0" d="M0,15.6C0,9.3,5.2,0,16,0c10.8,0,16,7.9,16,13.5c0,4.5-3.5,7.8-8,7.8c-3.4,0-5.4-1.1-5.4-2
	c0-0.6,1.4-1.5,1.4-3.2c0-2.1-1.6-4.1-4-4.1c-2.3,0-4,2-4,3.9c0,4.8,4.5,9.3,11.1,9.3c4,0,5.4-1.5,5.9-1.5c0.2,0,0.5,0.1,0.5,0.5
	c0,0.4-4.4,7.7-13.6,7.7C6.9,32,0,24.8,0,15.6z"/>
<radialGradient id="SVGID_1_" cx="11.1944" cy="2.8827" r="17.0784" gradientTransform="matrix(1 0 0 -1.1083 0 26.2757)" gradientUnits="userSpaceOnUse">
	<stop  offset="0.652" style="stop-color:#0083DE"/>
	<stop  offset="0.822" style="stop-color:#006AAC"/>
	<stop  offset="0.944" style="stop-color:#005A8C"/>
</radialGradient>
<path class="st1" d="M0,15.6C0,9.3,6.1,6,10.2,6C20.9,6,24,7.9,24,13.5c0,4.5-4,4.3-4,2.6c0-2.1-1.6-4.1-4-4.1c-2.3,0-4,2-4,3.9
	c0,4.8,4.5,9.3,11.1,9.3c4,0,5.4-1.5,5.9-1.5c0.2,0,0.5,0.1,0.5,0.5c0,0.4-4.4,7.7-13.6,7.7C6.9,32,0,24.8,0,15.6z"/>
<radialGradient id="SVGID_00000137120378605822663000000013531189674837748666_" cx="19.2656" cy="-2.0042" r="13.1824" gradientTransform="matrix(1 0 0 -1.0028 0 18.2382)" gradientUnits="userSpaceOnUse">
	<stop  offset="0.69" style="stop-color:#05509B"/>
	<stop  offset="0.717" style="stop-color:#054E98"/>
	<stop  offset="1" style="stop-color:#033E78"/>
</radialGradient>
<path style="fill:url(#SVGID_00000137120378605822663000000013531189674837748666_);" d="M12,15.9c0-1.8,1.4-3.7,3.5-3.9
	c-3.3,0.3-7,3.5-7,9.5c0,6.4,5.5,10.8,11.2,10.1c6.7-1.5,10-7,10-7.3c0-0.4-0.4-0.5-0.5-0.5c-0.5,0-2,1.5-5.9,1.5
	C16.5,25.2,12,20.7,12,15.9z"/>
<radialGradient id="SVGID_00000107575031362269846420000011765657609237729700_" cx="-57.6224" cy="148.9994" r="49.2256" gradientTransform="matrix(-1 0 0 1.5084 -22.704 -215.1056)" gradientUnits="userSpaceOnUse">
	<stop  offset="0" style="stop-color:#5EEB69"/>
	<stop  offset="0.214" style="stop-color:#4BC958"/>
	<stop  offset="0.225" style="stop-color:#4AC862"/>
	<stop  offset="0.272" style="stop-color:#47C68B"/>
	<stop  offset="0.323" style="stop-color:#44C4AE"/>
	<stop  offset="0.376" style="stop-color:#41C2CB"/>
	<stop  offset="0.433" style="stop-color:#3FC1E1"/>
	<stop  offset="0.495" style="stop-color:#3EC0F1"/>
	<stop  offset="0.565" style="stop-color:#3DBFFA"/>
	<stop  offset="0.664" style="stop-color:#3DBFFD"/>
</radialGradient>
<path style="fill:url(#SVGID_00000107575031362269846420000011765657609237729700_);" d="M0,15.6C0,9.3,5.2,0,16,0
	c10.8,0,16,7.9,16,13.5c0,4.5-3.5,7.8-8,7.8c-3.4,0-5.4-1.1-5.4-2c0-0.6,1.4-1.5,1.4-3.2c0-2.1-1.7-8.5-10.1-8.5
	C7.6,7.6,1,8.6,0,15.6z"/>
</svg>
