<?xml version="1.0" encoding="utf-8"?>
<!-- Generator: Adobe Illustrator 26.2.1, SVG Export Plug-In . SVG Version: 6.00 Build 0)  -->
<svg version="1.1" id="Layer_1" xmlns="http://www.w3.org/2000/svg" xmlns:xlink="http://www.w3.org/1999/xlink" x="0px" y="0px"
	 viewBox="0 0 32 32" style="enable-background:new 0 0 32 32;" xml:space="preserve">
<style type="text/css">
	.st0{fill:url(#SVGID_1_);}
	.st1{fill:url(#_Path__00000075865530937810490700000011736183162716604304_);}
	.st2{fill:url(#SVGID_00000172423374648684343080000002375470002078231436_);}
	.st3{fill:url(#SVGID_00000073722051200642474960000007802967819057348755_);}
	.st4{fill:url(#SVGID_00000031906401970319825740000016087612397136846229_);}
	.st5{fill:url(#SVGID_00000057140875708485009180000014806690724842336432_);}
	.st6{fill:url(#SVGID_00000097481196003713324800000002925649262298360987_);}
	.st7{fill:url(#SVGID_00000117662337252738081140000001483335519036927672_);}
	.st8{fill:url(#SVGID_00000131364664770137608220000003119623894998971809_);}
	.st9{fill:url(#SVGID_00000083809258630524505290000012837909898820559002_);}
	.st10{fill:url(#SVGID_00000119813368775085875430000011262733701189583002_);}
	.st11{fill:url(#SVGID_00000024718494526647538090000005659833063227843234_);}
	.st12{fill:url(#SVGID_00000041282380911005160770000006975935225066491532_);}
	.st13{fill:url(#SVGID_00000137828267507744942890000013552754697196154047_);}
</style>
<g id="Layer_2_00000137130991070219967120000001918753184123972278_">
	<g id="Layer_1-2">
		<g id="Layer_2-2">
			<g id="Firefox_-_Large">
				
					<radialGradient id="SVGID_1_" cx="-15789.7266" cy="-9371.2266" r="14.6628" fx="-15790.6621" fy="-9371.2266" gradientTransform="matrix(0.76 3.000000e-02 -5.000000e-02 1.12 11562.1104 10979.3604)" gradientUnits="userSpaceOnUse">
					<stop  offset="0.1" style="stop-color:#FFEA00"/>
					<stop  offset="0.17" style="stop-color:#FFDE00"/>
					<stop  offset="0.28" style="stop-color:#FFBF00"/>
					<stop  offset="0.43" style="stop-color:#FF8E00"/>
					<stop  offset="0.77" style="stop-color:#FF272D"/>
					<stop  offset="0.87" style="stop-color:#E0255A"/>
					<stop  offset="0.95" style="stop-color:#CC2477"/>
					<stop  offset="1" style="stop-color:#C42482"/>
				</radialGradient>
				<path class="st0" d="M25,3c-0.8,0.9-1.1,2.9-0.4,5c0.8,2.1,2,1.6,2.8,3.7c1,2.8,0.5,6.5,0.5,6.5s1.2,3.5,2-0.2
					C31.9,11.1,25,4.7,25,3z"/>
				
					<radialGradient id="_Path__00000127764339316442210090000015965671043980860847_" cx="-8005.8413" cy="-8888.8311" r="25.7311" gradientTransform="matrix(1.23 0 0 1.23 9867.5205 10938.25)" gradientUnits="userSpaceOnUse">
					<stop  offset="0" style="stop-color:#00CCDA"/>
					<stop  offset="0.22" style="stop-color:#0083FF"/>
					<stop  offset="0.26" style="stop-color:#007AF9"/>
					<stop  offset="0.33" style="stop-color:#0060E8"/>
					<stop  offset="0.33" style="stop-color:#005FE7"/>
					<stop  offset="0.44" style="stop-color:#2639AD"/>
					<stop  offset="0.52" style="stop-color:#401E84"/>
					<stop  offset="0.57" style="stop-color:#4A1475"/>
				</radialGradient>
				<path id="_Path_" style="fill:url(#_Path__00000127764339316442210090000015965671043980860847_);" d="M15.5,31.7
					c8,0,14.4-6.5,14.4-14.5S23.5,2.7,15.6,2.7S1.1,9.2,1.1,17.2C1.1,25.2,7.6,31.7,15.5,31.7z"/>
				
					<linearGradient id="SVGID_00000078018950192032229330000017462194753841966486_" gradientUnits="userSpaceOnUse" x1="17.5819" y1="-760.2863" x2="11.3562" y2="-780.6514" gradientTransform="matrix(1 0 0 1 0 784)">
					<stop  offset="0" style="stop-color:#000F43;stop-opacity:0.4"/>
					<stop  offset="0.48" style="stop-color:#001962;stop-opacity:0.17"/>
					<stop  offset="1" style="stop-color:#002079;stop-opacity:0"/>
				</linearGradient>
				<path style="fill:url(#SVGID_00000078018950192032229330000017462194753841966486_);" d="M26.4,26.1c-0.3,0.2-0.6,0.4-1,0.6
					c0.5-0.7,0.9-1.3,1.2-2c0.3-0.3,0.6-0.7,0.8-1c0.1-0.2,0.2-0.4,0.4-0.6c0.8-1.5,1.7-3.8,1.7-6.3v-0.2c0-0.6-0.1-1.2-0.2-1.8
					c0,0,0,0.1,0,0.1c0,0,0-0.1,0-0.1c0,0.1,0,0.1,0,0.2c0.2,1.4,0,2.8-0.5,3.8c0,0,0,0,0,0c0.3-1.5,0.4-3.2,0.1-4.9
					c0,0-0.1-0.8-1.2-3.3c-0.6-1.4-1.6-2.6-2.5-3.5c-0.8-1-1.5-1.7-1.9-2.1c-0.8-0.9-1.2-1.5-1.3-2c-0.1-0.1-1.7-1.6-1.9-1.7
					c-0.7,1.1-2.9,4.5-1.9,7.6c0.5,1.4,1.7,2.9,2.9,3.8c0.1,0.1,0.7,0.8,1.1,2.5c0.3,1.8,0.2,3.1-0.5,5.1c-0.8,1.8-2.9,3.5-4.9,3.7
					C12.6,24.5,11,22,11,22c1.5,0.6,3.2,0.5,4.2-0.1c1-0.6,1.6-1.1,2.1-0.9c0.5,0.2,0.9-0.4,0.5-0.9c-0.6-0.9-1.6-1.3-2.6-1.1
					c-1,0.2-2,1-3.3,0.2c-0.1-0.1-0.2-0.1-0.3-0.2c-0.1-0.1,0.3,0.1,0.2,0c-0.3-0.1-0.7-0.5-0.8-0.6c0,0,0.2,0.1,0.2,0.1
					c-1.3-1-1.1-1.7-1.1-2.2c0-0.3,0.3-0.8,0.6-1c0.2,0.1,0.3,0.2,0.3,0.2s-0.1-0.2-0.1-0.2c0,0,0,0,0,0c0.2,0.1,0.5,0.3,0.7,0.4
					c0.2,0.2,0.3,0.3,0.3,0.3s0.1,0,0-0.2c0-0.1-0.1-0.2-0.3-0.4h0c0.1,0.1,0.3,0.2,0.4,0.3c0.1-0.2,0.2-0.5,0.2-0.9
					c0-0.3,0-0.4-0.1-0.5c0-0.1,0-0.1,0.1,0c0-0.1,0-0.2-0.1-0.2v0c0.1-0.4,2.2-1.3,2.4-1.4c0.3-0.2,0.5-0.4,0.6-0.7
					c0.1-0.2,0.2-0.5,0.2-0.8c0-0.3-0.1-0.5-2.3-0.7c-0.6-0.1-0.9-0.5-1.1-0.9c0-0.1-0.1-0.2-0.1-0.2C12,9,12,8.9,12,8.8
					c0.3-1,0.9-1.9,1.8-2.5c0,0-0.2,0-0.1,0c0.1-0.1,0.4-0.2,0.5-0.2c0.1,0-0.4-0.2-0.7-0.2c-0.4,0-0.5,0.1-0.7,0.2
					C12.8,6,13,5.9,13,5.9c-0.4,0.1-0.9,0.3-1.4,0.6c0,0,0-0.1,0-0.1c-0.2,0.1-0.7,0.4-0.9,0.8c0-0.1,0-0.1,0-0.2
					c-0.2,0.1-0.3,0.3-0.4,0.4l0,0C9.1,6.8,8,6.8,7.1,7C6.9,6.8,6.8,7,6.4,6c0-0.1,0,0.1,0,0c-0.1-0.2,0,0.3,0,0
					C5.6,6.6,4.6,7.3,4.1,7.7c0,0,0.6-0.2,0,0C3.9,7.8,4,7.9,3.9,9c0,0.1,0,0.2,0,0.2c-0.4,0.5-0.6,0.9-0.7,1.1
					c-0.5,0.9-1,2.2-1.6,4.3C1.8,14,2.1,13.5,2.4,13c-0.4,1.1-0.9,2.9-0.9,5.6c0.1-0.6,0.2-1.1,0.4-1.6c-0.1,2.2,0.3,4.5,1.1,6.5
					c0.3,0.7,0.8,1.9,1.7,3.1c2.7,2.8,6.5,4.6,10.7,4.6C19.7,31.1,23.7,29.2,26.4,26.1z"/>
				
					<radialGradient id="SVGID_00000025445194056503961610000005903719135548533139_" cx="-9027.4141" cy="-7780.8594" r="8.6793" gradientTransform="matrix(1.22 0.12 -0.12 1.22 10111.1201 10597.2002)" gradientUnits="userSpaceOnUse">
					<stop  offset="0" style="stop-color:#FFEA00"/>
					<stop  offset="0.5" style="stop-color:#FF272D"/>
					<stop  offset="1" style="stop-color:#C42482"/>
				</radialGradient>
				<path style="fill:url(#SVGID_00000025445194056503961610000005903719135548533139_);" d="M23.1,28.2c5.3-0.6,7.6-6.1,4.6-6.2
					C25,21.9,20.6,28.5,23.1,28.2z"/>
				
					<radialGradient id="SVGID_00000115492359463158657490000004163768823039124137_" cx="-9028.1992" cy="-7789.1816" r="14.4937" gradientTransform="matrix(1.22 0.12 -0.12 1.22 10111.1201 10597.2002)" gradientUnits="userSpaceOnUse">
					<stop  offset="0" style="stop-color:#FFE900"/>
					<stop  offset="0.16" style="stop-color:#FFAF0E"/>
					<stop  offset="0.32" style="stop-color:#FF7A1B"/>
					<stop  offset="0.47" style="stop-color:#FF4E26"/>
					<stop  offset="0.62" style="stop-color:#FF2C2E"/>
					<stop  offset="0.76" style="stop-color:#FF1434"/>
					<stop  offset="0.89" style="stop-color:#FF0538"/>
					<stop  offset="1" style="stop-color:#FF0039"/>
				</radialGradient>
				<path style="fill:url(#SVGID_00000115492359463158657490000004163768823039124137_);" d="M28.1,20.9c3.6-2.1,2.7-6.7,2.7-6.7
					s-1.4,1.6-2.4,4.2C27.5,21,25.9,22.2,28.1,20.9z"/>
				
					<radialGradient id="SVGID_00000167386910679749150490000010138999147774943110_" cx="-9026.1494" cy="-7775.7461" r="13.2995" gradientTransform="matrix(1.22 0.12 -0.12 1.22 10111.1201 10597.2002)" gradientUnits="userSpaceOnUse">
					<stop  offset="0" style="stop-color:#FF272D"/>
					<stop  offset="0.5" style="stop-color:#C42482"/>
					<stop  offset="0.99" style="stop-color:#620700"/>
				</radialGradient>
				<path style="fill:url(#SVGID_00000167386910679749150490000010138999147774943110_);" d="M16.6,30.9c5.1,1.6,9.4-2.4,6.8-3.7
					C20.9,26,14.2,30.1,16.6,30.9z"/>
				
					<radialGradient id="SVGID_00000044883443477503029060000010168974004592688308_" cx="23.2582" cy="-771.1857" r="25.4367" fx="24.168" fy="-771.6354" gradientTransform="matrix(1 0 0 1 0 784)" gradientUnits="userSpaceOnUse">
					<stop  offset="0.16" style="stop-color:#FFEA00"/>
					<stop  offset="0.23" style="stop-color:#FFDE00"/>
					<stop  offset="0.37" style="stop-color:#FFBF00"/>
					<stop  offset="0.54" style="stop-color:#FF8E00"/>
					<stop  offset="0.76" style="stop-color:#FF272D"/>
					<stop  offset="0.8" style="stop-color:#F92433"/>
					<stop  offset="0.84" style="stop-color:#E91C45"/>
					<stop  offset="0.89" style="stop-color:#CF0E62"/>
					<stop  offset="0.94" style="stop-color:#B5007F"/>
				</radialGradient>
				<path style="fill:url(#SVGID_00000044883443477503029060000010168974004592688308_);" d="M28.5,22.8c0.1-0.2,0.3-0.7,0.4-1
					c0.9-1.4,0.9-2.6,0.9-2.6c0.5-2.7,0.5-3.8,0.2-5.9c-0.3-1.6-1.4-4-2.5-5.1c-1-1.2-0.3-0.8-1.3-1.6c-0.9-1-1.8-2-2.2-2.4
					c-3.4-2.8-3.3-3.4-3.2-3.5c0,0,0,0,0,0.1c0-0.2-0.1-0.3-0.1-0.3s-1.9,1.9-2.2,4.9c-0.3,2,0.5,4.1,1.6,5.5
					c0.6,0.7,1.2,1.3,1.9,1.9l0,0c0.8,1.2,1.3,2.7,1.3,4.2c0,3.9-3.2,7.1-7.1,7.1c-0.5,0-1.1-0.1-1.6-0.2c-1.9-0.4-2.9-1.3-3.5-1.9
					c-0.3-0.4-0.4-0.6-0.4-0.6c1.7,0.6,3.5,0.5,4.6-0.1c1.1-0.6,1.8-1.1,2.4-0.9c0.5,0.2,1-0.3,0.6-0.9c-0.4-0.5-1.4-1.3-2.9-1.1
					c-1.1,0.2-2.2,1-3.7,0.2c-0.1,0-0.2-0.1-0.3-0.2c-0.1-0.1,0.3,0.1,0.2,0c-0.3-0.1-0.8-0.4-0.9-0.6c0,0,0.2,0.1,0.2,0.1
					c-1.4-1-1.2-1.7-1.2-2.1c0-0.3,0.3-0.8,0.7-1c0.2,0.1,0.3,0.2,0.3,0.2s-0.1-0.2-0.1-0.2c0,0,0,0,0,0c0.2,0.1,0.5,0.3,0.7,0.4
					c0.3,0.2,0.3,0.3,0.3,0.3s0.1,0,0-0.2c0-0.1-0.1-0.2-0.3-0.4h0c0.1,0.1,0.3,0.2,0.4,0.3c0.1-0.2,0.2-0.5,0.2-0.9
					c0-0.3,0-0.4-0.1-0.5c-0.1-0.1,0-0.1,0.1,0c0-0.1,0-0.2-0.1-0.2v0c0.1-0.4,2.5-1.3,2.6-1.4c0.3-0.2,0.5-0.4,0.7-0.7
					c0.1-0.2,0.2-0.4,0.3-0.8c0-0.2,0-0.3-0.7-0.5c-0.4-0.1-0.9-0.2-1.8-0.2c-0.6-0.1-1-0.5-1.2-0.9c0-0.1-0.1-0.2-0.1-0.2
					c0-0.1-0.1-0.2-0.1-0.3c0.4-1,1.1-1.9,2-2.5c0.1,0-0.2,0-0.2,0c0.1,0,0.5-0.2,0.5-0.2c0.1,0-0.4-0.2-0.8-0.2
					c-0.4,0-0.5,0.1-0.8,0.2c0.1-0.1,0.4-0.2,0.3-0.2c-0.5,0.1-1.1,0.3-1.5,0.6c0,0,0-0.1,0-0.1c-0.2,0.1-0.8,0.4-1,0.7
					c0-0.1,0-0.1,0-0.2C10,6.5,9.9,6.7,9.7,6.9l0,0C8.4,6.4,7.2,6.3,6.2,6.6C6,6.4,5.6,6.1,5.1,5.1c0-0.1-0.1,0.1-0.1,0.1
					C4.9,4.7,4.8,4,4.8,3.5c0,0-0.4,0.2-0.7,0.9C4,4.5,3.9,4.6,3.9,4.7c0,0,0-0.3,0-0.2C3.9,4.6,3.7,4.7,3.7,4.9
					c0,0.1-0.1,0.2-0.1,0.4l0,0c0,0,0-0.2,0-0.2C3.3,5.4,3.2,5.7,3.1,6C2.9,6.6,2.7,7.4,2.7,8.5c0,0.1,0,0.2,0,0.2
					C2.3,9.2,2,9.6,1.9,9.8c-0.5,0.8-1.1,2.2-1.7,4.2c0.3-0.6,0.6-1.1,0.9-1.6c-0.5,1.1-1,2.8-1,5.5c0.1-0.6,0.3-1.1,0.5-1.6
					c-0.1,1.8,0.1,4,1.3,6.5c0.7,1.5,2.2,4.4,6,6.8l0,0c0,0,1.3,1,3.5,1.7c0.2,0.1,0.3,0.1,0.5,0.2c-0.1,0-0.1,0-0.2-0.1
					c1.5,0.4,3,0.7,4.5,0.7c5.7,0,7.4-2.3,7.4-2.3l0,0c0.1-0.1,0.2-0.2,0.2-0.2c-0.9,0.8-3,0.9-3.7,0.8c1.3-0.4,2.2-0.7,3.8-1.4
					c0.2-0.1,0.4-0.2,0.6-0.2l0.1,0c0,0,0.1,0,0.1-0.1c0.8-0.4,1.6-0.9,2.3-1.4c1.7-1.3,2-2.7,2.2-3.5c0,0.1-0.1,0.3-0.2,0.4
					c-0.4,0.9-1.4,1.5-2.4,2c0.5-0.7,1-1.3,1.4-2C28.2,23.7,28.3,23.2,28.5,22.8z"/>
				
					<radialGradient id="SVGID_00000156569433228225748960000008642239749479193016_" cx="21.7997" cy="-782.9824" r="28.9902" gradientTransform="matrix(1 0 0 1 0 784)" gradientUnits="userSpaceOnUse">
					<stop  offset="0.28" style="stop-color:#FFEA00"/>
					<stop  offset="0.4" style="stop-color:#FFDD00"/>
					<stop  offset="0.63" style="stop-color:#FFBA00"/>
					<stop  offset="0.86" style="stop-color:#FF9100"/>
					<stop  offset="0.93" style="stop-color:#FF6711"/>
					<stop  offset="0.99" style="stop-color:#FF4A1D"/>
				</radialGradient>
				<path style="fill:url(#SVGID_00000156569433228225748960000008642239749479193016_);" d="M26.5,26c0.7-0.8,1.3-1.6,1.8-2.6
					c1.2-2.5,3.1-6.7,1.6-11.1c-1.2-3.5-2.7-5.4-4.8-7.2c-3.3-3-4.2-4.3-4.2-5.1c0,0-3.8,4.2-2.1,8.6s5,4.2,7.2,8.8
					c2.6,5.4-2.1,11.3-6,12.9c0.2-0.1,8.7-2,9.1-6.8C29.1,23.6,28.9,25,26.5,26z"/>
				
					<linearGradient id="SVGID_00000014614688858902647380000011420455204528109952_" gradientUnits="userSpaceOnUse" x1="-9049.7129" y1="-7786.3564" x2="-9039.7285" y2="-7788.9014" gradientTransform="matrix(1.22 0.12 -0.12 1.22 10111.1201 10597.2002)">
					<stop  offset="0" style="stop-color:#C42482;stop-opacity:0.5"/>
					<stop  offset="0.47" style="stop-color:#FF272D;stop-opacity:0.5"/>
					<stop  offset="0.49" style="stop-color:#FF2C2C;stop-opacity:0.51"/>
					<stop  offset="0.68" style="stop-color:#FF7A1A;stop-opacity:0.72"/>
					<stop  offset="0.83" style="stop-color:#FFB20D;stop-opacity:0.87"/>
					<stop  offset="0.94" style="stop-color:#FFD605;stop-opacity:0.96"/>
					<stop  offset="1" style="stop-color:#FFE302"/>
				</linearGradient>
				<path style="fill:url(#SVGID_00000014614688858902647380000011420455204528109952_);" d="M15.5,10.4c0-0.3-0.1-0.5-2.5-0.7
					c-1-0.1-1.3-1-1.5-1.4c-0.3,0.9-0.5,1.8-0.4,3c0.1,0.7,0.6,1.5,0.8,2c0,0,0.1-0.1,0.1-0.1c0.5-0.5,2.3-1.2,2.5-1.3
					C14.8,11.8,15.5,11.3,15.5,10.4z"/>
				
					<linearGradient id="SVGID_00000046328403594985458640000013236028424507045031_" gradientUnits="userSpaceOnUse" x1="79.3282" y1="-2083.4114" x2="77.5536" y2="-2087.9592" gradientTransform="matrix(0.99 0.1 -0.1 0.99 -282.16 2063.25)">
					<stop  offset="0" style="stop-color:#891551;stop-opacity:0.6"/>
					<stop  offset="1" style="stop-color:#C42482;stop-opacity:0"/>
				</linearGradient>
				<path style="fill:url(#SVGID_00000046328403594985458640000013236028424507045031_);" d="M5.1,5.1C5.1,5,5.1,5.2,5.1,5.1
					C4.9,4.7,4.8,4,4.8,3.5c0,0-0.4,0.2-0.7,0.9C4,4.5,4,4.6,3.9,4.7c0,0,0-0.3,0-0.2C3.9,4.6,3.7,4.7,3.7,4.9
					C3.6,5,3.6,5.1,3.5,5.2c0,0,0-0.2,0-0.2C2.8,6.6,2.6,8.8,2.7,8.7C4.3,7,6.2,6.5,6.2,6.5C6,6.4,5.6,6,5.1,5.1L5.1,5.1z"/>
				
					<linearGradient id="SVGID_00000154389938118338023440000007518287163176715176_" gradientUnits="userSpaceOnUse" x1="-239.0894" y1="-468.4403" x2="-236.029" y2="-464.9645" gradientTransform="matrix(0.99 0.1 -0.1 0.99 196.97 502.84)">
					<stop  offset="1.000000e-02" style="stop-color:#891551;stop-opacity:0.5"/>
					<stop  offset="0.48" style="stop-color:#FF272D;stop-opacity:0.5"/>
					<stop  offset="1" style="stop-color:#FF272D;stop-opacity:0"/>
				</linearGradient>
				<path style="fill:url(#SVGID_00000154389938118338023440000007518287163176715176_);" d="M11.4,23.4c-2.3-1-4.8-2.3-4.7-5.4
					c0.1-4.1,3.8-3.3,3.8-3.3c-0.1,0-0.5,0.3-0.6,0.6c-0.1,0.4-0.4,1.1,0.4,2c1.2,1.3-2.5,3.1,3.2,6.5C13.5,23.8,12,23.7,11.4,23.4
					L11.4,23.4z"/>
				
					<linearGradient id="SVGID_00000145739164895732072660000001485157634622224280_" gradientUnits="userSpaceOnUse" x1="-233.2068" y1="-462.4448" x2="-233.2045" y2="-464.8767" gradientTransform="matrix(0.99 0.1 -0.1 0.99 196.97 502.84)">
					<stop  offset="0" style="stop-color:#C42482"/>
					<stop  offset="8.000000e-02" style="stop-color:#C42482;stop-opacity:0.81"/>
					<stop  offset="0.21" style="stop-color:#C42482;stop-opacity:0.57"/>
					<stop  offset="0.33" style="stop-color:#C42482;stop-opacity:0.36"/>
					<stop  offset="0.45" style="stop-color:#C42482;stop-opacity:0.2"/>
					<stop  offset="0.56" style="stop-color:#C42482;stop-opacity:9.000000e-02"/>
					<stop  offset="0.67" style="stop-color:#C42482;stop-opacity:2.000000e-02"/>
					<stop  offset="0.77" style="stop-color:#C42482;stop-opacity:0"/>
				</linearGradient>
				<path style="fill:url(#SVGID_00000145739164895732072660000001485157634622224280_);" d="M10.6,21.4c1.6,0.6,3.5,0.5,4.6-0.2
					c0.8-0.4,1.7-1.1,2.3-0.9C17,20.1,16.6,20,16.1,20c-0.1,0-0.2,0-0.3,0c-0.2,0-0.3,0-0.5,0c-0.3,0-0.6,0.2-0.9,0.2
					c0,0,0.3-0.1,0.3-0.1c-0.2,0-0.3,0-0.5,0.1c-0.1,0-0.2,0-0.3,0c-3.3,0.3-6.2-1.8-6.2-1.8C7.5,19.2,8.8,20.8,10.6,21.4L10.6,21.4
					z"/>
				
					<linearGradient id="SVGID_00000079451643552975976220000014042477209887636371_" gradientUnits="userSpaceOnUse" x1="20.1795" y1="-782.8254" x2="30.1197" y2="-760.5981" gradientTransform="matrix(1 0 0 1 0 784)">
					<stop  offset="0" style="stop-color:#FFF14F"/>
					<stop  offset="0.27" style="stop-color:#FFEE4C"/>
					<stop  offset="0.45" style="stop-color:#FFE643"/>
					<stop  offset="0.61" style="stop-color:#FFD834"/>
					<stop  offset="0.76" style="stop-color:#FFC41E"/>
					<stop  offset="0.89" style="stop-color:#FFAB02"/>
					<stop  offset="0.9" style="stop-color:#FFA900"/>
					<stop  offset="0.95" style="stop-color:#FFA000"/>
					<stop  offset="1" style="stop-color:#FF9100"/>
				</linearGradient>
				<path style="fill:url(#SVGID_00000079451643552975976220000014042477209887636371_);" d="M26.5,26.1c3.4-3.3,5.1-7.4,4.4-11.9
					c0,0,0.3,2.3-0.8,4.7c0.5-2.3,0.6-5.2-0.8-8.2c-1.9-4-4.9-6.1-6.1-7c-1.8-1.3-2.5-2.7-2.5-3c-0.5,1.1-2.1,4.8-0.2,8
					c1.8,3,4.7,3.9,6.8,6.7C30.9,20.5,26.5,26.1,26.5,26.1z"/>
				
					<linearGradient id="SVGID_00000132088901652818908710000012397050847539702699_" gradientUnits="userSpaceOnUse" x1="22.1425" y1="-770.0419" x2="17.4342" y2="-757.3997" gradientTransform="matrix(1 0 0 1 0 784)">
					<stop  offset="0" style="stop-color:#FF8E00"/>
					<stop  offset="4.000000e-02" style="stop-color:#FF8E00;stop-opacity:0.86"/>
					<stop  offset="8.000000e-02" style="stop-color:#FF8E00;stop-opacity:0.73"/>
					<stop  offset="0.13" style="stop-color:#FF8E00;stop-opacity:0.63"/>
					<stop  offset="0.18" style="stop-color:#FF8E00;stop-opacity:0.56"/>
					<stop  offset="0.23" style="stop-color:#FF8E00;stop-opacity:0.51"/>
					<stop  offset="0.28" style="stop-color:#FF8E00;stop-opacity:0.5"/>
					<stop  offset="0.39" style="stop-color:#FF8E00;stop-opacity:0.48"/>
					<stop  offset="0.52" style="stop-color:#FF8E00;stop-opacity:0.42"/>
					<stop  offset="0.68" style="stop-color:#FF8E00;stop-opacity:0.31"/>
					<stop  offset="0.84" style="stop-color:#FF8E00;stop-opacity:0.17"/>
					<stop  offset="1" style="stop-color:#FF8E00;stop-opacity:0"/>
				</linearGradient>
				<path style="fill:url(#SVGID_00000132088901652818908710000012397050847539702699_);" d="M26,17.4c-1.2-2.4-2.7-3.5-4.1-4.7
					c0.2,0.2,0.2,0.3,0.3,0.5c1.2,1.3,3,4.5,1.7,8.5c-2.5,7.6-12.4,4-13.4,3c0.4,4.4,7.7,6.5,12.5,3.6C25.7,25.8,27.9,21.4,26,17.4z
					"/>
			</g>
		</g>
	</g>
</g>
</svg>
