<svg width="425" height="24" viewBox="0 0 425 24" fill="none" xmlns="http://www.w3.org/2000/svg">
<path d="M22.8 12.0002C22.8 17.9649 17.9647 22.8002 12 22.8002C6.03534 22.8002 1.20001 17.9649 1.20001 12.0002C1.20001 6.03552 6.03534 1.2002 12 1.2002C17.9647 1.2002 22.8 6.03552 22.8 12.0002Z" fill="#242428"/>
<path fill-rule="evenodd" clip-rule="evenodd" d="M24 12C24 18.6274 18.6274 24 12 24C5.37258 24 0 18.6274 0 12C0 5.37258 5.37258 0 12 0C18.6274 0 24 5.37258 24 12ZM12 22.8C17.9647 22.8 22.8 17.9647 22.8 12C22.8 6.03532 17.9647 1.2 12 1.2C6.03532 1.2 1.2 6.03532 1.2 12C1.2 17.9647 6.03532 22.8 12 22.8Z" fill="#F0F0F0"/>
<path d="M22.8 12.0002C22.8 17.9649 17.9647 22.8002 12 22.8002C6.03534 22.8002 1.20001 17.9649 1.20001 12.0002C1.20001 6.03552 6.03534 1.2002 12 1.2002C17.9647 1.2002 22.8 6.03552 22.8 12.0002Z" fill="#242428"/>
<mask id="mask0_2451_2825" style="mask-type:alpha" maskUnits="userSpaceOnUse" x="1" y="1" width="22" height="22">
<path d="M22.1992 12.0003C22.1992 17.6336 17.6325 22.2003 11.9992 22.2003C6.36589 22.2003 1.79919 17.6336 1.79919 12.0003C1.79919 6.36699 6.36589 1.80029 11.9992 1.80029C17.6325 1.80029 22.1992 6.36699 22.1992 12.0003Z" fill="#C4C4C4"/>
</mask>
<g mask="url(#mask0_2451_2825)">
<path d="M22.4992 1.26025H1.3792C1.31292 1.26025 1.2592 1.31398 1.2592 1.38025V8.56345L9.53191 5.668C9.68796 5.61339 9.8512 5.72921 9.8512 5.89453V8.22518C9.8512 8.3905 10.0144 8.50632 10.1705 8.4517L18.4432 5.55625L8.5 11.7708C8.34015 11.8707 8.1328 11.7557 8.1328 11.5672V10.3085C8.1328 10.1153 7.91607 10.0013 7.75683 10.1107L1.2592 14.5779V22.5003C1.2592 22.6328 1.36665 22.7403 1.4992 22.7403H22.6192C22.6855 22.7403 22.7392 22.6865 22.7392 22.6203V15.4371L14.4665 18.3325C14.3104 18.3871 14.1472 18.2713 14.1472 18.106V15.7753C14.1472 15.61 13.984 15.4942 13.8279 15.5488L5.5552 18.4443L15.4984 12.2298C15.6582 12.1298 15.8656 12.2448 15.8656 12.4333V13.692C15.8656 13.8852 16.0823 13.9993 16.2416 13.8898L22.7392 9.42265V1.50025C22.7392 1.36771 22.6317 1.26025 22.4992 1.26025Z" fill="#F0F0F0"/>
</g>
<path d="M132.8 2H156V6L154.937 4.93726C154.337 4.33714 153.523 4 152.674 4H135.2C133.433 4 132 5.43269 132 7.2C132 8.96731 133.433 10.4 135.2 10.4H149.6C153.134 10.4 156 13.2654 156 16.8V17.2C156 19.851 153.851 22 151.2 22H128V18L129.063 19.0627C129.663 19.6629 130.477 20 131.325 20H148.8C150.567 20 152 18.5673 152 16.8C152 15.0327 150.567 13.6 148.8 13.6H134.4C130.865 13.6 128 10.7346 128 7.2V6.8C128 4.14903 130.149 2 132.8 2Z" fill="white"/>
<path d="M120 2H126L124.937 3.06274C124.337 3.66286 124 4.47679 124 5.32548V18.8C124 20.5673 122.567 22 120.8 22H102.4C98.8652 22 95.9998 19.1346 95.9998 15.6V5.32548C95.9998 4.47679 95.6627 3.66286 95.0626 3.06274L93.9998 2H102L100.937 3.06274C100.337 3.66286 99.9998 4.47679 99.9998 5.32548V16.8C99.9998 18.5673 101.433 20 103.2 20H120.4C121.283 20 122 19.2837 122 18.4V5.32548C122 4.47679 121.663 3.66286 121.063 3.06274L120 2Z" fill="white"/>
<path d="M31.9998 6V2H59.9998L39.7998 20H56.6743C57.523 20 58.337 19.6629 58.9371 19.0627L59.9998 18V22H31.9998L51.4632 4H35.3253C34.4766 4 33.6627 4.33714 33.0626 4.93726L31.9998 6Z" fill="white"/>
<path d="M63.9998 2H88.7998C90.5671 2 91.9998 3.43269 91.9998 5.2V15.6C91.9998 19.1346 89.1344 22 85.5998 22H63.9998V18L65.0626 19.0627C65.6627 19.6629 66.4766 20 67.3253 20H84.7998C86.5671 20 87.9998 18.5646 87.9998 16.7972V5.60142C87.9998 4.71777 87.2835 4 86.3998 4H83.9998H67.3253C66.4766 4 65.6627 4.33714 65.0626 4.93726L63.9998 6V2Z" fill="white"/>
<path d="M72 13.9996V9.59961L73.24 10.3436C73.7373 10.642 74.3064 10.7996 74.8863 10.7996H88V12.7996H74.8863C74.3064 12.7996 73.7373 12.9572 73.24 13.2556L72 13.9996Z" fill="white"/>
</svg>
