<?xml version="1.0" encoding="UTF-8"?>
<svg xmlns="http://www.w3.org/2000/svg" width="332" height="332" xmlns:xlink="http://www.w3.org/1999/xlink" viewBox="0 0 332 332">
  <defs>
    <style>
      .cls-1 {
        fill: url(#linear-gradient-3);
      }

      .cls-2 {
        fill: url(#linear-gradient-2);
      }

      .cls-3 {
        fill: url(#linear-gradient);
      }
    </style>
    <linearGradient id="linear-gradient" x1="166" y1="36.96" x2="166" y2="295.04" gradientTransform="matrix(1, 0, 0, 1, 0, 0)" gradientUnits="userSpaceOnUse">
      <stop offset="0" stop-color="#f0d033"/>
      <stop offset="1" stop-color="#f09b33"/>
    </linearGradient>
    <linearGradient id="linear-gradient-2" x1="166" y1="0" x2="166" y2="332" xlink:href="#linear-gradient"/>
    <linearGradient id="linear-gradient-3" x1="166" y1="9.33" x2="166" y2="322.76" xlink:href="#linear-gradient"/>
  </defs>
  <g id="Layer_4" data-name="Layer 4"/>
  <g id="Layer_2" data-name="Layer 2">
    <g>
      <path class="cls-3" d="M274.58,235.76c6.65-10.33,11.82-21.61,15.27-33.38,3.46-11.78,5.2-24.05,5.19-36.37,0-12.32-1.74-24.6-5.19-36.37-3.45-11.78-8.61-23.06-15.27-33.39l-.29-.44c-6.6-10.16-14.64-19.39-23.8-27.33-9.29-8.06-19.72-14.78-30.89-19.89l-.49-.22c-11.02-4.99-22.75-8.4-34.73-10.1-12.15-1.73-24.62-1.73-36.78,0-12.16,1.73-24.06,5.21-35.22,10.32-11.17,5.11-21.6,11.83-30.89,19.89-9.29,8.05-17.43,17.44-24.08,27.77-6.65,10.33-11.82,21.61-15.27,33.39-6.92,23.53-6.92,49.21,0,72.74,3.45,11.78,8.61,23.05,15.27,33.38,6.65,10.33,14.79,19.72,24.08,27.77,9.29,8.06,19.72,14.78,30.89,19.88,11.16,5.11,23.06,8.6,35.22,10.33,12.15,1.73,24.62,1.73,36.78,0,12.16-1.73,24.05-5.21,35.22-10.33,11.17-5.1,21.6-11.83,30.89-19.88,9.29-8.05,17.43-17.44,24.08-27.77ZM44.33,193.31c-4.58-20.51-3.92-42.32,2.01-62.46,.82-2.79,1.74-5.56,2.75-8.29l87.99-30.8c1.83-.64,3.74,.72,3.74,2.66v27.32c0,1.94,1.91,3.3,3.74,2.66l96.98-33.94-116.57,72.85c-1.87,1.17-4.3-.18-4.3-2.39v-14.76c0-2.27-2.54-3.6-4.41-2.32l-71.94,49.46Zm150.6,46.93c-1.83,.64-3.74-.72-3.74-2.66v-27.32c0-1.94-1.91-3.3-3.74-2.66l-96.98,33.94,116.57-72.85c1.87-1.17,4.3,.18,4.3,2.39v14.76c0,2.27,2.54,3.6,4.41,2.32l71.94-49.46c1.99,8.94,3.01,18.11,3.01,27.31,0,11.91-1.68,23.77-5.02,35.15-.82,2.79-1.74,5.56-2.75,8.29l-87.99,30.8Z"/>
      <path class="cls-2" d="M325.31,119.23c-4.45-15.19-11.1-29.71-19.66-43l-.3-.46c-8.5-13.1-18.85-24.99-30.64-35.22-11.93-10.35-25.34-19-39.73-25.58l-.5-.23c-14.23-6.46-29.41-10.88-44.88-13.08-15.66-2.22-31.55-2.22-47.21,0-15.65,2.22-31,6.72-45.38,13.3-14.39,6.58-27.8,15.22-39.73,25.58-11.93,10.35-22.39,22.39-30.94,35.68-8.56,13.28-15.21,27.81-19.66,43C2.23,134.41,0,150.24,0,166c0,15.76,2.23,31.59,6.69,46.77,4.45,15.18,11.1,29.71,19.66,43,8.55,13.29,19.01,25.34,30.94,35.68,11.93,10.35,25.35,19,39.73,25.57,14.38,6.59,29.73,11.08,45.38,13.31,15.66,2.22,31.55,2.22,47.21,0,15.65-2.22,31-6.72,45.38-13.31,14.39-6.58,27.8-15.23,39.73-25.58,11.93-10.35,22.39-22.39,30.94-35.68,8.56-13.28,15.21-27.82,19.66-43,4.46-15.18,6.69-31.01,6.69-46.77,0-15.76-2.23-31.59-6.69-46.77Zm-4.18,92.31c-4.33,14.78-10.81,28.93-19.14,41.87-8.33,12.94-18.51,24.67-30.13,34.75-11.62,10.08-24.68,18.5-38.69,24.9-14,6.41-28.94,10.79-44.18,12.96-15.25,2.17-30.73,2.17-45.98,0l-.54-.08c-15.05-2.19-29.81-6.54-43.64-12.88-14.01-6.4-27.07-14.82-38.69-24.9l-.41-.36c-11.45-10-21.49-21.61-29.72-34.39-8.33-12.93-14.81-27.08-19.14-41.86l-.16-.53c-4.24-14.62-6.36-29.84-6.35-45.01,0-15.36,2.17-30.76,6.51-45.54,9.97-34.05,15.54-36.28,19.14-41.87,8.33-12.94,18.51-24.67,30.13-34.75,11.62-10.08,24.68-18.5,38.69-24.9,14-6.41,28.94-10.79,44.18-12.96,15.25-2.17,30.73-2.17,45.98,0,15.24,2.17,30.18,6.54,44.18,12.96,14,6.4,27.07,14.82,38.69,24.9,11.62,10.08,21.8,21.81,30.13,34.75,8.33,12.94,14.82,27.08,19.14,41.87,4.34,14.78,6.51,30.19,6.51,45.54,0,15.36-2.17,30.76-6.51,45.54Z"/>
      <path class="cls-1" d="M322.75,164.13c-.02-1.55-1.32-2.77-2.87-2.73l-12.85,.38c-1.55,.05-2.85-1.18-2.92-2.73-.13-2.72-.35-5.43-.64-8.14-.15-1.34,.8-2.56,2.14-2.73,1.34-.17,2.56,.78,2.71,2.12,.14,1.27,.26,2.54,.36,3.82,.13,1.55,1.46,2.73,3.01,2.63l7.96-.5c1.55-.1,2.73-1.43,2.61-2.98-.51-6.3-1.39-12.57-2.66-18.77-.31-1.52-1.82-2.48-3.33-2.14l-12.54,2.8c-1.52,.34-3.02-.62-3.39-2.13-.65-2.64-1.37-5.26-2.17-7.86-.4-1.29,.3-2.67,1.58-3.09,1.28-.42,2.66,.28,3.06,1.57,.38,1.22,.74,2.45,1.08,3.68,.42,1.5,1.95,2.4,3.45,2.01l7.72-2c1.5-.39,2.41-1.93,1.99-3.42-1.7-6.09-3.76-12.08-6.19-17.93-.6-1.44-2.26-2.09-3.68-1.47l-11.78,5.14c-1.43,.62-3.08-.03-3.73-1.44-1.14-2.47-2.35-4.91-3.63-7.3-.64-1.19-.22-2.68,.96-3.33,1.18-.66,2.67-.23,3.3,.96,.6,1.13,1.19,2.26,1.76,3.4,.7,1.39,2.37,1.98,3.78,1.32l7.19-3.43c1.4-.67,2-2.35,1.31-3.74-2.47-4.94-5.46-10.17-8.46-14.84h0c-.06-.09-.12-.18-.18-.28-.04-.06-.07-.12-.11-.18h0c-.24-.38-.49-.75-.74-1.13-.85-1.29-2.6-1.61-3.88-.74l-10.6,7.28c-1.28,.88-3.03,.55-3.94-.71-1.59-2.21-3.24-4.38-4.95-6.49-.85-1.05-.72-2.59,.32-3.45,1.03-.87,2.57-.74,3.42,.31,.81,.99,1.6,2,2.38,3.01,.95,1.23,2.7,1.5,3.95,.58l6.41-4.73c1.25-.92,1.52-2.69,.57-3.92-3.84-5.02-7.98-9.8-12.4-14.32-1.09-1.11-2.87-1.1-3.96,0l-9.03,9.14c-1.09,1.11-2.87,1.11-4,.04-1.97-1.87-4-3.69-6.08-5.44-1.03-.87-1.19-2.41-.34-3.45,.85-1.05,2.39-1.21,3.42-.34,.98,.82,1.94,1.66,2.9,2.51,1.16,1.03,2.94,.97,4-.18l5.41-5.85c1.05-1.14,.99-2.92-.17-3.96-4.72-4.2-9.69-8.13-14.87-11.73-1.28-.89-3.02-.54-3.89,.75l-7.15,10.68c-.86,1.29-2.61,1.64-3.92,.8-2.29-1.47-4.63-2.87-7-4.2-1.18-.66-1.62-2.14-.99-3.32,.64-1.19,2.12-1.64,3.3-.98,1.11,.62,2.22,1.26,3.32,1.91,1.34,.79,3.07,.39,3.89-.93l4.21-6.77c.82-1.32,.42-3.06-.92-3.85-4.89-2.92-9.94-5.57-15.12-7.95l-.85-.39c-.29-.13-.57-.26-.86-.38-1.42-.63-3.07,.04-3.68,1.48l-4.99,11.84c-.6,1.43-2.25,2.1-3.7,1.53-2.53-1-5.08-1.93-7.67-2.79-1.28-.42-2-1.79-1.6-3.08,.4-1.29,1.77-2.01,3.05-1.59,1.21,.4,2.42,.82,3.62,1.25,1.46,.53,3.09-.2,3.64-1.65l2.85-7.44c.55-1.45-.17-3.08-1.63-3.61-5.95-2.15-12.03-3.94-18.2-5.35-1.51-.35-3.01,.63-3.33,2.15l-2.64,12.58c-.32,1.52-1.81,2.49-3.34,2.2-2.67-.5-5.36-.93-8.06-1.27-1.34-.17-2.31-1.38-2.16-2.72,.15-1.34,1.35-2.31,2.69-2.14,1.27,.16,2.53,.34,3.79,.54,1.54,.24,3-.78,3.26-2.31l1.37-7.85c.27-1.53-.75-2.99-2.29-3.23-6.25-.98-12.55-1.58-18.86-1.8-1.55-.05-2.83,1.19-2.86,2.74l-.22,12.85c-.03,1.55-1.31,2.79-2.86,2.79-2.72,0-5.45,.09-8.17,.26-1.35,.08-2.52-.92-2.63-2.26-.11-1.34,.9-2.52,2.25-2.61,1.27-.08,2.55-.14,3.83-.18,1.55-.05,2.8-1.33,2.77-2.89l-.12-7.97c-.02-1.55-1.3-2.8-2.86-2.74-5.69,.19-11.37,.68-17,1.49-.62,.09-1.24,.18-1.86,.28-1.53,.24-2.56,1.69-2.29,3.22l2.19,12.67c.27,1.53-.76,2.99-2.29,3.28-2.67,.52-5.32,1.12-7.96,1.79-1.31,.34-2.65-.43-3.01-1.73-.36-1.3,.4-2.65,1.71-2.98,1.24-.32,2.48-.62,3.72-.9,1.52-.35,2.49-1.83,2.18-3.36l-1.62-7.8c-.32-1.52-1.81-2.5-3.32-2.16-6.17,1.4-12.25,3.18-18.2,5.32-1.46,.53-2.19,2.15-1.64,3.61l4.57,12.01c.55,1.45-.18,3.08-1.62,3.66-2.52,1.02-5.01,2.11-7.47,3.28-1.22,.58-2.68,.09-3.28-1.12-.6-1.21-.11-2.68,1.11-3.25,1.15-.55,2.31-1.08,3.48-1.6,1.42-.63,2.1-2.28,1.5-3.71l-3.08-7.35c-.6-1.43-2.25-2.11-3.67-1.48-5.79,2.55-11.42,5.45-16.85,8.69-1.34,.79-1.74,2.53-.92,3.85l6.77,10.93c.82,1.32,.41,3.05-.9,3.9-2.28,1.48-4.52,3.03-6.72,4.64-1.09,.8-2.62,.59-3.44-.48-.82-1.07-.61-2.61,.47-3.41,1.03-.76,2.07-1.5,3.12-2.23,1.28-.89,1.63-2.63,.77-3.92l-4.42-6.63c-.86-1.29-2.61-1.64-3.89-.76-4.18,2.89-8.2,6-12.08,9.28h0c-.16,.12-.47,.4-.84,.71-.19,.16-.38,.31-.56,.47h0c-.59,.52-1.18,1.03-1.41,1.24-1.16,1.03-1.23,2.82-.18,3.96l8.7,9.45c1.05,1.14,.98,2.92-.15,4-1.96,1.88-3.87,3.82-5.72,5.82-.92,.99-2.46,1.08-3.46,.18-1-.9-1.09-2.44-.18-3.43,.87-.94,1.75-1.86,2.64-2.78,1.09-1.11,1.1-2.89,.01-4l-5.59-5.68c-1.09-1.11-2.87-1.12-3.96-.01-4.42,4.51-8.57,9.29-12.42,14.3-.95,1.23-.68,3,.57,3.92l10.33,7.65c1.25,.92,1.51,2.68,.61,3.95-1.57,2.22-3.08,4.48-4.52,6.79-.71,1.14-2.21,1.52-3.37,.83-1.16-.69-1.53-2.19-.82-3.34,.68-1.08,1.37-2.16,2.07-3.23,.86-1.3,.54-3.05-.74-3.93l-6.56-4.52c-1.28-.88-3.03-.56-3.89,.73-3.5,5.27-6.67,10.75-9.51,16.4-.7,1.39-.1,3.07,1.3,3.74l11.59,5.55c1.4,.67,1.99,2.35,1.35,3.77-1.12,2.48-2.18,4.98-3.15,7.52-.48,1.26-1.88,1.91-3.15,1.45-1.27-.46-1.92-1.86-1.44-3.12,.46-1.19,.93-2.38,1.42-3.56,.6-1.43-.05-3.09-1.47-3.72l-7.3-3.2c-1.42-.62-3.09,.02-3.68,1.46-2.19,5.26-4.1,10.64-5.7,16.11-.18,.6-.35,1.2-.52,1.81-.42,1.5,.49,3.03,1.99,3.42l12.44,3.24c1.5,.39,2.4,1.93,2.04,3.44-.63,2.64-1.19,5.31-1.66,7.99-.24,1.33-1.48,2.24-2.82,2.02-1.33-.21-2.24-1.46-2.01-2.79,.22-1.26,.46-2.51,.72-3.77,.31-1.52-.64-3.03-2.15-3.37l-7.78-1.75c-1.52-.34-3.02,.61-3.34,2.13-1.28,6.19-2.17,12.46-2.69,18.76-.13,1.55,1.05,2.89,2.6,2.99l12.83,.83c1.55,.1,2.72,1.44,2.65,2.99-.12,2.72-.16,5.45-.12,8.17,.02,1.35-1.04,2.47-2.38,2.52-1.35,.04-2.48-1.02-2.5-2.36-.02-1.28-.02-2.56,0-3.83,.02-1.55-1.2-2.85-2.75-2.9l-7.97-.25c-1.55-.05-2.85,1.17-2.88,2.73-.08,6.31,.2,12.63,.87,18.91,.16,1.55,1.57,2.64,3.11,2.45l12.75-1.59c1.54-.19,2.94,.9,3.17,2.44,.39,2.69,.86,5.37,1.41,8.03,.27,1.32-.55,2.63-1.87,2.92-1.32,.3-2.62-.53-2.9-1.85-.26-1.25-.5-2.5-.73-3.76-.27-1.53-1.71-2.58-3.25-2.33l-7.87,1.25c-1.53,.24-2.58,1.69-2.31,3.22,.99,5.61,2.3,11.17,3.9,16.64,.18,.6,.36,1.2,.54,1.8,.45,1.48,2.04,2.29,3.52,1.81l12.22-3.99c1.48-.48,3.06,.33,3.58,1.79,.9,2.57,1.87,5.11,2.91,7.62,.52,1.24-.04,2.68-1.28,3.23-1.23,.54-2.68-.02-3.2-1.26-.49-1.18-.97-2.36-1.43-3.55-.56-1.45-2.17-2.2-3.63-1.67l-7.49,2.73c-1.46,.53-2.22,2.15-1.66,3.6,2.27,5.9,4.9,11.67,7.87,17.25,.73,1.37,2.44,1.86,3.8,1.11l11.24-6.24c1.36-.75,3.07-.26,3.85,1.08,1.37,2.35,2.81,4.66,4.31,6.93,.75,1.12,.47,2.64-.64,3.41-1.11,.76-2.63,.49-3.38-.64-.71-1.06-1.4-2.14-2.08-3.22-.83-1.32-2.55-1.75-3.88-.95l-6.84,4.1c-1.33,.8-1.77,2.53-.94,3.85,3.35,5.36,7.02,10.52,10.99,15.44,.98,1.21,2.75,1.36,3.94,.37l9.86-8.25c1.19-1,2.96-.84,3.98,.33,1.79,2.05,3.64,4.05,5.54,5.99,.94,.96,.96,2.51,.01,3.47-.95,.96-2.49,.98-3.44,.01-.9-.91-1.78-1.84-2.65-2.77-1.06-1.14-2.84-1.24-3.99-.2l-5.94,5.32c-1.16,1.04-1.26,2.82-.2,3.96,3.87,4.17,7.97,8.13,12.27,11.87,.47,.41,.95,.82,1.42,1.22,1.19,1,2.96,.82,3.94-.38l8.13-9.95c.98-1.2,2.75-1.38,3.98-.42,2.14,1.68,4.33,3.29,6.57,4.84,1.11,.77,1.41,2.28,.67,3.4-.75,1.12-2.27,1.43-3.38,.66-1.05-.73-2.09-1.47-3.12-2.22-1.25-.92-3.02-.68-3.96,.55l-4.83,6.34c-.94,1.24-.71,3,.55,3.92,5.09,3.74,10.42,7.17,15.93,10.27,1.35,.76,3.06,.25,3.8-1.12l6.1-11.31c.74-1.37,2.44-1.88,3.83-1.17,2.42,1.24,4.87,2.41,7.36,3.51,1.23,.54,1.82,1.97,1.3,3.22-.52,1.24-1.95,1.83-3.19,1.29-1.17-.51-2.33-1.04-3.49-1.59-1.4-.66-3.09-.1-3.78,1.29l-3.54,7.14c-.69,1.39-.12,3.08,1.28,3.75,5.71,2.71,11.6,5.07,17.6,7.07,1.47,.49,3.05-.34,3.52-1.82l3.83-12.27c.46-1.48,2.04-2.31,3.53-1.87,2.61,.76,5.25,1.44,7.9,2.04,1.31,.3,2.16,1.59,1.89,2.91-.28,1.32-1.57,2.17-2.88,1.87-1.25-.28-2.49-.58-3.73-.9-1.5-.38-3.05,.49-3.46,1.99l-2.12,7.68c-.41,1.5,.47,3.05,1.97,3.44,4.91,1.26,9.89,2.27,14.9,3.04h0c.21,.04,.64,.11,1.14,.18,.24,.04,.48,.08,.73,.11h0c.78,.1,1.55,.21,1.86,.25,1.54,.2,2.93-.91,3.11-2.46l1.43-12.77c.17-1.54,1.56-2.65,3.11-2.51,2.71,.25,5.43,.42,8.15,.51,1.35,.04,2.43,1.15,2.4,2.5-.02,1.35-1.13,2.43-2.48,2.38-1.28-.04-2.56-.1-3.83-.17-1.55-.09-2.9,1.06-3.03,2.61l-.62,7.94c-.12,1.55,1.04,2.91,2.59,3,6.3,.38,12.62,.39,18.93,.02,1.55-.09,2.71-1.45,2.59-3l-.98-12.81c-.12-1.55,1.04-2.9,2.59-3.05,2.71-.26,5.41-.6,8.1-1.03,1.33-.21,2.6,.68,2.83,2,.23,1.33-.66,2.6-1.99,2.81-1.26,.2-2.53,.38-3.79,.55-1.54,.2-2.66,1.59-2.49,3.13l.87,7.92c.17,1.54,1.56,2.66,3.1,2.46,6.27-.81,12.5-1.99,18.62-3.55,1.51-.38,2.39-1.93,1.98-3.43l-3.39-12.4c-.41-1.5,.47-3.04,1.96-3.49,2.61-.77,5.19-1.62,7.74-2.55,1.27-.46,2.68,.17,3.16,1.43s-.15,2.67-1.42,3.13c-1.2,.43-2.41,.85-3.62,1.26-1.48,.49-2.31,2.06-1.84,3.55l2.36,7.61c.46,1.48,2.04,2.32,3.51,1.83,5.24-1.73,10.85-3.96,15.9-6.25h0c.1-.04,.21-.09,.31-.14,.06-.03,.11-.05,.17-.08h0c.41-.19,.81-.38,1.22-.57,1.41-.66,1.98-2.36,1.29-3.75l-5.69-11.52c-.69-1.39-.12-3.08,1.26-3.79,2.41-1.25,4.79-2.58,7.13-3.98,1.16-.69,2.66-.34,3.37,.8,.71,1.15,.36,2.65-.79,3.34-1.1,.66-2.2,1.3-3.32,1.92-1.35,.76-1.87,2.46-1.13,3.83l3.77,7.02c.73,1.37,2.44,1.89,3.8,1.13,5.52-3.09,10.84-6.51,15.94-10.25,1.25-.92,1.49-2.68,.55-3.92l-7.77-10.24c-.94-1.24-.7-3,.52-3.96,2.13-1.69,4.22-3.44,6.25-5.25,1.01-.9,2.55-.84,3.46,.15,.91,.99,.86,2.53-.15,3.43-.95,.85-1.92,1.69-2.89,2.52-1.19,1-1.37,2.77-.39,3.98l5.03,6.18c.98,1.21,2.75,1.39,3.94,.39,4.83-4.07,9.41-8.44,13.72-13.06,1.06-1.14,.96-2.92-.19-3.96l-9.56-8.59c-1.16-1.04-1.25-2.82-.23-3.99,1.78-2.06,3.49-4.17,5.15-6.34,.82-1.07,2.35-1.3,3.43-.5,1.09,.8,1.32,2.33,.5,3.4-.77,1.01-1.56,2.02-2.36,3.01-.98,1.21-.83,2.98,.37,3.98l6.1,5.12c1.19,1,2.97,.85,3.94-.36,3.58-4.42,6.93-9.04,10.01-13.83l.51-.79c.17-.26,.33-.53,.5-.79,.83-1.32,.4-3.05-.94-3.85l-11.01-6.63c-1.33-.8-1.76-2.53-.98-3.88,1.36-2.36,2.64-4.75,3.85-7.19,.6-1.21,2.06-1.73,3.28-1.14,1.22,.58,1.73,2.04,1.13,3.24-.57,1.14-1.16,2.28-1.76,3.41-.73,1.37-.24,3.08,1.11,3.84l6.96,3.88c1.36,.76,3.07,.27,3.81-1.1,2.98-5.58,5.62-11.34,7.9-17.24,.56-1.45-.19-3.07-1.65-3.6l-12.07-4.42c-1.46-.53-2.21-2.15-1.7-3.62,.88-2.57,1.69-5.17,2.41-7.79,.36-1.3,1.69-2.08,3-1.75,1.31,.34,2.09,1.67,1.73,2.97-.34,1.23-.7,2.46-1.07,3.68-.46,1.49,.35,3.07,1.82,3.56l7.57,2.49c1.48,.48,3.07-.32,3.53-1.8,1.86-6.04,3.36-12.2,4.47-18.43,.27-1.53-.77-2.97-2.31-3.22l-12.69-2.04c-1.53-.25-2.58-1.69-2.36-3.23,.38-2.69,.67-5.4,.89-8.11,.11-1.34,1.26-2.37,2.61-2.28,1.35,.08,2.37,1.24,2.26,2.59-.1,1.27-.22,2.55-.35,3.82-.16,1.55,.92,2.95,2.47,3.15l7.91,1c1.54,.2,2.95-.9,3.12-2.44,.61-5.66,.92-11.35,.92-17.04,0-.62,0-1.25-.01-1.87Zm-4.84,14.2c-.11,1.34-1.3,2.33-2.65,2.2-1.34-.13-2.32-1.32-2.22-2.67,.11-1.36,.2-2.73,.27-4.1,.08-1.55-1.14-2.85-2.69-2.9l-7.96-.26c-1.55-.05-2.85,1.17-2.93,2.72-.28,5.12-.84,10.23-1.7,15.28-.26,1.53,.74,3.01,2.26,3.3l12.63,2.42c1.53,.29,2.53,1.77,2.21,3.29-.66,3.11-1.41,6.2-2.26,9.27-.36,1.3-1.72,2.04-3.01,1.65-1.29-.38-2.03-1.74-1.67-3.04,.37-1.32,.71-2.64,1.04-3.97,.37-1.51-.58-3.02-2.09-3.36l-7.77-1.76c-1.52-.34-3.02,.61-3.4,2.12-1.24,4.97-2.77,9.87-4.57,14.66-.55,1.45,.15,3.09,1.59,3.67l11.93,4.78c1.44,.58,2.15,2.22,1.54,3.65-1.24,2.93-2.57,5.82-3.98,8.66-.6,1.21-2.08,1.67-3.27,1.05-1.2-.62-1.66-2.09-1.06-3.3,.61-1.23,1.2-2.46,1.78-3.71,.65-1.41,0-3.07-1.42-3.7l-7.29-3.21c-1.42-.63-3.08,.02-3.74,1.43-2.16,4.65-4.6,9.17-7.28,13.53-.81,1.32-.44,3.06,.87,3.9l10.8,6.96c1.31,.84,1.69,2.58,.82,3.87-1.77,2.64-3.62,5.22-5.55,7.74-.82,1.07-2.36,1.25-3.41,.41-1.06-.84-1.24-2.37-.42-3.44,.83-1.09,1.65-2.19,2.45-3.3,.91-1.26,.59-3.02-.69-3.9l-6.55-4.54c-1.28-.88-3.03-.56-3.94,.7-3.01,4.15-6.25,8.14-9.72,11.92-1.05,1.15-1.01,2.93,.11,4l9.3,8.87c1.12,1.07,1.17,2.86,.07,3.96-2.23,2.26-4.54,4.44-6.9,6.56-1.01,.9-2.55,.79-3.43-.24-.88-1.02-.77-2.56,.24-3.46,1.02-.91,2.03-1.84,3.02-2.78,1.13-1.07,1.15-2.85,.06-3.96l-5.58-5.69c-1.09-1.11-2.87-1.12-4-.06-3.74,3.51-7.67,6.82-11.79,9.88-1.25,.93-1.54,2.68-.64,3.95l7.46,10.46c.9,1.26,.61,3.02-.67,3.9-2.62,1.8-5.3,3.51-8.02,5.14-1.16,.69-2.65,.29-3.32-.88-.67-1.17-.27-2.66,.89-3.35,1.18-.7,2.34-1.42,3.5-2.16,1.31-.83,1.66-2.58,.8-3.88l-4.41-6.64c-.86-1.29-2.6-1.64-3.92-.81-4.33,2.75-8.82,5.24-13.43,7.47-1.4,.68-2.02,2.34-1.38,3.76l6.52,14.26h0c-3.74,1.7-7.56,3.26-11.43,4.66-1.27,.46-2.66-.22-3.1-1.5-.44-1.28,.24-2.66,1.51-3.12,1.29-.47,2.57-.95,3.84-1.46,1.45-.57,2.12-2.22,1.52-3.65l-3.07-7.35c-.6-1.43-2.24-2.11-3.69-1.54-4.77,1.87-9.65,3.47-14.6,4.78-1.5,.4-2.43,1.91-2.07,3.43l3.02,12.49c.37,1.51-.56,3.03-2.08,3.37-3.1,.69-6.23,1.28-9.37,1.78-1.33,.21-2.57-.72-2.75-2.06s.74-2.57,2.07-2.78c1.35-.21,2.7-.45,4.05-.7,1.53-.28,2.51-1.78,2.19-3.3l-1.61-7.8c-.31-1.52-1.8-2.5-3.33-2.22-5.04,.93-10.14,1.57-15.26,1.91-1.55,.11-2.75,1.42-2.68,2.97l.6,12.84c.07,1.55-1.13,2.87-2.68,2.92-3.17,.09-6.35,.09-9.52-.02-1.35-.05-2.39-1.19-2.32-2.54,.07-1.35,1.21-2.38,2.56-2.34,1.37,.04,2.74,.07,4.1,.08,1.55,0,2.8-1.27,2.78-2.83l-.11-7.97c-.02-1.55-1.3-2.79-2.85-2.8-5.14-.03-10.27-.36-15.36-.98-1.54-.19-2.97,.88-3.19,2.42l-2.21,15.51h0c-4.07-.58-8.13-1.33-12.14-2.23-1.32-.3-2.12-1.62-1.8-2.93,.32-1.31,1.64-2.11,2.96-1.82,1.34,.3,2.68,.59,4.02,.85,1.52,.3,2.99-.72,3.26-2.25l1.39-7.85c.27-1.53-.75-2.99-2.27-3.29-5.03-1-9.99-2.29-14.87-3.86-1.48-.48-3.08,.3-3.59,1.77l-4.2,12.15c-.51,1.47-2.11,2.25-3.57,1.71-2.98-1.1-5.93-2.28-8.84-3.57-1.23-.54-1.77-2-1.21-3.22,.56-1.22,2.01-1.76,3.24-1.22,1.25,.55,2.52,1.09,3.79,1.6,1.44,.59,3.07-.14,3.63-1.59l2.86-7.44c.56-1.45-.17-3.08-1.61-3.66-4.74-1.94-9.37-4.15-13.86-6.63-1.36-.75-3.08-.29-3.86,1.05l-6.44,11.13c-.78,1.35-2.5,1.81-3.83,1-2.72-1.64-5.39-3.37-8-5.18-1.11-.77-1.36-2.29-.58-3.39,.79-1.1,2.31-1.35,3.42-.58,1.13,.78,2.26,1.54,3.41,2.29,1.3,.85,3.04,.44,3.86-.87l4.22-6.76c.82-1.32,.42-3.05-.88-3.9-4.29-2.81-8.42-5.86-12.37-9.14-1.2-.99-2.97-.87-3.99,.3l-8.42,9.71c-1.02,1.17-2.8,1.3-3.95,.26-2.36-2.12-4.66-4.32-6.88-6.59-.94-.96-.9-2.51,.07-3.44,.98-.93,2.52-.89,3.47,.07,.96,.98,1.93,1.94,2.92,2.89,1.12,1.08,2.9,1.01,3.96-.13l5.42-5.84c1.06-1.14,.99-2.92-.13-4-3.69-3.57-7.17-7.34-10.43-11.31-.99-1.2-2.75-1.41-3.97-.45l-10.1,7.95c-1.22,.96-2.99,.75-3.93-.49-1.92-2.53-3.76-5.12-5.52-7.77-.75-1.12-.41-2.64,.72-3.36,1.13-.73,2.64-.4,3.39,.73,.76,1.14,1.53,2.27,2.32,3.39,.9,1.27,2.66,1.54,3.91,.62l6.42-4.72c1.25-.92,1.52-2.68,.63-3.95-2.95-4.2-5.66-8.56-8.11-13.06-.74-1.37-2.44-1.91-3.82-1.2l-11.42,5.9c-1.38,.71-3.08,.17-3.77-1.22-1.41-2.85-2.72-5.74-3.95-8.68-.52-1.24,.09-2.67,1.35-3.16,1.25-.5,2.67,.11,3.19,1.36,.53,1.26,1.07,2.52,1.64,3.77,.64,1.42,2.32,2.01,3.72,1.35l7.2-3.42c1.4-.67,2-2.34,1.36-3.76-2.1-4.67-3.93-9.47-5.47-14.35-.47-1.48-2.03-2.34-3.52-1.9l-12.33,3.62c-1.49,.44-3.06-.42-3.47-1.92-.84-3.07-1.58-6.16-2.22-9.27-.27-1.32,.6-2.6,1.92-2.85,1.33-.25,2.6,.62,2.88,1.94,.28,1.34,.57,2.68,.89,4.01,.36,1.51,1.89,2.42,3.4,2.03l7.72-1.98c1.51-.39,2.41-1.92,2.05-3.43-1.17-4.99-2.05-10.05-2.64-15.14-.18-1.54-1.55-2.68-3.09-2.53l-12.8,1.21c-1.55,.15-2.92-.99-3.04-2.54-.24-3.17-.38-6.34-.43-9.51-.02-1.35,1.08-2.44,2.43-2.44,1.35,0,2.44,1.1,2.46,2.45,.02,1.37,.06,2.74,.12,4.1,.07,1.55,1.4,2.73,2.95,2.64l7.96-.48c1.55-.09,2.73-1.43,2.67-2.98-.21-5.13-.12-10.28,.25-15.4,.11-1.55-1.02-2.92-2.57-3.07l-12.8-1.2c-1.55-.15-2.69-1.52-2.51-3.06,.36-3.16,.81-6.3,1.37-9.43,.23-1.33,1.52-2.19,2.84-1.94,1.32,.26,2.19,1.54,1.95,2.86-.24,1.35-.46,2.7-.66,4.06-.23,1.54,.86,2.95,2.41,3.14l7.9,1.01c1.54,.2,2.95-.89,3.18-2.43,.76-5.07,1.81-10.09,3.15-15.04,.41-1.5-.45-3.06-1.94-3.5l-12.33-3.62c-1.49-.44-2.35-2-1.88-3.48,.95-3.03,2-6.04,3.14-9,.48-1.26,1.91-1.86,3.16-1.36,1.25,.5,1.85,1.93,1.37,3.18-.49,1.28-.96,2.57-1.42,3.86-.52,1.47,.29,3.06,1.76,3.54l7.57,2.5c1.48,.49,3.06-.32,3.58-1.78,1.71-4.83,3.7-9.56,5.95-14.16,.68-1.4,.15-3.09-1.23-3.81l-11.42-5.9c-1.38-.71-1.92-2.41-1.19-3.78,1.51-2.8,3.11-5.54,4.79-8.24,.71-1.14,2.23-1.47,3.36-.73,1.13,.73,1.45,2.24,.74,3.39-.72,1.16-1.43,2.33-2.12,3.51-.79,1.34-.3,3.06,1.06,3.82l6.95,3.89c1.36,.76,3.07,.27,3.86-1.07,2.6-4.42,5.45-8.69,8.54-12.79,.94-1.24,.73-3.01-.49-3.97l-10.1-7.95c-1.22-.96-1.43-2.73-.45-3.93,2.01-2.46,4.1-4.85,6.26-7.18,.92-.99,2.46-1.02,3.44-.09,.97,.93,1.01,2.48,.09,3.47-.93,1-1.85,2.02-2.75,3.05-1.02,1.17-.87,2.95,.32,3.95l6.09,5.14c1.19,1,2.96,.85,3.99-.32,3.39-3.85,7-7.51,10.8-10.95,1.15-1.04,1.28-2.82,.26-3.99l-9.16-12.76c2.77-2.36,5.6-4.63,8.53-6.78,1.09-.8,2.61-.54,3.39,.56,.78,1.1,.52,2.62-.56,3.42-1.1,.81-2.19,1.64-3.27,2.48-1.23,.96-1.41,2.73-.43,3.94l5.02,6.19c.98,1.21,2.75,1.39,3.98,.44,4.05-3.15,8.28-6.06,12.67-8.72,1.33-.81,1.79-2.52,1.01-3.87l-6.44-11.12c-.78-1.35-.32-3.07,1.04-3.82,2.78-1.54,5.61-2.99,8.48-4.36,1.22-.58,2.67-.03,3.23,1.19,.56,1.23,.02,2.67-1.2,3.25-1.24,.59-2.47,1.19-3.69,1.82-1.38,.71-1.9,2.41-1.17,3.78l3.76,7.03c.73,1.37,2.44,1.88,3.82,1.18,4.57-2.32,9.27-4.38,14.08-6.15,1.46-.54,2.24-2.14,1.73-3.61l-4.2-12.15c-.51-1.47,.27-3.07,1.75-3.55,3.02-.98,6.08-1.87,9.15-2.66,1.31-.34,2.63,.47,2.94,1.79,.31,1.31-.49,2.63-1.8,2.96-1.33,.34-2.65,.7-3.97,1.08-1.49,.43-2.32,2.01-1.87,3.49l2.35,7.62c.46,1.49,2.03,2.31,3.53,1.89,4.93-1.41,9.93-2.53,14.99-3.36,1.53-.25,2.6-1.67,2.39-3.21l-1.81-12.72c-.22-1.54,.85-2.97,2.39-3.16,3.15-.39,6.32-.68,9.49-.88,1.35-.08,2.49,.96,2.55,2.31,.06,1.35-.98,2.49-2.33,2.57-1.37,.08-2.73,.19-4.1,.31-1.55,.14-2.66,1.53-2.5,3.07l.86,7.92c.17,1.54,1.56,2.66,3.1,2.52,5.11-.45,10.26-.6,15.39-.47,1.55,.04,2.87-1.16,2.94-2.71l.6-12.84c.07-1.55,1.39-2.75,2.94-2.65,3.17,.21,6.33,.51,9.48,.92,1.34,.17,2.26,1.41,2.07,2.75-.19,1.33-1.43,2.26-2.77,2.09-1.36-.17-2.72-.33-4.08-.46-1.55-.15-2.9,1-3.03,2.55l-.64,7.95c-.12,1.55,1.03,2.9,2.58,3.06,5.1,.52,10.17,1.33,15.18,2.42,1.52,.33,3.04-.59,3.4-2.1l3.02-12.49c.37-1.51,1.89-2.44,3.39-2.05,3.07,.81,6.12,1.71,9.14,2.7,1.28,.42,1.95,1.82,1.51,3.09-.44,1.27-1.84,1.94-3.12,1.52-1.3-.43-2.61-.84-3.92-1.23-1.49-.44-3.04,.43-3.46,1.93l-2.13,7.68c-.42,1.5,.46,3.04,1.95,3.49,4.91,1.48,9.73,3.24,14.43,5.27,1.43,.62,3.09,0,3.74-1.42l5.35-11.69c.65-1.41,2.32-2.04,3.72-1.36,2.87,1.38,5.69,2.84,8.46,4.39,1.18,.66,1.57,2.15,.89,3.32-.68,1.17-2.17,1.56-3.35,.9-1.2-.67-2.4-1.32-3.62-1.96-1.38-.72-3.07-.15-3.76,1.24l-3.56,7.13c-.69,1.39-.13,3.08,1.25,3.8,4.54,2.38,8.94,5.03,13.18,7.92,1.28,.88,3.04,.58,3.94-.68l7.46-10.46c.9-1.26,2.66-1.56,3.91-.64,2.55,1.89,5.04,3.86,7.47,5.91,1.03,.87,1.14,2.41,.25,3.43-.89,1.02-2.43,1.12-3.46,.25-1.05-.88-2.1-1.75-3.17-2.6-1.22-.97-2.99-.73-3.93,.5l-4.84,6.33c-.94,1.23-.71,3,.51,3.97,4.01,3.2,7.84,6.63,11.45,10.27,1.1,1.1,2.87,1.15,4,.07l9.3-8.87c1.12-1.07,2.91-1.03,3.96,.11,2.15,2.34,4.23,4.74,6.23,7.21,.85,1.05,.66,2.58-.4,3.42-1.06,.83-2.59,.65-3.44-.4-.86-1.06-1.74-2.11-2.63-3.15-1.01-1.18-2.79-1.28-3.95-.24l-5.95,5.3c-1.16,1.03-1.26,2.81-.25,3.99,3.34,3.9,6.45,7.99,9.31,12.24,.87,1.29,2.61,1.67,3.91,.83l13.22-8.51c2.12,3.34,4.37,7.24,6.21,10.67,.64,1.19,.16,2.66-1.04,3.28-1.2,.62-2.67,.14-3.31-1.05-.65-1.21-1.31-2.41-1.99-3.59-.77-1.35-2.5-1.78-3.84-.99l-6.84,4.09c-1.33,.8-1.77,2.52-1,3.87,2.54,4.45,4.82,9.05,6.82,13.77,.61,1.43,2.24,2.13,3.69,1.55l11.93-4.78c1.44-.58,3.08,.12,3.63,1.57,1.13,2.97,2.16,5.98,3.1,9.02,.4,1.29-.35,2.65-1.65,3.02-1.29,.38-2.65-.37-3.04-1.66-.41-1.31-.83-2.61-1.27-3.91-.5-1.47-2.12-2.23-3.58-1.7l-7.49,2.71c-1.46,.53-2.21,2.14-1.72,3.61,1.64,4.85,3,9.8,4.07,14.81,.33,1.52,1.8,2.52,3.32,2.23l12.62-2.42c1.53-.29,3,.71,3.27,2.24,.54,3.13,.98,6.28,1.32,9.44,.15,1.34-.84,2.53-2.19,2.65-1.34,.12-2.53-.86-2.68-2.2-.15-1.36-.32-2.72-.5-4.08-.21-1.54-1.65-2.59-3.19-2.35l-7.87,1.24c-1.54,.24-2.58,1.68-2.37,3.22,.69,5.08,1.08,10.21,1.19,15.34,.03,1.55,1.29,2.81,2.84,2.81h12.85c1.55,0,2.82,1.26,2.79,2.81-.06,3.17-.21,6.34-.46,9.51Z"/>
    </g>
  </g>
</svg>