<?xml version="1.0" encoding="utf-8"?>
<!-- Generator: Adobe Illustrator 26.2.1, SVG Export Plug-In . SVG Version: 6.00 Build 0)  -->
<svg version="1.1" id="Layer_1" xmlns="http://www.w3.org/2000/svg" xmlns:xlink="http://www.w3.org/1999/xlink" x="0px" y="0px"
	 viewBox="0 0 32 32" style="enable-background:new 0 0 32 32;" xml:space="preserve">
<style type="text/css">
	.st0{fill:#FFFFFF;}
	.st1{fill:url(#SVGID_1_);}
	.st2{fill:url(#SVGID_00000115476543592982158430000006886315997057283748_);}
	.st3{fill:#1A73E8;}
	.st4{fill:url(#SVGID_00000107556524286806706600000007808530144019081616_);}
</style>
<path class="st0" d="M16,24c4.4,0,8-3.6,8-8s-3.6-8-8-8s-8,3.6-8,8S11.6,24,16,24z"/>
<linearGradient id="SVGID_1_" gradientUnits="userSpaceOnUse" x1="17.7326" y1="-282.9992" x2="3.877" y2="-306.9978" gradientTransform="matrix(1 0 0 1 0 314)">
	<stop  offset="0" style="stop-color:#1E8E3E"/>
	<stop  offset="1" style="stop-color:#34A853"/>
</linearGradient>
<path class="st1" d="M9.1,20L2.1,8C0.7,10.4,0,13.2,0,16s0.7,5.6,2.1,8s3.4,4.5,5.9,5.9c2.4,1.4,5.2,2.1,8,2.1l6.9-12v0
	c-0.7,1.2-1.7,2.2-2.9,2.9c-1.2,0.7-2.6,1.1-4,1.1s-2.8-0.4-4-1.1C10.8,22.2,9.8,21.2,9.1,20z"/>
<linearGradient id="SVGID_00000092424769864147446320000012989658902402911390_" gradientUnits="userSpaceOnUse" x1="13.6664" y1="-281.9581" x2="27.5217" y2="-305.9562" gradientTransform="matrix(1 0 0 1 0 314)">
	<stop  offset="0" style="stop-color:#FCC934"/>
	<stop  offset="1" style="stop-color:#FBBC04"/>
</linearGradient>
<path style="fill:url(#SVGID_00000092424769864147446320000012989658902402911390_);" d="M22.9,20L16,32c2.8,0,5.6-0.7,8-2.1
	c2.4-1.4,4.5-3.4,5.9-5.9c1.4-2.4,2.1-5.2,2.1-8s-0.7-5.6-2.1-8H16l0,0c1.4,0,2.8,0.4,4,1.1c1.2,0.7,2.2,1.7,2.9,2.9s1.1,2.6,1.1,4
	C24,17.4,23.6,18.8,22.9,20L22.9,20z"/>
<path class="st3" d="M16,22.3c3.5,0,6.3-2.8,6.3-6.3S19.5,9.7,16,9.7S9.7,12.5,9.7,16S12.5,22.3,16,22.3z"/>
<linearGradient id="SVGID_00000018916576311627652580000002802001237634738097_" gradientUnits="userSpaceOnUse" x1="2.1444" y1="-303.9989" x2="29.8556" y2="-303.9989" gradientTransform="matrix(1 0 0 1 0 314)">
	<stop  offset="0" style="stop-color:#D93025"/>
	<stop  offset="1" style="stop-color:#EA4335"/>
</linearGradient>
<path style="fill:url(#SVGID_00000018916576311627652580000002802001237634738097_);" d="M16,8h13.9c-1.4-2.4-3.4-4.5-5.9-5.9
	C21.6,0.7,18.8,0,16,0c-2.8,0-5.6,0.7-8,2.1S3.5,5.6,2.1,8l6.9,12l0,0C8.4,18.8,8,17.4,8,16s0.4-2.8,1.1-4c0.7-1.2,1.7-2.2,2.9-2.9
	C13.2,8.4,14.6,8,16,8z"/>
</svg>
