<?xml version="1.0" encoding="utf-8"?>
<!-- Generator: Adobe Illustrator 26.5.0, SVG Export Plug-In . SVG Version: 6.00 Build 0)  -->
<svg version="1.1" id="Layer_1" xmlns="http://www.w3.org/2000/svg" xmlns:xlink="http://www.w3.org/1999/xlink" x="0px" y="0px"
	 viewBox="0 0 94 24" style="enable-background:new 0 0 94 24;" xml:space="preserve">
<style type="text/css">
	.st0{fill:#FFFFFF;}
</style>
<g>
	<path class="st0" d="M33.7,14.3L33.7,14.3c0-1.2-0.4-2.3-1.2-3.1c-0.9-0.9-2.3-1.4-4.1-1.4h-6.3v14.1h2.5V19h3.1l3.5,4.9h3
		l-3.8-5.3C32.3,18,33.7,16.6,33.7,14.3z M24.6,16.8V12h3.6c1.9,0,3,0.8,3,2.3l0,0c0,1.4-1.1,2.4-2.9,2.4L24.6,16.8L24.6,16.8z"/>
	<path class="st0" d="M43.9,9.7l-6.3,14.2h2.6l1.5-3.4h6.7l1.4,3.4h2.6L46.2,9.7H43.9z M42.6,18.3l2.5-5.6l2.5,5.6H42.6z"/>
	<path class="st0" d="M69.4,16.8L69.4,16.8c0-4-3.1-7.1-7.6-7.1h-5.3v14.1h5.4C66.4,23.8,69.4,20.8,69.4,16.8z M66.8,16.9
		c0,2.8-2,4.8-4.9,4.8H59V12h2.8C64.8,12,66.8,14.1,66.8,16.9L66.8,16.9z"/>
	<rect x="73.8" y="9.8" class="st0" width="2.5" height="14.1"/>
	<polygon class="st0" points="93.8,9.8 90.9,9.8 87.4,14.9 83.8,9.8 80.9,9.8 85.8,16.7 80.7,23.9 83.6,23.9 87.3,18.5 91.1,23.9 
		94,23.9 94,23.8 88.9,16.7 	"/>
	<path class="st0" d="M9.3,20.3c0.1,0.2,0.3,0.3,0.5,0.4s0.4,0.2,0.6,0.2l0,0c0.1,0,0.1,0,0.2,0c0.2,0,0.5-0.1,0.7-0.3
		c0.2-0.1,0.4-0.3,0.5-0.6l7.6-17.3h7.8V0h-8.8c-0.3,0-0.5,0.1-0.8,0.2c-0.2,0.1-0.4,0.4-0.5,0.6l-7,15.8l-4.6-6.3
		C5.4,10.2,5.2,10.1,5,10S4.6,9.8,4.4,9.8H0v2.8h3.7L9.3,20.3z"/>
</g>
</svg>
